<svg width="25" height="24" viewBox="0 0 25 24" fill="none" xmlns="http://www.w3.org/2000/svg">
<path d="M10.5405 13C10.728 13 10.9155 12.8438 10.9155 12.625V11.375C10.9155 11.1875 10.728 11 10.5405 11H9.29053C9.07178 11 8.91553 11.1875 8.91553 11.375V12.625C8.91553 12.8438 9.07178 13 9.29053 13H10.5405ZM13.9155 12.625V11.375C13.9155 11.1875 13.728 11 13.5405 11H12.2905C12.0718 11 11.9155 11.1875 11.9155 11.375V12.625C11.9155 12.8438 12.0718 13 12.2905 13H13.5405C13.728 13 13.9155 12.8438 13.9155 12.625ZM16.9155 12.625V11.375C16.9155 11.1875 16.728 11 16.5405 11H15.2905C15.0718 11 14.9155 11.1875 14.9155 11.375V12.625C14.9155 12.8438 15.0718 13 15.2905 13H16.5405C16.728 13 16.9155 12.8438 16.9155 12.625ZM13.9155 15.625V14.375C13.9155 14.1875 13.728 14 13.5405 14H12.2905C12.0718 14 11.9155 14.1875 11.9155 14.375V15.625C11.9155 15.8438 12.0718 16 12.2905 16H13.5405C13.728 16 13.9155 15.8438 13.9155 15.625ZM10.9155 15.625V14.375C10.9155 14.1875 10.728 14 10.5405 14H9.29053C9.07178 14 8.91553 14.1875 8.91553 14.375V15.625C8.91553 15.8438 9.07178 16 9.29053 16H10.5405C10.728 16 10.9155 15.8438 10.9155 15.625ZM16.9155 15.625V14.375C16.9155 14.1875 16.728 14 16.5405 14H15.2905C15.0718 14 14.9155 14.1875 14.9155 14.375V15.625C14.9155 15.8438 15.0718 16 15.2905 16H16.5405C16.728 16 16.9155 15.8438 16.9155 15.625ZM19.9155 7.5C19.9155 6.6875 19.228 6 18.4155 6H16.9155V4.375C16.9155 4.1875 16.728 4 16.5405 4H15.2905C15.0718 4 14.9155 4.1875 14.9155 4.375V6H10.9155V4.375C10.9155 4.1875 10.728 4 10.5405 4H9.29053C9.07178 4 8.91553 4.1875 8.91553 4.375V6H7.41553C6.57178 6 5.91553 6.6875 5.91553 7.5V18.5C5.91553 19.3438 6.57178 20 7.41553 20H18.4155C19.228 20 19.9155 19.3438 19.9155 18.5V7.5ZM18.4155 18.3125C18.4155 18.4375 18.3218 18.5 18.228 18.5H7.60303C7.47803 18.5 7.41553 18.4375 7.41553 18.3125V9H18.4155V18.3125Z" fill="#3E7BFA"/>
</svg>
