<svg width="25" height="24" viewBox="0 0 25 24" fill="none" xmlns="http://www.w3.org/2000/svg">
<path d="M21.958 18.5H2.95801C2.67676 18.5 2.45801 18.75 2.45801 19V19.5C2.45801 19.7812 2.67676 20 2.95801 20H21.958C22.208 20 22.458 19.7812 22.458 19.5V19C22.458 18.75 22.208 18.5 21.958 18.5ZM5.98926 13.7812C6.27051 14.0312 6.61426 14.2188 6.98926 14.3125L16.583 16.8125C17.2705 17 18.3643 17.1562 19.4893 16.8438C20.5518 16.5625 21.208 16.0625 21.3955 15.375C21.583 14.6875 21.2705 13.9062 20.4893 13.125C19.833 12.5 18.958 12 17.9268 11.75L14.8643 10.9375L11.6455 5.0625C11.458 4.71875 11.1143 4.4375 10.708 4.34375C9.58301 4.03125 9.55176 4 9.30176 4C8.89551 4 8.48926 4.1875 8.20801 4.46875C7.95801 4.75 7.80176 5.125 7.80176 5.5C7.80176 5.65625 7.80176 5.8125 7.86426 5.9375L8.89551 9.40625L6.48926 8.75L5.77051 6.96875C5.58301 6.53125 5.20801 6.3125 4.77051 6.1875C4.33301 6.0625 4.17676 6.03125 3.95801 6.03125C2.83301 6.03125 2.45801 6.9375 2.45801 7.4375V10.0625C2.45801 10.5312 2.64551 10.9375 2.95801 11.2188L5.98926 13.7812ZM3.95801 7.4375L4.39551 7.5625L5.39551 10.0312L11.1143 11.5312L9.30176 5.5L10.333 5.78125L13.8643 12.25L17.5518 13.1875C18.3018 13.4062 18.958 13.75 19.4268 14.2188C19.8955 14.6875 19.958 14.9375 19.9268 14.9688C19.9268 15.0312 19.7393 15.2188 19.1143 15.4062C18.8955 15.4688 18.1143 15.6562 16.958 15.3438L7.39551 12.8438C7.23926 12.8125 7.08301 12.75 6.95801 12.625L3.95801 10.0625V7.4375Z" fill="#3E7BFA"/>
</svg>
