<svg width="25" height="24" viewBox="0 0 25 24" fill="none" xmlns="http://www.w3.org/2000/svg">
<path d="M20.7061 18.6562L16.9248 14.875C16.8311 14.8125 16.7373 14.75 16.6436 14.75H16.2373C17.2061 13.625 17.8311 12.125 17.8311 10.5C17.8311 6.9375 14.8936 4 11.3311 4C7.7373 4 4.83105 6.9375 4.83105 10.5C4.83105 14.0938 7.7373 17 11.3311 17C12.9561 17 14.4248 16.4062 15.5811 15.4375V15.8438C15.5811 15.9375 15.6123 16.0312 15.6748 16.125L19.4561 19.9062C19.6123 20.0625 19.8623 20.0625 19.9873 19.9062L20.7061 19.1875C20.8623 19.0625 20.8623 18.8125 20.7061 18.6562ZM11.3311 15.5C8.5498 15.5 6.33105 13.2812 6.33105 10.5C6.33105 7.75 8.5498 5.5 11.3311 5.5C14.0811 5.5 16.3311 7.75 16.3311 10.5C16.3311 13.2812 14.0811 15.5 11.3311 15.5Z" fill="white"/>
</svg>
