<svg width="190" height="139" viewBox="0 0 190 139" fill="none" xmlns="http://www.w3.org/2000/svg">
<g id="Group 58">
<g id="No Activities">
<path id="Rectangle 3" d="M182.623 77.5193C182.623 44.3608 155.743 17.4805 122.584 17.4805H67.0388C33.8803 17.4805 7 44.3608 7 77.5193C7 110.678 33.8803 137.558 67.0388 137.558H122.584C155.743 137.558 182.623 110.678 182.623 77.5193Z" fill="#3E7BFA"/>
</g>
<g id="Mask group">
<mask id="mask0_372_5212" style="mask-type:alpha" maskUnits="userSpaceOnUse" x="0" y="0" width="190" height="139">
<g id="No Activities_2">
<path id="Rectangle 3_2" d="M189.049 69.0369C189.049 30.9089 158.14 0 120.012 0H69.9857C31.8577 0 0.948822 30.9089 0.948822 69.0369C0.948822 107.165 31.8577 138.074 69.9857 138.074H120.012C158.14 138.074 189.049 107.165 189.049 69.0369Z" fill="#23BA3B"/>
</g>
</mask>
<g mask="url(#mask0_372_5212)">
<g id="Group 55">
<path id="Vector 195" d="M50.8447 102.38L72.7687 94.0873C74.1633 93.5598 75.6112 93.186 77.0867 92.9723L104.086 89.0625C107.822 88.5214 111.636 89.0219 115.106 90.5089L150.354 105.611C155.38 107.765 159.338 111.834 161.35 116.918L179.177 161.946C183.66 173.269 175.103 185.485 162.93 185.143L154.349 184.901C153.345 184.873 152.439 184.292 151.994 183.391L151.659 182.711C150.543 180.448 147.157 181.079 146.932 183.593C146.817 184.88 145.738 185.867 144.445 185.867H44.9723C31.4031 185.867 21.5714 172.93 25.2045 159.857L27.9573 149.951L38.4851 115.564C40.3435 109.494 44.907 104.626 50.8447 102.38Z" fill="#FBF3E7"/>
<path id="Intersect" d="M129.442 96.6511L109.799 88.2351L74.8669 93.2937L64.9199 97.0561C77.929 111.838 101.552 123.93 129.442 96.6511Z" fill="#AEAEAE"/>
<path id="Vector 193" d="M78.8598 89.7526C79.6583 88.1338 78.5271 81.6588 77.8617 78.6236C72.2725 72.9579 68.2137 59.0635 66.8829 52.8245L62.8906 35.1193L72.8714 21.9668L92.8329 21.4609C98.9876 27.5313 112.195 40.0767 115.789 41.6955C120.28 43.719 120.28 49.2835 118.783 54.848C117.585 59.2996 114.291 61.087 112.794 61.4242L110.798 69.518C111.297 75.2511 112.495 87.0209 113.293 88.235C114.092 89.4491 119.282 92.4505 121.777 93.7995C99.0209 115.653 79.0262 103.242 71.8733 94.3054C73.8694 93.4622 78.0614 91.3713 78.8598 89.7526Z" fill="#E5A072"/>
<path id="Intersect_2" d="M110.803 69.5752C111.305 75.329 112.498 87.025 113.293 88.2351C114.092 89.4492 119.282 92.4506 121.777 93.7996C119.161 96.3118 116.582 98.3712 114.054 100.035C101.262 95.1264 86.1848 88.3929 78.5338 82.1323C78.4129 81.4064 78.2847 80.7056 78.1602 80.068C83.1916 82.537 90.7814 84.0269 97.8233 82.1647C103.996 80.5323 107.959 74.9217 110.803 69.5752Z" fill="#BE693B"/>
<path id="Vector 192" d="M113.791 48.272C115.122 49.1151 117.284 51.4083 115.288 53.8365" stroke="#232323" stroke-width="2.93098" stroke-linecap="round"/>
<path id="Vector 190" d="M66.3828 49.2834C68.7117 60.4125 73.8684 82.4681 87.8414 83.6822" stroke="#232323" stroke-width="2.93098" stroke-linecap="round"/>
<path id="Vector 189" d="M67.8791 49.7894V55.8598C59.8945 41.6956 59.8945 34.4449 60.8926 32.5901L59.8945 31.0725C67.4799 6.79101 89.005 9.15171 98.8194 13.3672C112.792 13.7719 116.618 32.7587 116.785 42.2015C113.192 40.5827 111.295 45.2367 110.796 47.766C110.397 42.9097 102.978 33.6018 99.3185 29.5549L89.3377 26.0138C82.95 35.3217 72.7031 36.9742 68.3781 36.637C64.7851 39.0651 66.5483 46.417 67.8791 49.7894Z" fill="#232323"/>
<path id="Vector 187" d="M82.3517 48.7776C82.6843 52.3186 83.1501 59.8054 82.3517 61.4242C81.3536 63.4476 84.8468 64.4594 87.8411 63.4476" stroke="#232323" stroke-width="2.34478" stroke-linecap="round"/>
<path id="Vector 183" d="M71.0103 42.9753C75.5958 39.8691 77.6005 41.448 78.3123 42.5598C78.5654 42.9552 78.3252 43.4123 77.8868 43.5835L76.3491 44.1841C73.4566 45.3139 70.8036 46.9847 68.5322 49.1071C68.2374 49.3825 67.7657 49.3756 67.5715 49.0236C66.9009 47.8081 66.9984 45.693 71.0103 42.9753Z" fill="#232323"/>
<path id="Vector 196" d="M91.3443 37.5563C94.2292 37.5199 96.5027 38.3401 98.2312 39.3675C99.4974 40.12 98.5657 41.795 97.1094 41.5933C90.4859 40.6758 85.7505 42.0583 85.0307 41.5052C84.1414 40.8219 83.7111 37.6524 91.3443 37.5563Z" fill="#232323"/>
<g id="Mask group_2">
<mask id="mask1_372_5212" style="mask-type:alpha" maskUnits="userSpaceOnUse" x="68" y="48" width="15" height="10">
<path id="Vector 184" d="M79.8577 48.7776C73.1579 48.7776 69.5985 51.6717 68.2857 53.6255C67.9999 54.0509 68.0572 54.6125 68.3819 55.0089C75.5299 63.7358 89.1181 48.7776 79.8577 48.7776Z" fill="black"/>
</mask>
<g mask="url(#mask1_372_5212)">
<g id="Group 53">
<ellipse id="Ellipse 30" cx="4.49832" cy="4.54586" rx="4.49832" ry="4.54586" transform="matrix(0.940343 -0.340228 0.332533 0.943092 69.3789 49.311)" fill="white"/>
<ellipse id="Ellipse 32" cx="74.3692" cy="53.3303" rx="2.99422" ry="3.03518" fill="#232323"/>
</g>
</g>
</g>
<g id="Mask group_3">
<mask id="mask2_372_5212" style="mask-type:alpha" maskUnits="userSpaceOnUse" x="86" y="44" width="16" height="10">
<path id="Vector 184_2" d="M98.3206 44.2727C91.6208 44.2727 88.0614 47.1668 86.7486 49.1207C86.4628 49.546 86.5201 50.1076 86.8448 50.504C93.9928 59.2309 107.581 44.2727 98.3206 44.2727Z" fill="black"/>
</mask>
<g mask="url(#mask2_372_5212)">
<g id="Group 53_2">
<ellipse id="Ellipse 30_2" cx="4.49832" cy="4.54586" rx="4.49832" ry="4.54586" transform="matrix(0.940343 -0.340228 0.332533 0.943092 87.8418 44.8062)" fill="white"/>
<ellipse id="Ellipse 32_2" cx="92.8321" cy="48.8252" rx="2.99422" ry="3.03518" fill="#232323"/>
</g>
</g>
</g>
<g id="Group 26">
<path id="Vector 25" d="M122.622 32.5103L128.562 23.5274" stroke="white" stroke-width="2.49084" stroke-linecap="round"/>
<path id="Vector 26" d="M125.761 36.7964L134.434 30.4808" stroke="white" stroke-width="2.49084" stroke-linecap="round"/>
<path id="Vector 27" d="M128.618 41.5594L139.136 39.5979" stroke="white" stroke-width="2.49084" stroke-linecap="round"/>
</g>
<path id="Vector 185" d="M69.377 51.8131C70.8741 50.6327 75.066 48.3732 79.8567 48.7779" stroke="#232323" stroke-width="2.34478" stroke-linecap="round"/>
<path id="Vector 186" d="M87.8418 47.3079C89.3389 46.1276 93.5308 43.8681 98.3216 44.2727" stroke="#232323" stroke-width="2.34478" stroke-linecap="round"/>
<ellipse id="Ellipse 11" opacity="0.3" cx="4.54064" cy="1.84628" rx="4.54064" ry="1.84628" transform="matrix(0.978368 -0.206873 0.201555 0.979477 91.334 57.2327)" fill="#E50A3E"/>
<ellipse id="Ellipse 12" opacity="0.3" cx="4.54064" cy="1.84628" rx="4.54064" ry="1.84628" transform="matrix(0.978368 -0.206873 0.201555 0.979477 71.373 61.2793)" fill="#E50A3E"/>
<ellipse id="Ellipse 33" cx="5.40776" cy="1.70291" rx="5.40776" ry="1.70291" transform="matrix(0.987843 -0.155455 0.151385 0.988475 87.3418 70.1877)" fill="#232323"/>
</g>
<g id="Group 56">
<path id="Vector 205" d="M58.6315 136.623L45.5313 108.921C45.1217 108.055 44.2974 107.464 43.3482 107.356L32.1858 106.08C30.5143 105.889 29.0482 107.224 29.0695 108.916L29.5439 146.734C29.568 148.661 31.4758 149.975 33.2772 149.306L57.0655 140.465C58.6085 139.891 59.3347 138.11 58.6315 136.623Z" fill="#FBF3E7"/>
<path id="Vector 204" d="M30.7551 67.0986C30.5646 68.8117 36.8444 76.4688 40.0082 80.0832L41.4778 81.487C42.4256 82.3925 43.8779 82.5055 44.9638 81.7582L65.1208 67.8873C66.3942 67.0111 66.7266 65.2671 65.8631 63.9928L57.0186 50.9399C56.1654 49.6809 54.4644 49.3466 53.1975 50.1992C44.6103 55.9783 30.9291 65.5335 30.7551 67.0986Z" fill="#E50A3E"/>
<path id="Vector 197" d="M30.8281 79.902C20.5093 84.9688 20.6767 91.0311 22.0503 93.429C19.7175 95.9383 22.308 98.8077 23.8949 99.9287C25.5312 104.453 32.0172 115.386 37.2539 114.467C41.4433 113.731 44.9206 110.933 46.1356 109.626L44.6183 104.031C47.6535 96.7444 45.3081 88.2068 43.7561 84.8488C44.971 83.5419 47.3504 80.2283 47.1482 77.4294C46.8954 73.9307 43.7266 73.5686 30.8281 79.902Z" fill="#E5A072"/>
<path id="Vector 203" d="M41.9119 78.349C41.3883 76.9013 43.7468 75.9563 44.9915 75.6648C45.8048 76.0469 47.2855 76.9678 46.7023 77.5952C45.9733 78.3793 42.5664 80.1587 41.9119 78.349Z" fill="#EFC6AA"/>
<path id="Vector 202" d="M41.1084 81.7273L39.5163 78.726" stroke="#232323" stroke-width="2.23356" stroke-linecap="round"/>
<path id="Vector 198" d="M46.3008 79.2841C42.0558 81.546 32.6971 86.1875 26.3058 89.7945" stroke="#232323" stroke-width="2.23356" stroke-linecap="round"/>
<path id="Vector 201" d="M33.8472 100.849C36.2126 99.4565 41.3512 97.2388 42.9816 99.5069C45.0197 102.342 43.5617 103.91 39.7085 105.856" stroke="#232323" stroke-width="2.23356" stroke-linecap="round"/>
<path id="Vector 200" d="M32.0042 94.3491C33.9085 92.6149 39.6749 89.2401 42.1504 91.6048C44.6259 93.9695 44.1437 98.0492 43.5932 99.7935" stroke="#232323" stroke-width="2.23356" stroke-linecap="round"/>
<path id="Vector 199" d="M36.9727 84.2906C39.2886 84.6275 44.054 86.7912 42.1496 91.6048" stroke="#232323" stroke-width="2.23356" stroke-linecap="round"/>
<rect id="Rectangle 24" width="24.7754" height="3.27563" rx="1.63782" transform="matrix(-0.821359 0.574155 0.561289 0.825074 53.5039 52.9985)" fill="#F2D1BB"/>
<rect id="Rectangle 25" width="24.7754" height="2.23525" rx="1.11762" transform="matrix(-0.821359 0.574155 0.561289 0.825074 55.8379 56.2371)" fill="#F2D1BB"/>
<path id="Vector 206" d="M45.543 109.308C49.5969 121.636 60.218 147.361 70.2716 151.635" stroke="#232323" stroke-width="2.14286" stroke-linecap="round"/>
</g>
<g id="Group 57">
<path id="Vector 205_2" d="M150.718 137.765L155.98 107.502C156.144 106.559 156.781 105.766 157.666 105.403L168.069 101.132C169.632 100.491 171.404 101.376 171.833 103.013L181.42 139.569C181.908 141.428 180.418 143.209 178.503 143.056L153.251 141.033C151.611 140.902 150.436 139.387 150.718 137.765Z" fill="#FBF3E7"/>
<path id="Vector 207" d="M155.723 110.114C154.073 122.955 148.275 150.882 138.29 159.855" stroke="#232323" stroke-width="2.14286" stroke-linecap="round"/>
<path id="Vector 204_2" d="M159.103 63.1958C159.742 64.7937 155.727 73.8817 153.64 78.2259L152.598 79.9769C151.925 81.1083 150.552 81.6135 149.305 81.1889L126.215 73.3325C124.756 72.8359 123.972 71.2511 124.464 69.7916L129.518 54.8001C130.005 53.3552 131.559 52.5697 133.009 53.0463C142.814 56.2692 158.52 61.7363 159.103 63.1958Z" fill="#E50A3E"/>
<path id="Vector 197_2" d="M162.431 75.5466C173.715 77.6107 175.163 83.4949 174.477 86.1791C177.39 87.9592 175.657 91.4296 174.427 92.9422C174.052 97.7459 170.709 110.046 165.421 110.589C161.191 111.023 157.099 109.278 155.582 108.35L155.557 102.548C150.699 96.3583 150.691 87.4959 151.294 83.8383C149.777 82.9112 146.605 80.3691 146.057 77.6183C145.371 74.1798 148.327 72.9665 162.431 75.5466Z" fill="#E5A072"/>
<path id="Vector 203_2" d="M151.346 77.0753C151.465 75.5381 148.943 75.2716 147.667 75.3305C146.985 75.9204 145.803 77.2114 146.532 77.6564C147.442 78.2127 151.196 78.9968 151.346 77.0753Z" fill="#EFC6AA"/>
<path id="Vector 202_2" d="M153.015 80.1094L153.752 76.7848" stroke="#232323" stroke-width="2.23356" stroke-linecap="round"/>
<path id="Vector 198_2" d="M147.367 79.1733C152.056 80.1935 162.302 82.11 169.415 83.84" stroke="#232323" stroke-width="2.23356" stroke-linecap="round"/>
<path id="Vector 201_2" d="M165.086 96.5442C162.438 95.8487 156.9 95.115 155.932 97.7444C154.722 101.031 156.543 102.144 160.77 102.966" stroke="#232323" stroke-width="2.23356" stroke-linecap="round"/>
<path id="Vector 200_2" d="M165.138 89.7812C162.843 88.6306 156.394 86.9538 154.637 89.9066C152.881 92.8595 154.429 96.6571 155.422 98.1868" stroke="#232323" stroke-width="2.23356" stroke-linecap="round"/>
<path id="Vector 199_2" d="M157.679 81.4498C155.538 82.4062 151.523 85.7904 154.636 89.9067" stroke="#232323" stroke-width="2.23356" stroke-linecap="round"/>
<rect id="Rectangle 24_2" width="24.742" height="3.27996" rx="1.63998" transform="matrix(0.944782 0.329289 -0.321051 0.946523 133.449 55.8235)" fill="#F2D1BB"/>
<rect id="Rectangle 25_2" width="24.742" height="2.2382" rx="1.1191" transform="matrix(0.944782 0.329289 -0.321051 0.946523 132.062 59.5791)" fill="#F2D1BB"/>
</g>
</g>
</g>
</g>
</svg>
