<svg width="190" height="181" viewBox="0 0 190 181" fill="none" xmlns="http://www.w3.org/2000/svg">
<path d="M26.5703 158.45L29.9749 180.825H49.7545L54.3463 158.776L26.5703 158.45Z" fill="#EBEBEB"/>
<path d="M51.5804 172.797C51.5804 172.861 46.5097 172.913 40.2599 172.913C34.0101 172.913 28.9395 172.861 28.9395 172.797C28.9395 172.732 34.0061 172.68 40.2599 172.68C46.5137 172.68 51.5804 172.724 51.5804 172.797Z" fill="#FAFAFA"/>
<path d="M51.6571 171.69C51.6571 171.754 46.5543 171.806 40.2602 171.806C33.9661 171.806 28.8633 171.754 28.8633 171.69C28.8633 171.625 33.9661 171.573 40.2602 171.573C46.5543 171.573 51.6571 171.625 51.6571 171.69Z" fill="#FAFAFA"/>
<path d="M51.618 170.446C51.618 170.511 46.5152 170.563 40.2211 170.563C33.9271 170.563 28.8242 170.511 28.8242 170.446C28.8242 170.382 33.9271 170.33 40.2211 170.33C46.5152 170.33 51.618 170.382 51.618 170.446Z" fill="#FAFAFA"/>
<path d="M32.2496 179.545C31.9691 178.625 31.7658 177.683 31.642 176.728C31.4381 175.789 31.3116 174.835 31.2637 173.875C31.5419 174.796 31.7451 175.738 31.8713 176.692C32.0705 177.632 32.1969 178.586 32.2496 179.545Z" fill="#FAFAFA"/>
<path d="M33.593 179.308C33.3905 177.479 33.2656 175.642 33.2188 173.803C33.4324 174.703 33.5538 175.622 33.5809 176.547C33.6828 177.464 33.6869 178.39 33.593 179.308Z" fill="#FAFAFA"/>
<path d="M36.0427 179.308C35.578 177.452 35.3548 175.543 35.3787 173.63C35.566 174.56 35.7004 175.501 35.7811 176.447C35.9421 178.028 36.1071 179.296 36.0427 179.308Z" fill="#FAFAFA"/>
<path d="M37.7658 179.429C37.5791 178.485 37.4874 177.525 37.4922 176.563C37.4219 175.604 37.4516 174.639 37.5807 173.686C37.684 174.639 37.7324 175.597 37.7256 176.555C37.7935 177.512 37.8069 178.471 37.7658 179.429Z" fill="#FAFAFA"/>
<path d="M40.8131 179.308C40.6692 178.41 40.6005 177.501 40.6078 176.592C40.5375 175.684 40.5456 174.773 40.632 173.867C40.8452 175.672 40.9058 177.492 40.8131 179.308Z" fill="#FAFAFA"/>
<path d="M43.0409 179.429C42.9303 178.494 42.898 177.552 42.9443 176.612C42.9149 175.67 42.962 174.728 43.0851 173.795C43.193 174.729 43.2239 175.672 43.1777 176.612C43.2069 177.553 43.1612 178.495 43.0409 179.429Z" fill="#FAFAFA"/>
<path d="M45.1273 179.127C45.1063 178.145 45.1628 177.162 45.2963 176.189C45.3562 175.209 45.4908 174.235 45.6988 173.275C45.663 175.238 45.4732 177.194 45.1313 179.127H45.1273Z" fill="#FAFAFA"/>
<path d="M47.8184 178.833C47.9056 177.149 48.2658 175.491 48.8848 173.923C48.7637 174.752 48.5944 175.573 48.3777 176.382C48.2354 177.208 48.0487 178.027 47.8184 178.833Z" fill="#FAFAFA"/>
<path d="M45.9165 114.303L45.8923 114.415C45.8642 114.5 45.836 114.601 45.7998 114.729L45.4215 115.937C45.2525 116.46 45.0512 117.1 44.842 117.852C44.6327 118.605 44.3631 119.462 44.1297 120.404C43.8963 121.345 43.6065 122.392 43.357 123.518C43.1075 124.645 42.854 125.849 42.5964 127.12C42.1215 129.672 41.6869 132.493 41.3891 135.471C41.0913 138.449 40.9867 141.302 40.9303 143.894C40.9303 145.194 40.9303 146.425 40.9625 147.58C40.9947 148.735 41.047 149.805 41.1034 150.799C41.1597 151.793 41.2402 152.667 41.3006 153.443C41.3609 154.22 41.4253 154.888 41.4897 155.435C41.5541 155.983 41.5903 156.385 41.6185 156.691C41.6185 156.824 41.6426 156.932 41.6467 157.021C41.6528 157.058 41.6528 157.096 41.6467 157.134C41.6332 157.098 41.6251 157.06 41.6225 157.021C41.6225 156.937 41.5903 156.828 41.5702 156.699C41.5259 156.393 41.4696 155.975 41.3971 155.444C41.3247 154.912 41.2362 154.236 41.1678 153.455C41.0993 152.675 40.9907 151.793 40.9343 150.811C40.878 149.83 40.7975 148.755 40.7693 147.592C40.7412 146.429 40.717 145.202 40.709 143.902C40.7372 141.302 40.8659 138.445 41.1557 135.451C41.4454 132.457 41.9002 129.639 42.3871 127.084C42.6527 125.812 42.8902 124.597 43.192 123.462C43.4938 122.327 43.7272 121.293 43.9969 120.347C44.2665 119.402 44.52 118.548 44.7454 117.8C44.9708 117.051 45.18 116.416 45.3651 115.896C45.5503 115.377 45.679 114.995 45.7676 114.689C45.8118 114.564 45.8481 114.464 45.8803 114.383C45.8893 114.355 45.9015 114.328 45.9165 114.303Z" fill="#EBEBEB"/>
<path d="M42.3409 128.159C42.8857 126.545 43.9739 125.171 45.4196 124.271C45.9065 123.969 46.5262 123.724 47.0293 123.973C47.7175 124.307 47.7738 125.277 47.5686 126.018C47.2126 127.27 46.4185 128.352 45.331 129.068C44.3661 129.782 43.1584 130.086 41.9707 129.913" fill="#EBEBEB"/>
<path d="M41.1427 137.511C41.6538 135.579 43.1952 132.835 44.7928 131.64C45.0375 131.439 45.3192 131.289 45.6218 131.197C45.7746 131.154 45.9355 131.15 46.0905 131.183C46.2455 131.217 46.3899 131.288 46.5112 131.39C46.8372 131.704 46.805 132.231 46.7084 132.67C46.3807 134.079 45.6673 135.368 44.6481 136.395C43.6289 137.421 42.344 138.143 40.9375 138.481" fill="#EBEBEB"/>
<path d="M40.8125 145.745C41.6054 143.9 42.8766 142.301 44.4948 141.113C44.6677 140.955 44.8702 140.833 45.0906 140.755C45.311 140.676 45.5448 140.642 45.7785 140.654C46.4788 140.783 46.7967 141.636 46.7323 142.344C46.6075 143.801 45.4928 144.968 44.3459 145.874C43.1104 146.848 40.9373 147.624 40.9373 147.624" fill="#EBEBEB"/>
<path d="M40.998 151.665C41.7684 150.259 42.8387 149.04 44.133 148.095C44.4105 147.891 44.7313 147.753 45.0707 147.693C45.2416 147.662 45.4178 147.678 45.5802 147.739C45.7426 147.801 45.8851 147.906 45.9922 148.043C46.3061 148.506 45.9922 149.129 45.6703 149.572C44.5674 151.114 43.0009 152.263 41.1993 152.852" fill="#EBEBEB"/>
<path d="M40.8397 149.262C39.491 147.604 37.9916 146.075 36.3606 144.695C36.103 144.481 35.7851 144.256 35.4672 144.356C35.3491 144.408 35.2483 144.492 35.1769 144.599C35.1055 144.706 35.0665 144.831 35.0647 144.96C35.0599 145.22 35.1179 145.476 35.2338 145.709C35.769 146.899 36.5659 147.954 37.565 148.794C38.5641 149.635 39.7398 150.239 41.0046 150.562" fill="#EBEBEB"/>
<path d="M40.9862 141.556L37.4649 137.266C37.1568 136.833 36.7689 136.463 36.322 136.175C36.0957 136.038 35.8361 135.965 35.5715 135.965C35.3069 135.965 35.0473 136.038 34.821 136.175C34.6173 136.343 34.4644 136.565 34.3792 136.815C34.2939 137.065 34.2797 137.334 34.338 137.592C34.4668 138.101 34.7013 138.579 35.0262 138.992C35.7113 140.046 36.5795 140.969 37.5897 141.717C38.6239 142.429 39.5656 142.892 40.8092 142.707" fill="#EBEBEB"/>
<path d="M41.4732 132.883C40.7834 130.829 39.5614 128.995 37.9317 127.567C37.6775 127.309 37.3596 127.123 37.0102 127.028C36.3019 126.891 35.6218 127.483 35.4004 128.163C35.2897 128.552 35.2611 128.96 35.3166 129.362C35.372 129.763 35.5102 130.148 35.7224 130.493C36.1537 131.18 36.7173 131.775 37.3804 132.243C38.5655 133.151 39.8872 133.864 41.2961 134.356" fill="#EBEBEB"/>
<path d="M42.8803 125.152C42.5382 122.665 41.2424 120.593 39.7413 118.581C39.4274 118.154 38.9847 117.707 38.4616 117.776C38.2964 117.811 38.1428 117.888 38.0148 117.998C37.8868 118.109 37.7886 118.249 37.7291 118.408C37.6117 118.725 37.5637 119.064 37.5883 119.402C37.6533 120.909 38.1608 122.364 39.0475 123.585C39.9343 124.806 41.1609 125.739 42.5744 126.267" fill="#EBEBEB"/>
<path d="M43.8674 121.205C43.7041 119.929 43.661 118.641 43.7387 117.357C43.8175 116.066 44.2597 114.823 45.0144 113.772C45.3377 113.32 45.781 112.967 46.2941 112.753C46.5516 112.65 46.8314 112.615 47.1064 112.652C47.3814 112.688 47.6422 112.796 47.8636 112.963C48.0505 113.138 48.1957 113.353 48.2883 113.592C48.381 113.831 48.4187 114.088 48.3988 114.343C48.3534 114.854 48.2171 115.353 47.9964 115.816C47.0587 118.074 45.4973 120.573 43.8634 121.205" fill="#EBEBEB"/>
<path d="M28.5307 124.17C28.5402 124.275 28.5402 124.38 28.5307 124.484C28.5307 124.714 28.5307 125.016 28.5307 125.386C28.5307 125.756 28.5307 126.259 28.5549 126.814C28.579 127.37 28.5549 128.022 28.6193 128.706C28.6837 130.102 28.8165 131.768 29.0217 133.607C29.2269 135.447 29.565 137.455 29.9956 139.547C30.4262 141.64 30.9614 143.608 31.4926 145.383C32.0239 147.157 32.5792 148.731 33.1024 150.035C33.3438 150.695 33.5934 151.278 33.7986 151.793C34.0038 152.309 34.201 152.751 34.354 153.109C34.5069 153.468 34.6155 153.729 34.7081 153.942C34.7535 154.037 34.7898 154.135 34.8168 154.236C34.756 154.149 34.7047 154.056 34.6638 153.959L34.2614 153.154C34.0924 152.8 33.8871 152.349 33.6738 151.854C33.4605 151.359 33.1909 150.759 32.9414 150.103C32.4142 148.803 31.8548 147.226 31.2955 145.451C30.7361 143.676 30.225 141.7 29.7783 139.604C29.3316 137.507 29.062 135.475 28.8648 133.632C28.6676 131.788 28.5468 130.114 28.5066 128.71C28.4704 128.01 28.4784 127.374 28.4704 126.818C28.4623 126.263 28.4704 125.78 28.4704 125.386C28.4704 124.991 28.4945 124.714 28.5026 124.484C28.4996 124.379 28.509 124.274 28.5307 124.17Z" fill="#E0E0E0"/>
<path d="M29.082 134.368C29.1046 133.154 29.5485 131.986 30.3376 131.064C30.4522 130.893 30.6073 130.753 30.7891 130.656C30.971 130.559 31.1739 130.508 31.3799 130.509C31.9232 130.589 32.1848 131.237 32.1848 131.784C32.2131 132.714 31.906 133.622 31.3196 134.344C30.8137 135.034 30.0587 135.501 29.2148 135.644" fill="#E0E0E0"/>
<path d="M30.278 141.004C30.2096 139.58 30.6805 137.382 31.4853 136.223C31.6081 136.032 31.7683 135.868 31.9562 135.74C32.0512 135.679 32.1599 135.641 32.2727 135.63C32.3856 135.62 32.4993 135.637 32.6041 135.68C32.7342 135.775 32.8389 135.901 32.9091 136.046C32.9793 136.192 33.0127 136.352 33.0065 136.513C33.0861 137.542 32.8775 138.574 32.4041 139.491C31.9308 140.409 31.2113 141.177 30.3263 141.708" fill="#E0E0E0"/>
<path d="M31.8223 146.675C31.9658 145.247 32.4882 143.884 33.3354 142.727C33.4174 142.584 33.5268 142.458 33.6573 142.357C33.7878 142.256 33.9369 142.182 34.096 142.139C34.5991 142.075 34.9975 142.59 35.1061 143.085C35.3355 144.103 34.8284 145.137 34.2409 145.998C33.6791 146.722 33.0257 147.37 32.2971 147.926" fill="#E0E0E0"/>
<path d="M33.2227 150.663C33.4434 149.54 33.9107 148.48 34.5909 147.56C34.7335 147.358 34.9208 147.191 35.1382 147.073C35.2481 147.015 35.3718 146.988 35.496 146.995C35.6202 147.002 35.74 147.043 35.8425 147.113C36.1564 147.359 36.088 147.846 35.9512 148.224C35.5312 149.51 34.7122 150.63 33.613 151.419" fill="#E0E0E0"/>
<path d="M32.5992 149.053C31.3265 148.216 29.9794 147.498 28.5749 146.908C28.4733 146.846 28.358 146.811 28.2394 146.804C28.1207 146.798 28.0023 146.821 27.8948 146.872C27.8244 146.932 27.773 147.011 27.7466 147.099C27.7201 147.188 27.7199 147.282 27.7459 147.371C27.8 147.546 27.8936 147.708 28.0195 147.842C28.6404 148.537 29.41 149.084 30.2711 149.441C31.1322 149.799 32.0627 149.957 32.9936 149.906" fill="#E0E0E0"/>
<path d="M31.0417 143.785L27.7176 141.62C27.4146 141.395 27.0719 141.228 26.7075 141.129C26.5245 141.082 26.332 141.086 26.1511 141.141C25.9702 141.195 25.8077 141.298 25.6813 141.439C25.5787 141.598 25.5221 141.782 25.5178 141.971C25.5136 142.16 25.5618 142.346 25.6571 142.509C25.857 142.828 26.1199 143.102 26.4298 143.314C27.1221 143.886 27.9132 144.327 28.7639 144.614C29.6211 144.88 30.3737 144.988 31.1785 144.614" fill="#E0E0E0"/>
<path d="M29.5077 137.785C28.5948 136.534 27.3675 135.547 25.9502 134.924C25.7207 134.804 25.464 134.748 25.2057 134.759C24.9547 134.816 24.7316 134.959 24.575 135.163C24.4185 135.367 24.3383 135.62 24.3485 135.877C24.3592 136.164 24.4286 136.446 24.5525 136.705C24.6764 136.963 24.8522 137.194 25.0689 137.382C25.5101 137.757 26.0218 138.041 26.574 138.215C27.5758 138.577 28.6282 138.78 29.6928 138.815" fill="#E0E0E0"/>
<path d="M28.7998 132.207C28.0311 130.597 26.7031 129.454 25.2503 128.408C25.1144 128.276 24.9462 128.182 24.7626 128.135C24.579 128.089 24.3864 128.091 24.204 128.142C24.1002 128.203 24.0129 128.289 23.9498 128.391C23.8866 128.494 23.8496 128.61 23.8418 128.73C23.8303 128.972 23.87 129.213 23.9585 129.438C24.3292 130.45 24.9891 131.331 25.8562 131.972C26.7234 132.612 27.7595 132.984 28.836 133.04" fill="#E0E0E0"/>
<path d="M28.6187 129.306C28.2328 128.473 27.9269 127.605 27.7052 126.714C27.481 125.819 27.5145 124.878 27.8018 124.001C27.9262 123.623 28.155 123.286 28.4618 123.032C28.6152 122.906 28.7983 122.822 28.9934 122.788C29.1886 122.753 29.3894 122.769 29.5765 122.834C29.7385 122.912 29.8814 123.025 29.9954 123.164C30.1094 123.303 30.1917 123.465 30.2365 123.639C30.317 123.997 30.3334 124.366 30.2848 124.73C30.1319 126.468 29.6047 128.505 28.6268 129.285" fill="#E0E0E0"/>
<path d="M53.5373 123.953C53.5564 124.057 53.5658 124.162 53.5655 124.267C53.5655 124.496 53.5655 124.794 53.5977 125.168C53.6299 125.543 53.6218 126.042 53.5977 126.601C53.5735 127.161 53.5977 127.808 53.5655 128.493C53.5252 129.897 53.4045 131.567 53.2033 133.414C53.0021 135.262 52.6801 137.278 52.2455 139.378C51.8109 141.479 51.2676 143.451 50.7243 145.23C50.181 147.009 49.6055 148.578 49.0783 149.878C48.8288 150.534 48.5673 151.113 48.3499 151.628C48.1326 152.144 47.9475 152.578 47.7584 152.928C47.5692 153.278 47.4646 153.536 47.3559 153.733C47.3126 153.828 47.2628 153.919 47.207 154.007C47.2315 153.905 47.268 153.806 47.3157 153.713C47.4042 153.5 47.5209 153.226 47.6698 152.88C47.8187 152.534 48.0159 152.075 48.2212 151.564C48.4264 151.053 48.6799 150.465 48.9174 149.805C49.4244 148.502 49.9677 146.924 50.5271 145.153C51.0865 143.383 51.5775 141.411 52.0201 139.318C52.4628 137.225 52.7687 135.213 52.994 133.378C53.2194 131.543 53.3441 129.877 53.3965 128.476C53.4407 127.776 53.4448 127.144 53.4649 126.585C53.485 126.026 53.489 125.551 53.4649 125.156C53.4407 124.762 53.4649 124.484 53.4649 124.255C53.4783 124.152 53.5026 124.051 53.5373 123.953Z" fill="#EBEBEB"/>
<path d="M52.9852 134.163C52.9615 132.949 52.5162 131.781 51.7256 130.859C51.6105 130.688 51.4553 130.548 51.2736 130.452C51.0919 130.355 50.8892 130.304 50.6833 130.304C50.14 130.384 49.8784 131.032 49.8784 131.579C49.8527 132.509 50.1611 133.417 50.7477 134.139C51.2509 134.832 52.0072 135.299 52.8524 135.439" fill="#EBEBEB"/>
<path d="M51.8023 140.779C51.8667 139.354 51.3998 137.157 50.595 135.998C50.4722 135.807 50.3121 135.643 50.1241 135.515C50.0298 135.453 49.9219 135.416 49.8097 135.405C49.6975 135.394 49.5844 135.412 49.4802 135.455C49.3496 135.549 49.2445 135.675 49.1743 135.821C49.1041 135.966 49.0709 136.126 49.0778 136.288C48.9965 137.317 49.2038 138.348 49.6766 139.266C50.1494 140.184 50.8688 140.952 51.754 141.483" fill="#EBEBEB"/>
<path d="M50.2414 146.457C50.0969 145.031 49.5761 143.668 48.7322 142.509C48.6481 142.365 48.5361 142.239 48.4028 142.138C48.2694 142.037 48.1174 141.964 47.9555 141.922C47.4525 141.857 47.0541 142.373 46.9414 142.868C46.716 143.886 47.2231 144.92 47.8066 145.781C48.3685 146.505 49.0218 147.153 49.7504 147.709" fill="#EBEBEB"/>
<path d="M48.8405 150.449C48.6203 149.326 48.1544 148.265 47.4763 147.343C47.3325 147.14 47.1438 146.973 46.9249 146.856C46.8151 146.797 46.6914 146.77 46.5672 146.777C46.443 146.784 46.3232 146.825 46.2207 146.896C45.9108 147.141 45.9792 147.628 46.112 148.007C46.532 149.293 47.351 150.412 48.4502 151.202" fill="#EBEBEB"/>
<path d="M49.4647 148.844C50.7384 148.008 52.0854 147.29 53.489 146.699C53.591 146.638 53.7061 146.603 53.8246 146.597C53.9431 146.59 54.0613 146.613 54.1691 146.662C54.241 146.721 54.2939 146.8 54.3211 146.889C54.3483 146.978 54.3486 147.073 54.3221 147.162C54.2654 147.337 54.1706 147.498 54.0444 147.632C53.4238 148.328 52.6543 148.875 51.7931 149.233C50.932 149.59 50.0013 149.749 49.0703 149.697" fill="#EBEBEB"/>
<path d="M51.0255 143.568L54.3456 141.403C54.6491 141.178 54.9916 141.012 55.3557 140.912C55.5387 140.865 55.7311 140.869 55.9121 140.923C56.093 140.978 56.2555 141.081 56.3819 141.222C56.4854 141.38 56.5425 141.564 56.5468 141.753C56.551 141.943 56.5023 142.129 56.406 142.292C56.2084 142.612 55.945 142.886 55.6334 143.097C54.9411 143.668 54.1518 144.109 53.3033 144.401C52.4461 144.662 51.6935 144.775 50.8887 144.401" fill="#EBEBEB"/>
<path d="M52.5602 137.559C53.4735 136.309 54.7007 135.322 56.1177 134.698C56.3469 134.578 56.6039 134.521 56.8623 134.533C57.1125 134.591 57.3347 134.734 57.4904 134.939C57.6462 135.143 57.7258 135.395 57.7154 135.652C57.7084 135.941 57.6406 136.226 57.5165 136.487C57.3924 136.748 57.2147 136.981 56.995 137.169C56.5542 137.543 56.0442 137.828 55.494 138.006C54.4904 138.366 53.4367 138.567 52.3711 138.602" fill="#EBEBEB"/>
<path d="M53.2641 131.99C54.0328 130.38 55.3608 129.241 56.8176 128.191C57.1235 127.969 57.5219 127.76 57.8599 127.925C57.9699 127.985 58.0628 128.072 58.1297 128.177C58.1966 128.283 58.2354 128.404 58.2422 128.529C58.2504 128.771 58.2093 129.012 58.1215 129.237C57.7524 130.25 57.0935 131.131 56.2269 131.771C55.3602 132.412 54.3242 132.783 53.248 132.839" fill="#EBEBEB"/>
<path d="M53.4453 129.092C53.8296 128.258 54.1368 127.391 54.3629 126.501C54.5839 125.604 54.5491 124.662 54.2623 123.784C54.1401 123.406 53.9142 123.07 53.6103 122.814C53.4579 122.689 53.2753 122.605 53.0805 122.571C52.8858 122.537 52.6856 122.554 52.4996 122.621C52.3358 122.697 52.1911 122.809 52.0761 122.948C51.9612 123.087 51.879 123.251 51.8356 123.426C51.7575 123.784 51.7412 124.153 51.7873 124.517C51.9402 126.255 52.4674 128.291 53.4453 129.076" fill="#EBEBEB"/>
<path d="M24.3008 154.019V158.208C24.3008 158.425 24.3435 158.639 24.4265 158.839C24.5094 159.039 24.631 159.221 24.7843 159.374C24.9376 159.527 25.1195 159.648 25.3196 159.73C25.5198 159.813 25.7343 159.855 25.9508 159.854H54.5919C55.0285 159.854 55.4471 159.681 55.7558 159.372C56.0645 159.064 56.2379 158.645 56.2379 158.208V154.019H24.3008Z" fill="#EBEBEB"/>
<path d="M26.7832 159.854L27.0206 161.186L53.4484 163.07L54.1205 159.854H26.7832Z" fill="#E0E0E0"/>
<path d="M31.536 58.135L25.4995 55.656C25.4995 55.656 23.4149 60.7226 18.1149 58.6461C17.0854 58.2666 16.2001 57.5752 15.5825 56.6683C14.9649 55.7615 14.646 54.6844 14.6701 53.5875C14.6758 52.6658 14.8998 51.7586 15.3237 50.9402C15.7476 50.1218 16.3593 49.4155 17.1088 48.879C18.8232 47.6113 21.765 46.8306 25.5358 49.2211L31.0612 35.7879L25.0931 33.333L21.8173 41.3012C21.8173 41.3012 12.5613 40.0255 8.77441 49.2452C5.15251 58.0666 12.5251 63.4954 16.642 65.1896C19.2377 66.2521 27.2743 68.8276 31.536 58.135Z" fill="#F5F5F5"/>
<path d="M28.5042 24.8504L26.1797 30.5042L32.2354 32.994L34.5599 27.3402L28.5042 24.8504Z" fill="#F5F5F5"/>
<path d="M29.4922 57.2981L23.4557 54.8191C23.4557 54.8191 21.3711 59.8817 16.0711 57.8092C15.0419 57.4292 14.1569 56.7377 13.5394 55.8309C12.922 54.9242 12.6027 53.8474 12.6262 52.7506C12.6321 51.8285 12.8566 50.921 13.2812 50.1025C13.7059 49.284 14.3186 48.5779 15.069 48.0421C16.7834 46.7744 19.6567 46.1627 23.4275 48.5532L29.0214 34.9509L23.0573 32.4961L19.7815 40.4643C19.7815 40.4643 10.5255 39.1886 6.73058 48.3962C3.10868 57.2176 10.1754 62.5297 13.572 63.91C16.1515 64.9765 25.2425 67.9746 29.4922 57.2981Z" fill="#E0E0E0"/>
<path d="M26.4613 23.9998L24.1367 29.6536L30.1924 32.1434L32.517 26.4896L26.4613 23.9998Z" fill="#E0E0E0"/>
<path d="M174.29 161.38L170.552 161.689C170.552 161.689 170.813 164.828 167.553 165.158C166.926 165.232 166.291 165.109 165.737 164.807C165.182 164.504 164.736 164.036 164.459 163.468C164.219 162.996 164.094 162.473 164.094 161.943C164.094 161.413 164.219 160.89 164.459 160.418C165.006 159.319 166.31 158.148 168.865 158.381L168.177 150.051L164.475 150.361L164.877 155.299C164.877 155.299 159.803 157.073 160.277 162.788C160.732 168.257 165.936 169.106 168.487 168.893C170.117 168.772 174.91 167.967 174.29 161.38Z" fill="#F5F5F5"/>
<path d="M167.931 145.812L164.164 146.113L164.445 149.631L168.212 149.329L167.931 145.812Z" fill="#F5F5F5"/>
<path d="M173.024 161.476L169.282 161.79C169.282 161.79 169.543 164.929 166.283 165.255C165.657 165.331 165.022 165.209 164.468 164.907C163.914 164.604 163.468 164.137 163.193 163.569C162.953 163.096 162.828 162.574 162.828 162.043C162.828 161.513 162.953 160.991 163.193 160.518C163.74 159.42 165.052 158.353 167.62 158.587L166.919 150.135L163.221 150.445L163.623 155.383C163.623 155.383 158.549 157.154 159.024 162.873C159.478 168.342 164.489 169.207 166.585 169.03C168.203 168.913 173.644 168.072 173.024 161.476Z" fill="#E0E0E0"/>
<path d="M166.498 144.902L162.744 145.214L163.035 148.719L166.789 148.407L166.498 144.902Z" fill="#E0E0E0"/>
<path d="M152.565 25.7109L159.973 22.7852C159.973 22.7852 157.515 16.5636 163.937 13.8995C165.166 13.3635 166.531 13.2243 167.843 13.5013C169.154 13.7783 170.347 14.4577 171.254 15.4448C172.027 16.2596 172.598 17.2457 172.918 18.3227C173.238 19.3997 173.3 20.5371 173.097 21.6423C172.658 24.2098 170.73 27.3891 165.39 28.4837L171.906 44.9834L179.234 42.0899L175.35 32.2987C175.35 32.2987 184.606 25.5862 180.123 14.2617C175.841 3.42817 164.75 4.89705 159.692 6.89715C156.512 8.15274 147.261 12.6922 152.565 25.7109Z" fill="#F5F5F5"/>
<path d="M180.682 45.4945L173.244 48.4316L175.986 55.3749L183.424 52.4378L180.682 45.4945Z" fill="#F5F5F5"/>
<path d="M149.595 26.8781L157.007 23.9524C157.007 23.9524 154.549 17.7308 160.971 15.0667C162.199 14.5293 163.563 14.3881 164.875 14.663C166.186 14.9378 167.379 15.6149 168.288 16.6C169.062 17.4166 169.633 18.4047 169.953 19.4838C170.274 20.5629 170.335 21.7025 170.131 22.8095C169.716 25.3771 167.704 28.347 162.352 29.4416L168.952 46.1466L176.276 43.2531L172.413 33.466C172.413 33.466 181.64 26.7534 177.165 15.445C172.887 4.57929 162.179 5.91537 158.018 7.5573C154.826 8.81289 144.307 13.8594 149.595 26.8781Z" fill="#E0E0E0"/>
<path d="M177.726 46.659L170.289 49.5962L173.031 56.5395L180.468 53.6023L177.726 46.659Z" fill="#E0E0E0"/>
<path d="M92.4717 17.0354C93.1534 9.35099 87.4641 2.56777 79.7642 1.88464C72.0644 1.20151 65.2697 6.87715 64.5879 14.5615C63.9062 22.2459 69.5955 29.0291 77.2954 29.7123C84.9953 30.3954 91.7899 24.7198 92.4717 17.0354Z" fill="white"/>
<path d="M87.5199 26.516L87.6929 26.3711L88.1839 25.9083L88.5461 25.5743C88.6748 25.4495 88.8036 25.2966 88.9485 25.1356L89.4113 24.6205C89.5801 24.4194 89.7386 24.2099 89.8862 23.9927C90.6936 22.9037 91.3288 21.6971 91.7696 20.4151C92.3717 18.72 92.6382 16.924 92.5543 15.1271C92.5543 14.8776 92.5261 14.6241 92.5141 14.3705C92.502 14.117 92.4376 13.8635 92.4014 13.6019C92.3652 13.3403 92.337 13.0827 92.2686 12.8252C92.2002 12.5676 92.1358 12.306 92.0714 12.0203L91.842 11.2758V11.2315C91.7494 10.97 91.6528 10.7044 91.5603 10.4267C91.4677 10.149 91.3188 9.91157 91.1981 9.64999C91.081 9.3826 90.9466 9.12315 90.7957 8.87329C90.5019 8.35305 90.1739 7.85293 89.8137 7.37624C89.6286 7.1388 89.4556 6.88527 89.2543 6.65186L88.3891 5.71419L88.2966 5.62565L87.9424 5.31176C87.701 5.10651 87.4675 4.88518 87.218 4.68396C86.7051 4.28791 86.1674 3.92499 85.6083 3.59739C85.032 3.26099 84.4337 2.96386 83.8175 2.70801C83.4995 2.58326 83.1736 2.48667 82.8516 2.36997C82.6907 2.32168 82.5297 2.25326 82.3647 2.21302L81.8335 2.16473C81.2912 2.02645 80.7399 1.92693 80.1835 1.86693L79.3424 1.76229L78.4369 1.72607H78.1713L77.6321 1.75424L77.0928 1.78644L76.5576 1.8629L76.0183 1.94741L75.7487 1.98766L75.4831 2.05205L73.5071 2.65167L73.3703 2.69996C71.9733 3.26602 70.6695 4.03932 69.5029 4.99383C68.3574 5.9754 67.3669 7.1246 66.5651 8.40244L66.5008 8.51512C66.2432 9.02621 65.8206 9.85925 65.5591 10.3703L65.4504 10.6199L65.3619 10.8774L65.1848 11.4207L65.0118 11.9358L64.891 12.463L64.7663 12.9862L64.7059 13.2477L64.5852 14.1452L64.5087 14.9863C64.4684 15.5436 64.4684 16.1031 64.5087 16.6604L64.5369 17.1755C64.5369 17.3485 64.5852 17.5176 64.6053 17.6866C64.6616 18.0246 64.7019 18.3627 64.7703 18.6927C64.9116 19.3461 65.0986 19.9889 65.3297 20.6163C65.56 21.2296 65.8288 21.8277 66.1345 22.4071C66.2875 22.6888 66.4645 22.9544 66.6255 23.212L66.871 23.6144L66.9434 23.7191L67.7121 24.7332C67.9093 24.9746 68.1145 25.1879 68.3318 25.4133C68.7368 25.8452 69.1711 26.2486 69.6317 26.6206C69.849 26.821 70.0774 27.0091 70.3158 27.184C70.5533 27.345 70.7786 27.5221 71.0201 27.671L71.7525 28.0935L72.4769 28.4637L73.2174 28.7937C73.4606 28.8967 73.7091 28.9867 73.9619 29.0634C74.2074 29.1439 74.4528 29.2324 74.6943 29.3048L75.4348 29.4779C77.1896 29.8738 79.0045 29.9257 80.7791 29.6308C82.1184 29.4203 83.4174 29.005 84.6304 28.3994C84.8702 28.293 85.104 28.1734 85.3306 28.0412L85.9182 27.679C86.0993 27.5663 86.2723 27.4657 86.4212 27.3651L86.8236 27.0633L87.3468 26.6608C87.4675 26.5683 87.5239 26.516 87.5239 26.516L87.3388 26.6488L86.8035 27.0512C86.6828 27.1357 86.554 27.2363 86.4011 27.341C86.2482 27.4456 86.0791 27.5381 85.8981 27.6508L85.3065 28.005C85.0779 28.1337 84.8428 28.2505 84.6022 28.3551C83.3943 28.937 82.1054 29.3332 80.7791 29.5302C79.0161 29.8122 77.2153 29.752 75.475 29.3531L74.7426 29.1922C74.4971 29.1197 74.2597 29.0312 74.0142 28.9507C73.7687 28.8702 73.5152 28.7978 73.2777 28.6811L72.5453 28.3511L71.8531 27.9969H71.8209L71.1006 27.5945C70.8591 27.4456 70.6378 27.2685 70.4044 27.1075C70.1645 26.9474 69.9347 26.7727 69.7162 26.5844C69.2606 26.2124 68.8317 25.809 68.4324 25.3771C68.2312 25.1557 68.03 24.9425 67.8207 24.705L67.0601 23.6949C67.0351 23.663 67.0122 23.6294 66.9917 23.5943L66.7462 23.1919C66.5893 22.9222 66.4122 22.6607 66.2633 22.387C65.9675 21.8142 65.7094 21.2227 65.4907 20.6163C65.2579 19.9799 65.0709 19.3276 64.9313 18.6645C64.8629 18.3385 64.8266 18.0045 64.7703 17.6705C64.7502 17.5015 64.7099 17.3365 64.7019 17.1674L64.6818 16.6523C64.6376 15.9622 64.6376 15.2699 64.6818 14.5798C64.7301 14.2337 64.7783 13.8876 64.8226 13.5375L64.8588 13.2759L64.9192 13.0184L65.0399 12.5032L65.1647 11.9801L65.3337 11.473L65.5068 10.9619L65.5953 10.7084L65.7039 10.4589L66.6497 8.60366L66.71 8.50305C68.276 5.94245 70.636 3.96395 73.4307 2.86898L73.5594 2.82069L75.5193 2.22912L75.7809 2.1607L76.0465 2.12046L76.5817 2.03997L77.1089 1.95949L77.6441 1.93132L78.1754 1.90315H78.441H78.7025L79.7529 1.94339C80.4401 2.01427 81.1217 2.13124 81.7932 2.29351L82.2922 2.41021C82.4572 2.44643 82.6142 2.51484 82.7752 2.56314C83.0931 2.67582 83.4191 2.7724 83.7289 2.89313C84.3398 3.14629 84.9328 3.44074 85.5037 3.77446C86.0637 4.09463 86.6015 4.45227 87.1134 4.84493C87.3629 5.04212 87.5923 5.24737 87.8297 5.46468L88.1839 5.77455L88.2724 5.85906L89.1296 6.78466C89.3308 7.01405 89.5039 7.26758 89.689 7.50099C90.0459 7.98104 90.3712 8.4838 90.6629 9.00609C90.8106 9.25497 90.9449 9.51155 91.0653 9.77474C91.182 10.0323 91.3188 10.2818 91.4235 10.5434L91.7052 11.3281C91.7535 11.4569 91.8017 11.5857 91.846 11.7306V11.7668C91.9426 12.1491 92.0392 12.5274 92.1358 12.8976C92.2082 13.1552 92.2243 13.4168 92.2726 13.6703C92.3209 13.9238 92.3531 14.1814 92.3853 14.4309C92.4175 14.6804 92.4134 14.9339 92.4255 15.1794C92.5168 16.9622 92.2612 18.7458 91.673 20.4312C91.2419 21.7079 90.6191 22.9115 89.8258 24.0008C89.6568 24.2221 89.528 24.4515 89.359 24.6326L88.9083 25.1034C88.7674 25.2644 88.6426 25.4173 88.5058 25.5461L88.1517 25.8841L87.6688 26.3389C87.5722 26.4596 87.5199 26.516 87.5199 26.516Z" fill="#E0E0E0"/>
<path d="M90.4606 34.2266C90.2276 34.5357 89.9198 34.7804 89.5662 34.9378C89.2126 35.0951 88.8248 35.1599 88.4392 35.1261C88.0537 35.0923 87.6831 34.961 87.3622 34.7445C87.0414 34.528 86.7809 34.2335 86.6053 33.8886C86.4119 33.5108 86.329 33.0861 86.366 32.6633C86.403 32.2405 86.5585 31.8366 86.8145 31.4981C87.1827 31.0325 87.7181 30.729 88.3068 30.6522C88.8954 30.5754 89.4908 30.7315 89.9661 31.0872C90.4413 31.4428 90.759 31.97 90.8513 32.5564C90.9437 33.1428 90.8035 33.7421 90.4606 34.2266Z" fill="white"/>
<path d="M90.0973 34.6049C90.0973 34.6049 90.1416 34.5808 90.2141 34.5204C90.3221 34.43 90.4194 34.3273 90.5038 34.2145C90.7699 33.8587 90.9278 33.4337 90.9585 32.9905C90.9892 32.5472 90.8914 32.1045 90.6769 31.7154C90.4723 31.3486 90.1736 31.043 89.8116 30.8301C89.4114 30.5922 88.9479 30.4826 88.4836 30.5162C87.9828 30.5437 87.5044 30.7326 87.1199 31.0547C86.7354 31.3768 86.4656 31.8147 86.3507 32.303C86.2395 32.7552 86.2662 33.2303 86.4272 33.6672C86.5738 34.0605 86.8224 34.4078 87.1475 34.6733C87.4309 34.9025 87.7647 35.0611 88.1214 35.1361C88.6347 35.2479 89.1709 35.1783 89.6386 34.9389C89.7653 34.8772 89.883 34.7987 89.9887 34.7055C90.0652 34.6451 90.1014 34.6089 90.0973 34.6049C90.0933 34.6009 89.9323 34.7297 89.6104 34.8786C89.1514 35.0872 88.6359 35.1368 88.1455 35.0194C87.8619 34.9519 87.5945 34.8289 87.3585 34.6577C87.1225 34.4865 86.9227 34.2704 86.7705 34.0217C86.6183 33.773 86.5167 33.4967 86.4716 33.2087C86.4265 32.9206 86.4388 32.6265 86.5076 32.3432C86.6182 31.8899 86.8707 31.4838 87.2283 31.1841C87.586 30.8844 88.03 30.7067 88.4957 30.6772C88.9286 30.6469 89.3605 30.7478 89.7352 30.9669C90.0697 31.1595 90.3474 31.4372 90.54 31.7718C90.7496 32.1398 90.8506 32.5596 90.8314 32.9827C90.8121 33.4058 90.6734 33.8147 90.4314 34.1622C90.2463 34.4681 90.0813 34.5928 90.0973 34.6049Z" fill="#E0E0E0"/>
<path d="M74.2426 13.5051H76.3513C76.3502 13.2641 76.3974 13.0253 76.4904 12.8029C76.5833 12.5805 76.72 12.379 76.8923 12.2105C77.0646 12.0419 77.269 11.9097 77.4934 11.8217C77.7178 11.7337 77.9576 11.6917 78.1985 11.6982C78.5544 11.6853 78.9055 11.7838 79.2027 11.9801C79.5 12.1763 79.7285 12.4604 79.8565 12.7928C79.9675 13.0698 80.0114 13.3691 79.9849 13.6663C79.9583 13.9635 79.8619 14.2502 79.7036 14.5031C79.3454 15.0947 78.5607 15.634 77.1361 15.3845V20.1533H79.2247V17.3363C80.0832 17.085 80.8354 16.5585 81.3655 15.838C81.8956 15.1174 82.1742 14.2426 82.1584 13.3482C82.1584 10.2534 79.3857 9.53711 78.1985 9.53711C77.293 9.55723 74.2023 9.77455 74.2426 13.5051Z" fill="#E0E0E0"/>
<path d="M79.2517 21.1355H77.1309V23.1195H79.2517V21.1355Z" fill="#E0E0E0"/>
<path d="M49.9789 73.2506H52.0957C52.0945 73.0096 52.1418 72.7708 52.2348 72.5484C52.3277 72.326 52.4643 72.1245 52.6366 71.956C52.8089 71.7874 53.0134 71.6552 53.2378 71.5672C53.4621 71.4792 53.7019 71.4372 53.9429 71.4437C54.2977 71.4313 54.6475 71.5297 54.9439 71.7251C55.2402 71.9205 55.4685 72.2033 55.5969 72.5343C55.7097 72.8114 55.7551 73.1113 55.7292 73.4094C55.7033 73.7075 55.6069 73.9951 55.448 74.2486C55.0898 74.8402 54.301 75.3795 52.8764 75.1259V79.8948H54.9691V77.1019C55.8276 76.8506 56.5798 76.3242 57.1099 75.6036C57.6399 74.883 57.9185 74.0082 57.9028 73.1138C57.9028 70.0191 55.1301 69.2987 53.9429 69.2987C53.0334 69.2987 49.9387 69.52 49.9789 73.2506Z" fill="#E0E0E0"/>
<path d="M54.9939 80.8807H52.873V82.8647H54.9939V80.8807Z" fill="#E0E0E0"/>
<path d="M144.882 88.7242L142.511 87.2191C142.511 87.2191 141.244 89.2313 139.151 87.9314C138.741 87.6927 138.416 87.3313 138.221 86.8982C138.027 86.465 137.974 85.9819 138.068 85.5168C138.14 85.126 138.303 84.7577 138.544 84.4422C138.786 84.1267 139.098 83.873 139.457 83.7018C140.282 83.2994 141.55 83.2511 142.97 84.5469L146.367 79.1946L144.02 77.7015L142.028 80.8405C142.028 80.8405 138.197 79.601 135.891 83.2269C133.686 86.6999 136.294 89.4808 137.622 90.3299C138.64 90.9859 142.27 92.9417 144.882 88.7242Z" fill="#E0E0E0"/>
<path d="M146.11 74.3723L144.697 76.5974L147.079 78.1098L148.492 75.8847L146.11 74.3723Z" fill="#E0E0E0"/>
<path d="M50.8802 14.3907L48.9123 15.1674C49.003 15.3907 49.0477 15.6301 49.0437 15.8711C49.0398 16.1121 48.9871 16.3499 48.8891 16.5701C48.791 16.7903 48.6495 16.9884 48.473 17.1526C48.2965 17.3168 48.0886 17.4437 47.8619 17.5257C47.5364 17.6697 47.1741 17.7083 46.8255 17.6362C46.477 17.564 46.1597 17.3846 45.9182 17.1232C45.7124 16.9071 45.561 16.6451 45.4763 16.3589C45.3916 16.0728 45.3762 15.7706 45.4312 15.4773C45.5479 14.7931 46.0792 14.0044 47.4997 13.7146L45.7451 9.28784L43.8014 10.0565L44.8276 12.628C44.1215 13.1777 43.6154 13.944 43.3871 14.8091C43.1588 15.6743 43.221 16.5905 43.5639 17.417C44.6988 20.2944 47.544 19.9443 48.6467 19.5096C49.4918 19.1877 52.2887 17.8597 50.8802 14.3907Z" fill="#E0E0E0"/>
<path d="M44.7009 6.38693L42.7285 7.17163L43.4626 9.01675L45.435 8.23204L44.7009 6.38693Z" fill="#E0E0E0"/>
<path d="M185.882 179.823C185.882 179.879 146.041 179.927 96.8793 179.927C47.7181 179.927 7.86914 179.879 7.86914 179.823C7.86914 179.766 47.71 179.718 96.8793 179.718C146.049 179.718 185.882 179.762 185.882 179.823Z" fill="#263238"/>
<path d="M157.241 108.874L154.146 107.49L172.574 84.2853L175.58 85.1183C176.029 85.2421 176.43 85.4988 176.731 85.8548L179.725 89.3801C179.932 89.6237 180.033 89.9392 180.007 90.2575C179.982 90.5758 179.831 90.8709 179.588 91.0784L158.903 108.637C158.677 108.829 158.401 108.954 158.107 108.996C157.812 109.038 157.512 108.996 157.241 108.874Z" fill="#455A64"/>
<path d="M178.139 107.24L174.791 110.057C174.608 110.213 174.387 110.318 174.15 110.361C173.913 110.403 173.669 110.382 173.443 110.299L170.924 109.401C170.61 109.284 170.349 109.057 170.191 108.761L156.484 82.921L159.575 83.8184C159.974 83.9348 160.329 84.1657 160.597 84.4825L178.284 105.32C178.519 105.595 178.635 105.95 178.608 106.31C178.581 106.67 178.412 107.004 178.139 107.24Z" fill="#455A64"/>
<g opacity="0.3">
<path d="M157.241 108.874L154.146 107.49L172.574 84.2854L175.58 85.1184C176.029 85.2422 176.43 85.499 176.731 85.8549L179.725 89.3802C179.932 89.6238 180.033 89.9393 180.007 90.2576C179.982 90.5759 179.831 90.871 179.588 91.0785L158.903 108.637C158.677 108.83 158.401 108.954 158.107 108.996C157.812 109.038 157.512 108.996 157.241 108.874Z" fill="black"/>
<path d="M178.139 107.24L174.791 110.057C174.608 110.213 174.387 110.318 174.15 110.361C173.913 110.403 173.669 110.382 173.443 110.299L170.924 109.401C170.61 109.284 170.349 109.057 170.191 108.761L156.484 82.9211L159.575 83.8186C159.974 83.9349 160.329 84.1658 160.597 84.4826L178.284 105.321C178.519 105.595 178.635 105.951 178.608 106.31C178.581 106.67 178.412 107.004 178.139 107.24Z" fill="black"/>
</g>
<path d="M176.138 88.2268L173.096 84.643C172.767 84.2549 172.185 84.2073 171.797 84.5366L150.841 102.322C150.453 102.651 150.405 103.233 150.734 103.621L153.776 107.204C154.105 107.593 154.687 107.64 155.075 107.311L176.031 89.5257C176.419 89.1964 176.467 88.6148 176.138 88.2268Z" fill="#455A64"/>
<path d="M152.173 86.2817L155.855 83.157C156.018 83.0189 156.229 82.951 156.442 82.9685C156.655 82.9859 156.852 83.0871 156.99 83.2498L174.863 104.311C175.022 104.497 175.099 104.739 175.079 104.982C175.059 105.226 174.943 105.452 174.757 105.61L171.164 108.659C170.978 108.817 170.736 108.895 170.493 108.875C170.249 108.855 170.023 108.739 169.865 108.553L152.08 87.596C151.922 87.4097 151.844 87.1681 151.864 86.9245C151.884 86.6809 152 86.4552 152.186 86.2971L152.173 86.2817Z" fill="#455A64"/>
<path d="M158.046 97.2395C157.078 98.2055 156.061 99.1216 155 99.9841C153.983 100.9 152.921 101.764 151.816 102.572C152.785 101.605 153.802 100.687 154.863 99.8231C155.879 98.9084 156.942 98.0461 158.046 97.2395Z" fill="white"/>
<path d="M171.926 85.3718C171.966 85.4161 170.429 86.7763 168.501 88.4102C166.574 90.0441 164.98 91.3279 164.944 91.2836C164.908 91.2393 166.437 89.8831 168.369 88.2492C170.3 86.6154 171.89 85.3276 171.926 85.3718Z" fill="white"/>
<path d="M158.734 93.9195C158.69 93.9557 157.503 92.511 156.082 90.7C154.662 88.8891 153.547 87.384 153.591 87.3478C154.531 88.375 155.417 89.4495 156.247 90.5672C157.134 91.6408 157.964 92.7598 158.734 93.9195Z" fill="white"/>
<path d="M169.342 105.992C168.377 105.104 167.461 104.163 166.597 103.175C165.681 102.235 164.817 101.245 164.01 100.209C164.972 101.101 165.888 102.042 166.754 103.027C167.669 103.969 168.532 104.959 169.342 105.992Z" fill="white"/>
<path d="M11.1321 104.499L10.4922 102.117L27.7445 105.554L42.9847 84.124L44.8439 87.5849C44.9865 87.8481 45.0613 88.1428 45.0613 88.4421C45.0613 88.7415 44.9865 89.0361 44.8439 89.2993L31.6119 113.522C31.3764 113.952 31.0571 114.331 30.673 114.636C30.2888 114.941 29.8475 115.166 29.375 115.298C28.9025 115.43 28.4084 115.467 27.9217 115.405C27.4351 115.343 26.9657 115.184 26.5412 114.938L13.1885 107.2C12.6849 106.907 12.2441 106.518 11.8912 106.054C11.5383 105.591 11.2803 105.062 11.1321 104.499Z" fill="#3E7BFA"/>
<g opacity="0.3">
<path d="M11.1321 104.499L10.4922 102.117L27.7445 105.554L42.9847 84.1243L44.8439 87.5852C44.9865 87.8484 45.0613 88.143 45.0613 88.4424C45.0613 88.7417 44.9865 89.0364 44.8439 89.2996L31.6119 113.522C31.3764 113.952 31.0571 114.331 30.673 114.636C30.2888 114.941 29.8475 115.167 29.375 115.299C28.9025 115.431 28.4084 115.467 27.9217 115.405C27.4351 115.343 26.9657 115.185 26.5412 114.939L13.1885 107.2C12.6849 106.907 12.2441 106.518 11.8912 106.055C11.5383 105.591 11.2803 105.063 11.1321 104.499Z" fill="black"/>
</g>
<path d="M10.5409 100.982L13.0279 96.5794C13.1989 96.2755 13.4798 96.0486 13.8128 95.9454C14.1459 95.8421 14.5058 95.8702 14.8188 96.0241L24.7991 100.914C25.1183 101.069 25.4853 101.095 25.823 100.985C26.1607 100.875 26.4428 100.639 26.6101 100.326L36.5099 81.7498C36.5977 81.5849 36.7182 81.4398 36.8642 81.3233C37.0102 81.2068 37.1784 81.1214 37.3586 81.0724C37.5389 81.0234 37.7272 81.0118 37.9121 81.0383C38.0969 81.0648 38.2744 81.1289 38.4335 81.2266L42.4579 83.7016C42.7565 83.8848 42.9734 84.1756 43.064 84.514C43.1546 84.8524 43.112 85.2127 42.9448 85.5206L30.0026 109.188C29.5844 109.953 28.8815 110.523 28.0461 110.774C27.2108 111.025 26.3102 110.936 25.5396 110.528L11.0882 102.882C10.9246 102.796 10.7801 102.678 10.6634 102.535C10.5466 102.391 10.4601 102.226 10.409 102.049C10.3578 101.871 10.3431 101.685 10.3658 101.502C10.3885 101.319 10.448 101.142 10.5409 100.982Z" fill="#3E7BFA"/>
<path d="M24.1188 102.041C23.9342 101.986 23.7551 101.915 23.5836 101.827L22.163 101.183C20.9557 100.628 19.3218 99.8514 17.5109 98.9821L16.1869 98.3463L15.5591 98.0444C15.374 97.9424 15.1699 97.8794 14.9594 97.8593C14.766 97.8425 14.5712 97.8648 14.3865 97.925C14.2019 97.9851 14.0313 98.0819 13.8849 98.2094C13.6421 98.4606 13.4446 98.752 13.3014 99.0706L12.5247 100.427C12.4365 100.597 12.3327 100.759 12.2148 100.91C12.2772 100.728 12.3567 100.553 12.4523 100.387L13.1686 98.9982L13.4101 98.5394C13.5016 98.3655 13.6228 98.2088 13.7682 98.0766C13.9322 97.932 14.1236 97.8218 14.331 97.7527C14.5384 97.6836 14.7576 97.6569 14.9755 97.6742C15.2107 97.6933 15.4394 97.7604 15.6476 97.8714L16.2754 98.1692L17.5954 98.793C19.4063 99.6622 21.0442 100.463 22.2234 101.051L23.6319 101.755C23.8016 101.837 23.9644 101.932 24.1188 102.041Z" fill="white"/>
<path d="M27.7763 101.24C27.724 101.211 29.8207 97.0664 32.4607 91.9836C35.1006 86.9009 37.2899 82.7961 37.3301 82.8242C37.3704 82.8524 35.2858 86.9935 32.6458 92.0802C30.0058 97.167 27.8246 101.264 27.7763 101.24Z" fill="white"/>
<path d="M69.3483 45.8754C70.2682 38.4689 65.0098 31.719 57.6033 30.7991C50.1968 29.8792 43.4469 35.1377 42.527 42.5442C41.6071 49.9507 46.8655 56.7006 54.272 57.6205C61.6785 58.5404 68.4284 53.2819 69.3483 45.8754Z" fill="white"/>
<path d="M69.4489 44.203C69.4489 44.203 69.4489 44.1306 69.4489 43.9857C69.4489 43.8408 69.4488 43.6195 69.4247 43.3418L69.4046 42.8669C69.4046 42.6939 69.3563 42.5047 69.3281 42.2995C69.3 42.0942 69.2637 41.8729 69.2315 41.6395C69.1993 41.4061 69.1189 41.1606 69.0625 40.899C68.7579 39.6228 68.2584 38.4011 67.5816 37.2771C66.6986 35.779 65.5327 34.4668 64.1488 33.4138L63.5653 32.9751C63.36 32.8383 63.1427 32.7135 62.9294 32.5727C62.7161 32.4318 62.5029 32.295 62.2694 32.1702L61.5652 31.8282L61.207 31.6591L60.8287 31.5223L60.0681 31.2406C59.8065 31.1521 59.5369 31.0957 59.2633 31.0233C58.9984 30.9466 58.7297 30.8834 58.4584 30.8342C57.8908 30.728 57.3167 30.6608 56.74 30.6329C56.4462 30.6329 56.1525 30.5927 55.8547 30.5967L54.9572 30.641C54.8043 30.641 54.6514 30.641 54.5025 30.6692L54.0477 30.7376C53.7459 30.7859 53.4401 30.8221 53.1342 30.8865C52.5196 31.022 51.9146 31.1981 51.3233 31.4137C50.7142 31.6306 50.1212 31.8902 49.5485 32.1904C49.2628 32.3433 48.9851 32.5244 48.6994 32.6934C48.5626 32.7819 48.4137 32.8584 48.297 32.959L47.8945 33.2568C47.3532 33.6592 46.8383 34.0961 46.3532 34.5647L45.661 35.3253L45.488 35.5185L45.331 35.7237L45.0211 36.1262L44.7072 36.5286L44.4336 36.9753L44.1599 37.422L44.0231 37.6514L43.9064 37.8888C43.7535 38.2067 43.5965 38.5247 43.4436 38.8466C43.2907 39.1686 43.1981 39.5146 43.0734 39.8527C42.1396 42.6364 42.1396 45.6488 43.0734 48.4326C43.1981 48.7706 43.3189 49.1046 43.4436 49.4387L43.9024 50.4005L44.0191 50.6379L44.1559 50.8633L44.4296 51.314L44.7072 51.7607L45.0171 52.1631L45.331 52.5656L45.488 52.7748L45.661 52.964L46.3532 53.7246C46.8373 54.1944 47.3522 54.6313 47.8945 55.0325L48.297 55.3343C48.4298 55.4349 48.5787 55.5114 48.6994 55.5999C48.9851 55.7649 49.2588 55.946 49.5485 56.1029C50.1212 56.4031 50.7142 56.6627 51.3233 56.8796C51.9146 57.0952 52.5196 57.2713 53.1342 57.4068C53.4401 57.4712 53.7459 57.5034 54.0477 57.5557L54.5025 57.6241C54.6554 57.6443 54.8043 57.6241 54.9572 57.6523L55.8547 57.6966C56.1525 57.6966 56.4503 57.6724 56.74 57.6604C57.3167 57.6325 57.8908 57.5652 58.4584 57.4591C58.7298 57.4103 58.9985 57.3471 59.2633 57.27C59.5329 57.1935 59.8025 57.1372 60.0681 57.0527L60.8287 56.771L61.207 56.6342L61.5652 56.4611L62.2694 56.1231C62.5029 56.0144 62.7121 55.8615 62.9294 55.7206C63.1467 55.5798 63.36 55.4631 63.5653 55.3182L64.1528 54.8796C65.5346 53.8253 66.6989 52.5134 67.5816 51.0162C68.2577 49.8918 68.7572 48.6703 69.0625 47.3943C69.1315 47.1505 69.1879 46.9034 69.2315 46.6538C69.2637 46.4164 69.3 46.195 69.3281 45.9898C69.3563 45.7846 69.3885 45.5874 69.4046 45.4224C69.4207 45.2574 69.4046 45.0924 69.4247 44.9515C69.4247 44.6698 69.4448 44.4565 69.4489 44.3076C69.4529 44.1587 69.4489 44.0863 69.4489 44.0863C69.4489 44.0863 69.4489 44.1627 69.4489 44.3076C69.4489 44.4525 69.4287 44.6698 69.4086 44.9475C69.4086 45.0883 69.4086 45.2453 69.3804 45.4224C69.3523 45.5994 69.3281 45.7805 69.2959 45.9858C69.2637 46.191 69.2275 46.3882 69.1913 46.6417C69.1472 46.8906 69.088 47.1365 69.0142 47.3782C68.7007 48.642 68.1973 49.851 67.5212 50.9639C66.6414 52.4839 65.4708 53.8158 64.0764 54.8836L63.4969 55.3182C63.2916 55.451 63.0743 55.5758 62.865 55.7206C62.6558 55.8655 62.4385 55.9943 62.2051 56.1029L61.5088 56.437L61.1547 56.606L60.7804 56.7428L60.0239 57.0165C59.7663 57.101 59.4967 57.1573 59.219 57.2298C58.9541 57.3054 58.6855 57.3672 58.4141 57.4149C57.8516 57.5179 57.283 57.5838 56.7118 57.6121C56.4221 57.6121 56.1323 57.6483 55.8345 57.6443L54.9452 57.596C54.7963 57.596 54.6474 57.596 54.4985 57.5678L54.0477 57.4994C53.7499 57.4511 53.4441 57.4149 53.1463 57.3545C52.5368 57.2195 51.9371 57.0434 51.3514 56.8273C50.7514 56.6105 50.1665 56.3537 49.6008 56.0587C49.3151 55.9017 49.0455 55.7247 48.7638 55.5556C48.6269 55.4671 48.478 55.3947 48.3613 55.2941L47.9589 54.9963C47.4219 54.5991 46.9124 54.1662 46.4337 53.7004L45.7656 52.9519L45.5926 52.7627L45.4397 52.5575L45.1298 52.1551L44.8199 51.7526L44.5503 51.31L44.2807 50.8633L44.1438 50.6419L44.0312 50.4045L43.5724 49.4588L43.2102 48.4607C42.2872 45.711 42.2872 42.7352 43.2102 39.9855L43.5764 38.9875C43.7293 38.6736 43.8782 38.3556 44.0312 38.0417L44.1479 37.8083L44.2807 37.583L44.5503 37.1403L44.824 36.6976L45.1298 36.2952L45.4397 35.8927L45.5926 35.6875L45.7656 35.4984L46.4498 34.7458C46.9281 34.2812 47.4363 33.8484 47.971 33.45L48.3734 33.1562C48.5022 33.0556 48.6511 32.9791 48.7758 32.8906C49.0576 32.7256 49.3272 32.5445 49.6129 32.3916C50.1786 32.0965 50.7634 31.8397 51.3635 31.6229C51.9492 31.4069 52.5488 31.2307 53.1583 31.0957C53.4561 31.0354 53.762 30.9992 54.0598 30.9509L54.5105 30.8824C54.6594 30.8623 54.8083 30.8623 54.9572 30.8503L55.8466 30.806C56.1444 30.806 56.4342 30.8301 56.7239 30.8382C57.295 30.8667 57.8637 30.9326 58.4262 31.0354C58.6979 31.0812 58.9667 31.143 59.2311 31.2205C59.4967 31.2929 59.7663 31.3493 60.0359 31.4338L60.7925 31.7074L61.1627 31.8443L61.5209 32.0133L62.2171 32.3473C62.4505 32.4519 62.6558 32.6049 62.8731 32.7256C63.0904 32.8463 63.3037 32.9791 63.5089 33.128L64.0884 33.5586C65.4638 34.6009 66.6264 35.8974 67.5131 37.3777C68.1886 38.4909 68.6919 39.6998 69.0062 40.9634C69.0791 41.2053 69.1382 41.4512 69.1832 41.6999C69.2195 41.9373 69.2557 42.1546 69.2879 42.3598C69.3201 42.5651 69.3563 42.7623 69.3724 42.9233C69.3885 43.0842 69.3925 43.2533 69.4006 43.3981C69.4207 43.6758 69.4328 43.8891 69.4408 44.038C69.4489 44.1869 69.4489 44.203 69.4489 44.203Z" fill="#263238"/>
<path d="M74.5879 52.6983C74.5879 53.1329 74.4591 53.5577 74.2176 53.919C73.9762 54.2804 73.633 54.562 73.2315 54.7283C72.83 54.8946 72.3882 54.9381 71.962 54.8533C71.5357 54.7686 71.1442 54.5593 70.8369 54.252C70.5296 53.9447 70.3204 53.5532 70.2356 53.1269C70.1508 52.7007 70.1943 52.2589 70.3606 51.8574C70.5269 51.4559 70.8086 51.1127 71.1699 50.8713C71.5312 50.6299 71.9561 50.501 72.3906 50.501C72.6793 50.5005 72.9653 50.5569 73.2321 50.6672C73.499 50.7774 73.7414 50.9392 73.9455 51.1434C74.1497 51.3475 74.3115 51.5899 74.4218 51.8568C74.532 52.1236 74.5885 52.4096 74.5879 52.6983Z" fill="white"/>
<path d="M74.5884 52.6983C74.5884 52.6983 74.5884 52.6501 74.5884 52.5575C74.5896 52.4221 74.5747 52.287 74.5441 52.1551C74.4306 51.6576 74.1457 51.216 73.7393 50.9075C73.4689 50.6867 73.1505 50.5323 72.8097 50.4568C72.4062 50.3793 71.9893 50.4113 71.6024 50.5493C71.175 50.7042 70.8046 50.9848 70.5399 51.3542C70.2526 51.7442 70.0977 52.2159 70.0977 52.7004C70.0977 53.1848 70.2526 53.6565 70.5399 54.0465C70.8046 54.4159 71.175 54.6966 71.6024 54.8514C71.9885 54.9934 72.4064 55.0255 72.8097 54.9439C73.2309 54.8603 73.6192 54.6573 73.9282 54.359C74.2372 54.0607 74.4538 53.6798 74.5522 53.2617C74.5828 53.1298 74.5977 52.9947 74.5965 52.8593C74.5965 52.7668 74.5965 52.7185 74.5965 52.7185C74.5965 52.7185 74.5965 52.9157 74.4959 53.2497C74.3885 53.6441 74.1716 54.0001 73.8703 54.2764C73.5691 54.5527 73.1958 54.7381 72.7936 54.8111C72.4183 54.877 72.0323 54.8423 71.6748 54.7105C71.2805 54.5681 70.9383 54.31 70.6929 53.97C70.4261 53.6073 70.2823 53.1687 70.2823 52.7185C70.2823 52.2682 70.4261 51.8297 70.6929 51.4669C70.9395 51.1282 71.2813 50.8704 71.6748 50.7264C72.0323 50.5947 72.4183 50.56 72.7936 50.6258C73.1963 50.6991 73.5699 50.8851 73.8712 51.1622C74.1725 51.4393 74.3891 51.7961 74.4959 52.1913C74.5804 52.5011 74.5723 52.6983 74.5884 52.6983Z" fill="#263238"/>
<path d="M51.4924 45.2694V47.1085H50.0436V45.2492L48.0918 42.0056H49.617L50.8243 44.0419L52.0316 42.0056H53.4361L51.4924 45.2694Z" fill="#263238"/>
<path d="M57.9032 45.9897V47.1085H53.8145V42.0056H57.8388V43.1284H55.2592V43.9896H57.5329V45.0722H55.2592V46.0098L57.9032 45.9897Z" fill="#263238"/>
<path d="M58.3457 46.6457L58.8206 45.5793C59.327 45.8993 59.9118 46.0733 60.5108 46.0823C61.1104 46.0823 61.3438 45.9133 61.3438 45.6799C61.3438 44.875 58.4342 45.4586 58.4342 43.5591C58.4342 42.6415 59.1828 41.897 60.704 41.897C61.3502 41.8862 61.9887 42.0399 62.5592 42.3437L62.1125 43.4182C61.6806 43.1695 61.194 43.0312 60.6959 43.0158C60.0882 43.0158 59.8669 43.221 59.8669 43.4746C59.8669 44.2794 62.7725 43.6718 62.7725 45.5592C62.7725 46.4526 62.0239 47.2132 60.5027 47.2132C59.7446 47.231 58.9969 47.0343 58.3457 46.6457Z" fill="#263238"/>
<path d="M144.346 67.0907C152.296 66.0793 157.921 58.8141 156.91 50.8636C155.898 42.9131 148.633 37.2878 140.683 38.2992C132.732 39.3107 127.107 46.5758 128.118 54.5263C129.13 62.4769 136.395 68.1021 144.346 67.0907Z" fill="white"/>
<path d="M128 52.7063C128 52.7063 128 52.6258 128 52.4689C128 52.3119 128 52.0664 128.028 51.7807L128.048 51.2696C128.048 51.0845 128.1 50.8672 128.132 50.6619C128.165 50.4567 128.197 50.2032 128.237 49.9496C128.281 49.6779 128.341 49.4091 128.418 49.1448C128.747 47.7767 129.283 46.4671 130.008 45.2613C130.957 43.654 132.207 42.2451 133.69 41.1122L134.318 40.6413C134.539 40.4965 134.773 40.3637 135.002 40.2389C135.231 40.1142 135.461 39.9411 135.714 39.8365L136.467 39.4743L136.869 39.2892L137.272 39.1403L138.077 38.8384C138.354 38.7459 138.648 38.6855 138.934 38.605C139.224 38.5218 139.518 38.4547 139.815 38.4038C140.424 38.2904 141.04 38.2178 141.658 38.1865C141.976 38.1865 142.29 38.1422 142.612 38.1463L143.578 38.1945C143.739 38.1945 143.9 38.1945 144.065 38.2267L144.552 38.2992C144.874 38.3515 145.204 38.3917 145.534 38.4561C146.193 38.6051 146.842 38.7946 147.477 39.0236C148.131 39.2573 148.767 39.537 149.381 39.8606C149.691 40.0256 149.989 40.2188 150.29 40.3999C150.443 40.4965 150.6 40.577 150.745 40.6856L151.172 41.0076C151.756 41.4377 152.31 41.9069 152.83 42.412L153.574 43.2169L153.759 43.4222L153.928 43.6435L154.262 44.0902L154.596 44.5369L154.894 45.0198L155.188 45.5027L155.333 45.7442L155.458 45.9977C155.623 46.3398 155.788 46.6859 155.957 47.028C156.126 47.37 156.218 47.7483 156.359 48.1105C157.368 51.0982 157.368 54.3345 156.359 57.3222C156.226 57.6844 156.098 58.0466 155.957 58.4047L155.462 59.435L155.337 59.6885L155.188 59.93L154.894 60.4169L154.601 60.8958L154.262 61.3425L153.928 61.7932L153.759 62.0146L153.574 62.2198L152.83 63.0247C152.309 63.5277 151.757 63.9968 151.176 64.4292L150.745 64.7511C150.6 64.8558 150.443 64.9403 150.294 65.0328C149.989 65.2139 149.691 65.4111 149.385 65.5761C148.768 65.896 148.131 66.1743 147.477 66.4091C146.842 66.6424 146.191 66.8319 145.53 66.9766C145.204 67.045 144.874 67.0812 144.548 67.1335L144.065 67.21C143.9 67.2301 143.739 67.2301 143.574 67.2382L142.612 67.2865C142.29 67.2865 141.972 67.2583 141.658 67.2502C141.04 67.2179 140.424 67.1439 139.815 67.0289C139.517 66.9804 139.223 66.9132 138.934 66.8277C138.644 66.7472 138.354 66.6868 138.077 66.5943L137.272 66.2924L136.869 66.1476L136.467 65.9624L135.71 65.5962C135.461 65.4795 135.235 65.3186 135.002 65.1938C134.769 65.069 134.539 64.9201 134.318 64.7712L133.69 64.3004C132.205 63.1686 130.953 61.7596 130.004 60.1513C129.28 58.9453 128.746 57.6356 128.418 56.2678C128.341 56.0036 128.281 55.7348 128.237 55.463C128.197 55.2094 128.165 54.972 128.132 54.7547C128.1 54.5374 128.064 54.3522 128.048 54.143C128.032 53.9337 128.048 53.7888 128.028 53.6359C128.028 53.3341 128.008 53.1047 128 52.9437C127.992 52.7828 128 52.7103 128 52.7103C128 52.7103 128 52.7908 128.02 52.9437C128.04 53.0966 128.048 53.3462 128.064 53.6319C128.064 53.7848 128.084 53.9538 128.096 54.139C128.108 54.3241 128.153 54.5414 128.185 54.7466C128.217 54.9519 128.257 55.2014 128.297 55.4509C128.338 55.7004 128.422 55.966 128.487 56.2558C128.827 57.613 129.37 58.9113 130.096 60.107C131.048 61.6972 132.297 63.0895 133.775 64.2078L134.398 64.6706C134.616 64.8155 134.849 64.9483 135.078 65.0731C135.306 65.219 135.541 65.3533 135.783 65.4755L136.531 65.8337L136.934 66.0148L137.336 66.1637L138.141 66.4574C138.419 66.55 138.708 66.6104 138.994 66.6868C139.281 66.7696 139.573 66.8354 139.867 66.884C140.47 66.9964 141.079 67.0676 141.69 67.0973C142.004 67.0973 142.318 67.1376 142.632 67.1335L143.59 67.0812C143.747 67.0812 143.912 67.0812 144.069 67.053L144.552 66.9766C144.874 66.9243 145.2 66.888 145.522 66.8196C146.176 66.6744 146.82 66.4862 147.449 66.2562C148.094 66.0234 148.722 65.7464 149.329 65.4272C149.634 65.2622 149.928 65.069 150.23 64.892C150.375 64.7954 150.536 64.7149 150.673 64.6103L151.099 64.2924C151.675 63.864 152.222 63.3989 152.737 62.8999L153.47 62.0951L153.655 61.8938L153.82 61.6725L154.15 61.2298L154.484 60.7872L154.774 60.3123L155.063 59.8334L155.208 59.596L155.333 59.3424C155.494 59.0044 155.659 58.6663 155.82 58.3243C155.981 57.9822 156.081 57.612 156.222 57.2578C156.695 55.7846 156.944 54.2492 156.963 52.7023C156.945 51.1563 156.694 49.6219 156.218 48.1507L155.816 47.0843C155.651 46.7422 155.49 46.4042 155.325 46.0661L155.204 45.8126L155.059 45.5752L154.766 45.0963L154.476 44.6214L154.146 44.1787L153.816 43.7361L153.651 43.5187L153.466 43.3135L152.733 42.5086C152.218 42.011 151.671 41.5472 151.095 41.1202L150.669 40.8023C150.528 40.6937 150.371 40.6132 150.226 40.5206C149.924 40.3395 149.63 40.1504 149.325 39.9813C148.121 39.3562 146.841 38.8895 145.518 38.593C145.196 38.5245 144.87 38.4883 144.548 38.432L144.069 38.3595C143.908 38.3394 143.747 38.3394 143.586 38.3273L142.628 38.2791C142.314 38.2791 142 38.3032 141.69 38.3153C141.077 38.3427 140.467 38.414 139.863 38.5286C139.568 38.5738 139.276 38.6397 138.99 38.7258C138.704 38.8022 138.415 38.8626 138.137 38.9511L137.332 39.2489L136.93 39.3938L136.527 39.5749L135.779 39.9331C135.529 40.0498 135.308 40.2107 135.074 40.3355C134.841 40.4602 134.616 40.6051 134.394 40.7379L133.771 41.2047C132.293 42.3234 131.044 43.7156 130.092 45.3055C129.366 46.5003 128.824 47.7971 128.483 49.1528C128.418 49.4345 128.326 49.6921 128.293 49.9577C128.261 50.2233 128.217 50.4446 128.181 50.666C128.145 50.8873 128.112 51.0684 128.092 51.2696C128.072 51.4708 128.068 51.6278 128.06 51.7767L128.016 52.4648C128.012 52.6258 128 52.7063 128 52.7063Z" fill="#263238"/>
<path d="M122.48 61.8255C122.48 62.2931 122.618 62.7504 122.877 63.1395C123.136 63.5286 123.505 63.832 123.937 64.0113C124.369 64.1906 124.844 64.2377 125.303 64.1467C125.761 64.0556 126.183 63.8306 126.513 63.5C126.844 63.1693 127.069 62.7481 127.16 62.2894C127.251 61.8308 127.204 61.3555 127.024 60.9237C126.845 60.4919 126.542 60.123 126.153 59.8637C125.764 59.6045 125.306 59.4665 124.839 59.4673C124.214 59.4684 123.614 59.7172 123.172 60.1592C122.73 60.6012 122.482 61.2004 122.48 61.8255Z" fill="white"/>
<path d="M122.481 61.8255C122.475 61.776 122.475 61.726 122.481 61.6766C122.48 61.5303 122.496 61.3843 122.53 61.2419C122.649 60.7095 122.951 60.2355 123.383 59.9018C123.681 59.6687 124.03 59.51 124.401 59.439C124.802 59.3581 125.216 59.3794 125.607 59.501C125.997 59.6225 126.351 59.8404 126.634 60.1345C126.918 60.4286 127.124 60.7895 127.232 61.1839C127.339 61.5782 127.346 61.9934 127.251 62.391C127.156 62.7887 126.963 63.156 126.688 63.4591C126.414 63.7623 126.068 63.9915 125.682 64.1256C125.295 64.2597 124.882 64.2944 124.478 64.2265C124.075 64.1586 123.696 63.9902 123.375 63.737C122.942 63.404 122.64 62.9298 122.522 62.3969C122.488 62.2559 122.472 62.1113 122.473 61.9663C122.467 61.9155 122.467 61.8642 122.473 61.8134C122.493 61.8134 122.473 62.0227 122.582 62.3808C122.721 62.8849 123.024 63.3282 123.443 63.6404C123.75 63.8686 124.108 64.0168 124.486 64.0716C124.864 64.1264 125.25 64.0861 125.608 63.9543C126.033 63.7988 126.401 63.5182 126.663 63.1495C126.95 62.7603 127.105 62.2892 127.105 61.8053C127.105 61.3215 126.95 60.8504 126.663 60.4612C126.401 60.0925 126.033 59.8119 125.608 59.6563C125.222 59.5156 124.806 59.4795 124.401 59.5517C124.052 59.6097 123.722 59.7474 123.435 59.9541C123.016 60.2663 122.713 60.7097 122.574 61.2138C122.493 61.6162 122.502 61.8255 122.481 61.8255Z" fill="#263238"/>
<path d="M141.839 49.4346V55.5677H140.411L137.702 52.2999V55.5677H136.004V49.4346H137.433L140.141 52.7023V49.4346H141.839Z" fill="#263238"/>
<path d="M142.752 52.5011C142.752 50.662 144.197 49.3098 146.161 49.3098C148.124 49.3098 149.569 50.662 149.569 52.5011C149.569 54.3402 148.124 55.6924 146.161 55.6924C144.197 55.6924 142.752 54.3402 142.752 52.5011ZM147.819 52.5011C147.8 52.178 147.687 51.8674 147.493 51.6077C147.3 51.3481 147.035 51.1507 146.731 51.0399C146.427 50.929 146.097 50.9097 145.782 50.9841C145.467 51.0586 145.181 51.2237 144.958 51.4589C144.736 51.6942 144.587 51.9894 144.531 52.3081C144.474 52.6268 144.512 52.9551 144.64 53.2525C144.768 53.5499 144.98 53.8033 145.25 53.9816C145.52 54.1599 145.837 54.2552 146.161 54.2557C146.387 54.2585 146.612 54.2142 146.821 54.1257C147.03 54.0373 147.218 53.9065 147.374 53.7416C147.53 53.5768 147.65 53.3814 147.726 53.1679C147.803 52.9544 147.834 52.7274 147.819 52.5011Z" fill="#263238"/>
<path d="M121.234 32.2346C127.67 29.7019 130.831 22.421 128.293 15.9723C125.756 9.52367 118.481 6.34916 112.045 8.88188C105.608 11.4146 102.448 18.6955 104.985 25.1441C107.523 31.5928 114.798 34.7673 121.234 32.2346Z" fill="white"/>
<path d="M111.645 32.0497L111.834 32.1261L112.389 32.3435L112.792 32.5044C112.945 32.5527 113.118 32.593 113.303 32.6453L113.902 32.8063C114.132 32.8632 114.364 32.9075 114.599 32.9391C115.795 33.1494 117.016 33.1752 118.221 33.0155C119.823 32.8237 121.372 32.3235 122.784 31.5426L123.376 31.2086C123.565 31.0838 123.754 30.943 123.943 30.8062C124.132 30.6693 124.346 30.5446 124.515 30.4037L125.066 29.9289L125.573 29.45L125.601 29.4178C125.774 29.2407 125.947 29.0556 126.12 28.8745C126.293 28.6934 126.438 28.472 126.599 28.2749C126.766 28.0631 126.919 27.8414 127.058 27.6108C127.357 27.1679 127.626 26.7054 127.863 26.2265C127.98 25.981 128.116 25.7395 128.221 25.486L128.623 24.4155L128.668 24.2988L128.776 23.8964C128.845 23.6187 128.929 23.345 128.99 23.0633C129.101 22.4892 129.174 21.9085 129.211 21.3248C129.251 20.7272 129.251 20.1276 129.211 19.53C129.187 19.2282 129.135 18.9263 129.094 18.6245C129.07 18.4716 129.062 18.3187 129.026 18.1657L128.917 17.715C128.818 17.2258 128.683 16.7443 128.515 16.2743C128.422 16.0409 128.326 15.8075 128.233 15.57L127.863 14.8296L127.742 14.6203L127.505 14.2179L127.263 13.8154L126.986 13.413L126.704 13.0106L126.563 12.8093L126.402 12.6202L125.13 11.2761L125.038 11.1875C123.015 9.36328 120.452 8.24975 117.738 8.01636H117.621H115.758H115.512L115.267 8.05258L114.784 8.11697L114.301 8.18538L113.83 8.29806L113.363 8.41074L113.13 8.46708L112.361 8.72866L111.653 9.00634C111.192 9.20037 110.744 9.42488 110.313 9.67841L109.91 9.91182C109.778 9.98828 109.657 10.0849 109.532 10.1694C109.283 10.3505 109.029 10.5195 108.788 10.7046C107.868 11.4532 107.05 12.3176 106.353 13.2762C106.188 13.5096 106.043 13.7591 105.89 14.0005L105.665 14.3587C105.643 14.3909 105.625 14.4245 105.608 14.4593C105.439 14.8054 105.27 15.1435 105.101 15.4815C104.989 15.735 104.904 15.9966 104.807 16.2501C104.618 16.7512 104.463 17.2649 104.345 17.7874C104.281 18.0404 104.232 18.2971 104.2 18.5561C104.164 18.8096 104.111 19.0632 104.091 19.3167C104.071 19.5702 104.059 19.8238 104.047 20.0733V20.8057C104.047 21.0512 104.067 21.2926 104.075 21.5341C104.083 21.7756 104.135 22.0049 104.16 22.2384C104.184 22.4718 104.22 22.6971 104.26 22.9225L104.417 23.5825C104.802 25.1483 105.486 26.6253 106.429 27.9328C107.137 28.9202 107.99 29.7941 108.961 30.5245C109.142 30.6695 109.331 30.8038 109.528 30.9269L110.055 31.2569C110.22 31.3535 110.369 31.4541 110.51 31.5305L110.912 31.7237L111.452 31.9813L111.637 32.0658L111.46 31.9692L110.928 31.6955L110.526 31.4983C110.385 31.4179 110.236 31.3173 110.075 31.2166L109.552 30.8867C109.359 30.762 109.172 30.6277 108.993 30.4842C108.045 29.7348 107.216 28.8461 106.534 27.8483C105.59 26.5511 104.907 25.0833 104.522 23.5261C104.469 23.3088 104.417 23.0915 104.369 22.8702C104.321 22.6488 104.304 22.4194 104.272 22.1901C104.233 21.9582 104.206 21.7245 104.192 21.4898C104.192 21.2564 104.172 21.015 104.164 20.7735C104.156 20.532 104.164 20.2664 104.164 20.0773V20.0411L104.212 19.2966C104.232 19.043 104.284 18.7975 104.321 18.544C104.355 18.288 104.403 18.0341 104.465 17.7834C104.59 17.262 104.75 16.7497 104.944 16.2501C105.041 16.0006 105.125 15.7391 105.238 15.4936C105.403 15.1555 105.572 14.8175 105.741 14.4754C105.741 14.4432 105.777 14.411 105.797 14.3788C105.87 14.2621 105.946 14.1454 106.019 14.0247C106.172 13.7873 106.317 13.5418 106.482 13.3084C106.821 12.8419 107.191 12.3983 107.588 11.9803C107.994 11.5482 108.43 11.1448 108.892 10.773C109.13 10.5879 109.383 10.4229 109.629 10.2458C109.753 10.1613 109.87 10.0607 110.003 9.98828L110.405 9.75889C110.943 9.45466 111.499 9.1858 112.071 8.95403L112.965 8.6522L113.19 8.57574L113.42 8.5194L113.882 8.41074L114.349 8.29806L114.828 8.23367L115.303 8.16526L115.544 8.13306H115.786H117.637H117.746C120.427 8.36329 122.96 9.46424 124.957 11.268L125.046 11.3525L126.305 12.6846L126.466 12.8697L126.603 13.0669L126.885 13.4693L127.159 13.8718L127.396 14.2742L127.633 14.6766L127.75 14.8819L127.847 15.0992C127.98 15.3849 128.108 15.6706 128.249 15.9564C128.467 16.5356 128.647 17.1284 128.788 17.7311L128.893 18.1778C128.929 18.3267 128.937 18.4796 128.962 18.6285C129.002 18.9304 129.054 19.2282 129.078 19.526C129.12 20.1168 129.12 20.7099 129.078 21.3007C129.044 21.8775 128.973 22.4515 128.865 23.0191C128.805 23.3008 128.724 23.5704 128.656 23.8239L128.547 24.2264C128.539 24.2619 128.528 24.2969 128.515 24.331L128.112 25.3934C128.008 25.647 127.875 25.8844 127.762 26.1259C127.524 26.6018 127.256 27.0615 126.957 27.5022C126.817 27.7192 126.664 27.9275 126.499 28.126C126.342 28.3272 126.193 28.5284 126.028 28.7216L125.513 29.2648L125.259 29.5304L125.235 29.5546L124.43 30.2428C124.253 30.3997 124.048 30.5204 123.863 30.6452C123.678 30.7699 123.488 30.9188 123.299 31.0476L122.716 31.3816C121.327 32.1858 119.794 32.712 118.204 32.931C117.008 33.0972 115.794 33.0795 114.603 32.8787C114.37 32.8513 114.139 32.811 113.911 32.758L113.311 32.601C113.126 32.5527 112.953 32.5165 112.8 32.4682L112.397 32.3153L111.834 32.1141L111.645 32.0497Z" fill="#263238"/>
<path d="M106.643 37.4986C106.207 37.4196 105.809 37.201 105.509 36.8758C105.208 36.5506 105.022 36.1364 104.977 35.6959C104.933 35.2553 105.033 34.8122 105.262 34.4335C105.492 34.0548 105.838 33.7611 106.249 33.5966C106.661 33.4322 107.114 33.4059 107.541 33.5219C107.969 33.6378 108.347 33.8896 108.618 34.2393C108.89 34.589 109.041 35.0176 109.047 35.4604C109.054 35.9031 108.916 36.3361 108.655 36.6938C108.429 37.003 108.12 37.2424 107.765 37.3848C107.409 37.5271 107.02 37.5665 106.643 37.4986Z" fill="white"/>
<path d="M106.191 37.3577C106.191 37.3577 106.231 37.3859 106.307 37.4181C106.423 37.4692 106.545 37.5058 106.669 37.5267C107.133 37.6168 107.613 37.5413 108.026 37.3134C108.334 37.1447 108.594 36.9009 108.782 36.6048C108.971 36.3086 109.082 35.9696 109.104 35.6192C109.138 35.1978 109.041 34.7761 108.827 34.4119C108.6 34.0239 108.255 33.7192 107.842 33.543C107.428 33.3669 106.969 33.3286 106.533 33.434C106.143 33.5231 105.787 33.7221 105.506 34.0074C105.226 34.2927 105.033 34.6523 104.951 35.0437C104.883 35.3628 104.889 35.6936 104.971 36.0095C105.087 36.4661 105.359 36.8677 105.74 37.1444C105.841 37.2203 105.95 37.2838 106.066 37.3336C106.142 37.3698 106.187 37.3859 106.187 37.3778C106.187 37.3698 106.026 37.2973 105.784 37.1001C105.432 36.8166 105.185 36.4224 105.084 35.9814C105.011 35.6826 105.011 35.3707 105.084 35.0719C105.163 34.7282 105.334 34.4125 105.579 34.1584C105.846 33.8746 106.192 33.6782 106.573 33.5949C106.977 33.5056 107.399 33.545 107.78 33.7076C108.162 33.8721 108.482 34.154 108.694 34.5125C108.894 34.8469 108.988 35.2342 108.963 35.6232C108.942 35.9525 108.841 36.2715 108.667 36.5522C108.494 36.8329 108.254 37.0667 107.969 37.2329C107.577 37.4565 107.121 37.5442 106.673 37.4825C106.364 37.4221 106.199 37.3456 106.191 37.3577Z" fill="#263238"/>
<path d="M113.088 18.4474H114.984C114.984 18.2322 115.027 18.0192 115.11 17.821C115.194 17.6227 115.317 17.4433 115.471 17.2932C115.625 17.1431 115.808 17.0255 116.008 16.9473C116.209 16.869 116.423 16.8318 116.638 16.8377C116.957 16.8253 117.272 16.9129 117.539 17.0882C117.806 17.2635 118.011 17.5178 118.127 17.8156C118.227 18.0645 118.266 18.3335 118.243 18.6006C118.219 18.8678 118.132 19.1255 117.99 19.3529C117.668 19.8841 116.964 20.367 115.684 20.1577V24.4034H117.559V21.8842C118.329 21.6586 119.004 21.1863 119.479 20.5399C119.955 19.8935 120.205 19.1089 120.191 18.3066C120.191 15.5338 117.704 14.8899 116.638 14.8899C115.825 14.906 113.052 15.0992 113.088 18.4474Z" fill="#263238"/>
<path d="M117.585 25.2847H115.682V27.0634H117.585V25.2847Z" fill="#263238"/>
<path d="M47.4154 131.442C47.4154 131.442 43.9787 128.223 42.6547 127.358C41.3307 126.492 38.3687 125.321 37.2621 125.213C36.1554 125.104 30.976 126.605 30.976 126.605C30.976 126.605 23.3298 125.929 22.046 126.822C20.7623 127.716 20.8669 128.641 21.4062 129.321C21.9454 130.001 24.0099 129.784 26.2957 129.82C28.5816 129.857 29.1892 130.07 29.1892 130.07L25.8692 133.607L34.4973 136.002L39.729 135.805L41.6204 138.187L47.4154 131.442Z" fill="#FFBF9D"/>
<path d="M21.2168 123.454L21.4261 131.068L21.7923 132.014L25.551 136.597L34.7184 135.99L27.4143 133.145L24.8186 131.173L23.8125 127.917C23.8125 127.917 24.1183 122.895 21.2168 123.454Z" fill="#FFBF9D"/>
<path d="M21.8532 132.191H19.6076C19.6076 132.191 16.694 127.398 14.0299 129.028L14.6416 129.973C14.6416 129.973 13.4343 129.43 12.6777 130.44L20.0262 136.879H20.3642L28.1915 136.376L21.8532 132.191Z" fill="#FFBF9D"/>
<path d="M23.1852 133.648C22.9752 133.668 22.7642 133.676 22.5533 133.672C22.022 133.677 21.4964 133.782 21.004 133.982L20.9315 134.018L20.8832 133.949C20.6539 133.627 20.3762 133.285 20.0784 132.927C19.4868 132.191 18.9475 131.527 18.4968 130.971C18.2662 130.711 18.0575 130.433 17.873 130.138C18.148 130.357 18.3977 130.605 18.6175 130.879C19.0482 131.358 19.6317 132.03 20.2514 132.798C20.5412 133.161 20.8148 133.503 21.0563 133.845L20.9315 133.813C21.4502 133.606 22.0087 133.52 22.5654 133.559C22.7758 133.548 22.9864 133.578 23.1852 133.648Z" fill="#FF9A6C"/>
<path d="M39.066 129.217C38.1793 129.518 37.3157 129.884 36.4824 130.311C35.6879 130.808 34.9319 131.364 34.2207 131.973C34.3681 131.737 34.5514 131.525 34.764 131.346C35.2477 130.877 35.7885 130.472 36.3737 130.138C36.9604 129.805 37.5863 129.545 38.237 129.366C38.5033 129.271 38.7834 129.221 39.066 129.217Z" fill="#FF9A6C"/>
<path d="M31.7404 127.245C31.4235 127.699 31.0723 128.128 30.6901 128.529C30.3615 128.976 29.9982 129.398 29.6035 129.788C29.8296 129.274 30.1427 128.803 30.5291 128.396C30.8639 127.946 31.2737 127.556 31.7404 127.245Z" fill="#FF9A6C"/>
<path d="M24.0858 134.71C24.0229 134.658 23.965 134.6 23.9127 134.537L23.4379 134.01L22.7014 133.165L22.2426 132.637C22.0615 132.443 21.8947 132.236 21.7436 132.018C21.4039 131.5 21.2209 130.895 21.2164 130.275C21.2164 129.627 21.1883 128.935 21.1762 128.207C21.152 126.746 21.1239 125.14 21.0957 123.454V123.361H21.1802L21.4257 123.329C21.6961 123.297 21.9703 123.328 22.227 123.418C22.4838 123.509 22.7163 123.658 22.9067 123.852C23.2476 124.233 23.4955 124.688 23.631 125.18C23.8671 126.075 23.9594 127.001 23.9047 127.925V127.893C24.279 129.124 24.6089 130.227 24.8906 131.153L24.8625 131.116L26.7499 132.593L27.2529 132.996C27.3133 133.039 27.3686 133.089 27.4179 133.145C27.4179 133.145 27.3495 133.112 27.2288 133.028L26.7056 132.654L24.778 131.229V131.205C24.4882 130.283 24.1421 129.193 23.7518 127.957V127.925C23.7966 127.023 23.7002 126.121 23.466 125.249C23.347 124.786 23.121 124.357 22.806 123.997C22.6367 123.825 22.4298 123.694 22.2016 123.614C21.9734 123.535 21.7299 123.509 21.4901 123.538L21.2687 123.567L21.3533 123.462C21.3774 125.148 21.3975 126.754 21.4136 128.215C21.4297 129.676 21.2486 131.032 21.9086 131.953C22.0402 132.163 22.1854 132.363 22.3432 132.553L22.7899 133.092C23.0636 133.422 23.301 133.712 23.4982 133.957L23.9409 134.509C23.9972 134.57 24.0459 134.637 24.0858 134.71Z" fill="#FF9A6C"/>
<path d="M20.3816 136.883C20.2388 136.897 20.0959 136.858 19.9792 136.774C19.6636 136.583 19.3741 136.352 19.118 136.086C18.2806 135.218 17.511 134.287 16.8161 133.301C15.9871 132.15 15.2909 131.096 14.7798 130.319C14.5343 129.917 14.3411 129.611 14.2123 129.386C14.1341 129.276 14.0731 129.155 14.0312 129.028C14.1268 129.122 14.2106 129.227 14.2808 129.341L14.9045 130.235C15.4317 130.995 16.1521 132.042 16.9811 133.177C17.6718 134.158 18.4189 135.099 19.2186 135.994C19.4599 136.262 19.7298 136.504 20.0235 136.714C20.1376 136.781 20.2575 136.838 20.3816 136.883Z" fill="#FF9A6C"/>
<path d="M33.7531 131.969L29.7086 131.696L28.5013 128.384L28.28 126.154C28.2327 125.627 27.9897 125.136 27.5987 124.778C27.2077 124.421 26.697 124.222 26.1672 124.223H26.127L26.3523 129.684L27.1854 133.076L30.4732 135.016H34.4976L33.7531 131.969Z" fill="#FFBF9D"/>
<path d="M33.7531 131.969L29.7086 131.696L28.5013 128.384L28.28 126.154C28.2327 125.627 27.9897 125.136 27.5987 124.778C27.2077 124.421 26.697 124.222 26.1672 124.223H26.127L26.3523 129.684L27.1854 133.076L30.4732 135.016" fill="#FFBF9D"/>
<path d="M30.4717 135.016C30.3892 134.984 30.3097 134.945 30.2343 134.899L29.5743 134.533L27.1597 133.14H27.1315V133.112C26.886 132.138 26.6003 130.987 26.2824 129.724V129.704C26.2099 128.062 26.1294 126.207 26.0449 124.243V124.138H26.1496C26.1858 124.138 26.23 124.138 26.2703 124.138C26.7567 124.155 27.224 124.332 27.6 124.641C27.976 124.95 28.2399 125.374 28.3509 125.848C28.3984 126.067 28.4293 126.289 28.4434 126.512L28.5038 127.156C28.5481 127.559 28.5843 127.993 28.6245 128.392V128.368C29.0672 129.603 29.4656 130.722 29.8318 131.692L29.7634 131.639L32.7213 131.873L33.5262 131.949C33.6198 131.954 33.7128 131.967 33.8038 131.99C33.7102 131.999 33.6158 131.999 33.5221 131.99L32.7173 131.953L29.7594 131.788H29.6668V131.744C29.3087 130.778 28.8982 129.663 28.4595 128.436V128.412C28.4193 128.009 28.375 127.607 28.3307 127.176C28.3106 126.963 28.2865 126.75 28.2664 126.533C28.2518 126.319 28.2222 126.106 28.1778 125.897C28.0766 125.467 27.837 125.083 27.496 124.803C27.155 124.523 26.7314 124.363 26.2904 124.347H26.1254L26.226 124.239C26.3025 126.199 26.3789 128.058 26.4433 129.7C26.7492 130.967 27.0228 132.114 27.2482 133.096L27.212 133.048L29.6024 134.497L30.2463 134.899C30.3262 134.928 30.402 134.967 30.4717 135.016Z" fill="#FF9A6C"/>
<path d="M120.384 67.5278C116.919 54.3159 113.72 38.955 94.399 40.3233C94.399 40.3233 82.4951 42.6132 76.8449 51.3983C73.5168 56.5655 70.6353 78.8442 70.0639 96.4386C70.0397 97.155 70.3375 102.149 70.3174 102.849L121.451 107.107H130.678C130.678 107.107 130.103 97.7747 127.326 88.7199C124.61 79.9187 121.612 72.188 120.384 67.5278Z" fill="#263238"/>
<path d="M91.8309 45.3579L93.0382 44.2029L106.097 49.4667C107.009 49.5176 107.868 49.9082 108.506 50.5616C109.143 51.2149 109.513 52.0835 109.542 52.996L109.425 95.5493C109.425 98.4348 108.866 100.934 107.123 103.232L105.288 105.646C101.107 111.168 92.5029 110.713 89.1909 104.632C88.9916 104.286 88.8374 103.915 88.7321 103.53C88.6489 103.217 88.583 102.9 88.5349 102.58C88.1325 99.1552 88.1325 96.1852 88.1325 96.1852C87.8991 92.4265 87.8226 90.8852 87.8226 90.9214C87.8226 90.9576 79.8223 89.9998 77.6612 79.7337C76.5867 74.6268 76.7879 67.6004 77.0897 60.6865C77.5002 51.1288 84.1404 45.3458 91.8309 45.3579Z" fill="#FFBF9D"/>
<path d="M95.1934 67.5237C95.208 67.8695 95.3571 68.196 95.6089 68.4336C95.8608 68.6711 96.1954 68.8009 96.5415 68.7954C96.711 68.8008 96.8798 68.7721 97.0381 68.711C97.1963 68.65 97.3406 68.5578 97.4626 68.44C97.5845 68.3222 97.6816 68.1811 97.748 68.0251C97.8145 67.8691 97.849 67.7013 97.8494 67.5317C97.8348 67.1862 97.6864 66.8599 97.4355 66.6218C97.1847 66.3838 96.8511 66.2526 96.5053 66.256C96.3353 66.2506 96.1659 66.2794 96.0072 66.3407C95.8485 66.4019 95.7037 66.4943 95.5814 66.6125C95.4591 66.7307 95.3617 66.8723 95.295 67.0288C95.2284 67.1853 95.1938 67.3536 95.1934 67.5237Z" fill="#263238"/>
<path d="M81.5586 67.8779C81.5712 68.2241 81.719 68.5516 81.9703 68.7901C82.2216 69.0286 82.5563 69.1591 82.9027 69.1536C83.0723 69.1585 83.2411 69.1294 83.3992 69.0682C83.5574 69.0071 83.7018 68.9149 83.824 68.7973C83.9461 68.6796 84.0436 68.5388 84.1107 68.383C84.1778 68.2272 84.2131 68.0596 84.2147 67.89C84.201 67.5434 84.0524 67.2159 83.8004 66.9775C83.5485 66.7391 83.2133 66.6088 82.8665 66.6143C82.697 66.6089 82.5282 66.6376 82.37 66.6986C82.2117 66.7597 82.0674 66.8518 81.9454 66.9696C81.8235 67.0875 81.7264 67.2286 81.66 67.3846C81.5935 67.5406 81.559 67.7084 81.5586 67.8779Z" fill="#263238"/>
<path d="M78.4514 63.431C78.6245 63.596 79.5903 62.7992 81.019 62.7348C82.4476 62.6704 83.5301 63.3263 83.679 63.1372C83.7515 63.0567 83.5664 62.7348 83.0955 62.441C82.4544 62.0448 81.707 61.8552 80.9546 61.8977C80.2118 61.9308 79.4994 62.2017 78.9223 62.6704C78.4997 63.0366 78.3629 63.3585 78.4514 63.431Z" fill="#263238"/>
<path d="M92.6179 62.9319C92.8071 63.0768 93.6924 62.1874 95.105 61.9741C96.5175 61.7609 97.6644 62.3082 97.7892 62.111C97.8536 62.0224 97.6403 61.7367 97.1372 61.4792C96.4603 61.1511 95.6989 61.0387 94.9561 61.1572C94.2195 61.2685 93.5375 61.6109 93.0083 62.1351C92.63 62.5295 92.5294 62.8796 92.6179 62.9319Z" fill="#263238"/>
<path d="M87.9569 73.9748C87.9569 73.8943 87.0635 73.7856 85.6147 73.673C85.2485 73.6528 84.8984 73.6005 84.8099 73.355C84.7586 72.9794 84.8246 72.5971 84.999 72.2604C85.2968 71.359 85.6107 70.4173 85.9367 69.4434C87.2365 65.419 88.1581 62.111 87.9971 62.0587C87.8362 62.0064 86.649 65.2339 85.3491 69.2623C85.0352 70.2563 84.7374 71.202 84.4557 72.1075C84.339 72.5301 84.1257 73.013 84.339 73.5482C84.3977 73.6741 84.4844 73.7849 84.5925 73.8721C84.7006 73.9593 84.8273 74.0206 84.9628 74.0512C85.1676 74.0955 85.3771 74.1144 85.5866 74.1076C87.0554 74.0955 87.9529 74.0593 87.9569 73.9748Z" fill="#263238"/>
<path d="M87.8164 90.9292C92.6965 90.761 97.4337 89.2395 101.499 86.5347C101.499 86.5347 98.3763 93.8751 87.9693 93.4284L87.8164 90.9292Z" fill="#FF9A6C"/>
<path d="M92.4211 76.8803C92.2123 76.6404 91.957 76.4454 91.6706 76.307C91.3842 76.1687 91.0727 76.0899 90.755 76.0754C89.8576 76.0231 89.2258 76.1358 88.7428 76.8441C88.6487 77.019 88.5912 77.2113 88.5739 77.4092C88.5566 77.6071 88.5799 77.8064 88.6422 77.995C88.7469 78.16 88.6704 78.1641 88.8314 78.2808C89.4152 78.6898 90.0746 78.9784 90.7711 79.1299C91.4633 79.2869 92.2601 79.1299 92.6183 78.5625C92.7596 78.2951 92.8165 77.9911 92.7813 77.6907C92.7461 77.3903 92.6205 77.1077 92.4211 76.8803Z" fill="#FF9A6C"/>
<path d="M92.2757 56.3843C92.4608 56.7465 93.6882 56.3843 95.2014 56.3441C96.7145 56.3038 97.9742 56.5855 98.119 56.2113C98.1834 56.0342 97.9178 55.7042 97.3786 55.4064C96.6827 55.0442 95.9049 54.8681 95.1209 54.8953C94.3461 54.9111 93.5894 55.1319 92.9276 55.5352C92.4206 55.8652 92.1952 56.2072 92.2757 56.3843Z" fill="#263238"/>
<path d="M78.6559 60.8474C78.9215 61.1573 79.8914 60.771 81.0705 60.6985C82.2497 60.6261 83.2638 60.8032 83.4851 60.4531C83.5777 60.284 83.4046 59.9661 82.9499 59.6804C82.3462 59.3348 81.6504 59.1844 80.9579 59.2498C80.2633 59.295 79.6004 59.5567 79.0624 59.9983C78.6559 60.3524 78.5352 60.6945 78.6559 60.8474Z" fill="#263238"/>
<path d="M109.281 71.1578C109.281 71.1578 103.784 72.4858 96.0007 55.6842C93.3446 49.9657 88.1895 44.2028 88.1895 44.2028L93.0187 43.5066C93.0187 43.5066 107.446 47.5712 107.687 47.7523C107.929 47.9334 111.329 55.2134 111.329 55.2134L109.281 71.1578Z" fill="#263238"/>
<path d="M107.48 70.4856C107.443 69.713 108.244 67.8497 108.997 67.6927C111.009 67.2903 114.687 67.2541 114.981 72.4173C115.383 79.472 108.216 78.4176 108.192 78.2164C108.168 78.0151 107.608 73.1457 107.48 70.4856Z" fill="#FFBF9D"/>
<path d="M110.195 75.4074C110.223 75.3832 110.32 75.4878 110.533 75.5724C110.833 75.6801 111.164 75.6671 111.455 75.5361C112.183 75.2222 112.743 74.0029 112.706 72.7191C112.688 72.1128 112.537 71.518 112.264 70.9766C112.185 70.7602 112.055 70.5661 111.884 70.4112C111.714 70.2563 111.509 70.1451 111.286 70.0872C111.142 70.0576 110.993 70.0792 110.863 70.1483C110.734 70.2174 110.633 70.3296 110.577 70.4655C110.493 70.6667 110.549 70.8075 110.509 70.8196C110.469 70.8317 110.352 70.711 110.392 70.4172C110.421 70.2396 110.511 70.0775 110.646 69.9584C110.737 69.8797 110.843 69.82 110.958 69.7826C111.073 69.7453 111.194 69.7312 111.314 69.7411C111.607 69.7811 111.885 69.8957 112.121 70.074C112.357 70.2523 112.543 70.4883 112.662 70.7592C112.995 71.3542 113.179 72.0213 113.197 72.703C113.233 74.1276 112.582 75.4999 111.588 75.85C111.401 75.9158 111.203 75.9391 111.006 75.9182C110.81 75.8973 110.621 75.8328 110.453 75.7293C110.215 75.5925 110.155 75.4355 110.195 75.4074Z" fill="#FF9A6C"/>
<path d="M93.3284 77.1661C93.3083 77.3472 92.101 77.3191 90.6724 77.5967C89.2437 77.8744 88.1249 78.3211 88.0364 78.1642C87.9479 78.0072 89.0063 77.2667 90.5557 76.981C92.105 76.6953 93.3606 77.0172 93.3284 77.1661Z" fill="#263238"/>
<path d="M148.463 131.837C148.463 131.837 154.371 126.778 156.085 126.641C157.799 126.504 162.299 127.345 162.299 127.345C162.299 127.345 165.144 127.37 166.556 127.192C168.031 126.958 169.538 127.032 170.983 127.41C171.41 127.539 171.945 128.597 170.689 129.321C170.158 129.627 164.991 129.977 164.991 129.977L177.917 133.668L176.239 135.052C176.012 135.24 175.729 135.346 175.434 135.354L156.838 136.014L155.984 138.094L148.463 131.837Z" fill="#FFBF9D"/>
<path d="M162.572 131.841H168.609C168.609 131.841 170.726 129.024 171.49 127.861C172.162 126.834 172.967 126.533 173.671 126.774C173.855 126.841 174.008 126.973 174.102 127.144C174.169 127.268 174.205 127.406 174.205 127.547C174.205 127.687 174.169 127.826 174.102 127.949L171.446 132.903L172.838 132.436C172.838 132.436 175.623 129.708 176.166 129.076C176.71 128.444 178.69 125.788 180.444 127.724L178.03 130.428L180.444 128.714C180.444 128.714 182.384 127.048 183.418 129.032L176.175 135.133" fill="#FFBF9D"/>
<path d="M156.287 129.334C156.364 129.296 156.445 129.268 156.529 129.249C156.763 129.17 157.004 129.115 157.249 129.084C158.161 128.962 159.09 129.059 159.957 129.366C160.564 129.575 161.147 129.845 161.7 130.171C161.998 130.348 162.299 130.541 162.605 130.754L163.064 131.08C163.209 131.185 163.39 131.322 163.507 131.386C165.036 131.503 166.787 131.607 168.618 131.736L168.529 131.772C169.097 131.1 169.652 130.368 170.191 129.607C170.404 129.309 170.594 129.008 170.799 128.71C171.004 128.412 171.177 128.102 171.394 127.82C171.602 127.528 171.839 127.258 172.103 127.016C172.237 126.899 172.384 126.797 172.541 126.714C172.71 126.617 172.903 126.573 173.097 126.589H173.061C173.227 126.561 173.397 126.567 173.561 126.606C173.725 126.646 173.879 126.718 174.014 126.818C174.135 126.933 174.226 127.074 174.281 127.231C174.337 127.388 174.354 127.555 174.332 127.72V127.74C173.181 129.8 172.179 131.595 171.407 132.972C171.322 133.226 171.183 133.459 170.999 133.654C170.814 133.848 170.589 134 170.34 134.098C169.98 134.248 169.595 134.33 169.205 134.34C168.965 134.353 168.725 134.353 168.485 134.34C168.401 134.342 168.317 134.334 168.235 134.316H168.485C168.646 134.316 168.887 134.316 169.201 134.288C169.58 134.265 169.952 134.176 170.3 134.026C170.53 133.928 170.736 133.783 170.904 133.599C171.073 133.415 171.2 133.197 171.278 132.96L174.143 127.676V127.712C174.16 127.579 174.146 127.444 174.102 127.318C174.058 127.191 173.985 127.077 173.89 126.983C173.655 126.821 173.366 126.757 173.085 126.806H173.052C172.911 126.804 172.771 126.842 172.65 126.915C172.504 126.989 172.368 127.082 172.248 127.193C171.993 127.419 171.765 127.672 171.568 127.949C171.165 128.513 170.803 129.157 170.36 129.736C169.817 130.505 169.258 131.233 168.682 131.913L168.65 131.953H168.598C166.754 131.817 165.04 131.712 163.462 131.571C163.282 131.476 163.113 131.363 162.955 131.233L162.501 130.907C162.203 130.694 161.905 130.505 161.615 130.324C161.075 129.999 160.503 129.729 159.909 129.519C159.061 129.204 158.153 129.089 157.253 129.181C157.011 129.206 156.772 129.249 156.537 129.309C156.454 129.323 156.371 129.331 156.287 129.334Z" fill="#FF9A6C"/>
<path d="M180.457 127.724C180.395 127.844 180.317 127.955 180.224 128.054C180.059 128.259 179.821 128.553 179.519 128.907C178.924 129.623 178.087 130.601 177.149 131.672C176.211 132.742 175.406 133.756 174.71 134.392C174.443 134.65 174.152 134.882 173.841 135.084C173.731 135.166 173.605 135.223 173.471 135.253C173.574 135.167 173.683 135.087 173.797 135.016C174.082 134.791 174.351 134.546 174.602 134.283C175.258 133.631 176.022 132.597 176.98 131.539C177.938 130.48 178.775 129.503 179.395 128.81L180.143 128.005C180.235 127.898 180.34 127.803 180.457 127.724Z" fill="#FF9A6C"/>
<path d="M177.144 128.005C176.931 128.317 176.685 128.606 176.412 128.867C175.941 129.382 175.277 130.074 174.536 130.847C173.929 131.474 173.361 132.054 172.927 132.493C172.447 132.687 171.946 132.822 171.434 132.895C171.563 132.83 171.697 132.778 171.836 132.738L172.89 132.336L172.858 132.356C173.293 131.889 173.848 131.305 174.468 130.682C175.208 129.917 175.889 129.233 176.388 128.746C176.619 128.478 176.872 128.231 177.144 128.005Z" fill="#FF9A6C"/>
<path d="M128.434 101.807C128.434 101.807 137.11 104.045 137.959 115.836C138.446 122.557 134.869 144.139 134.869 144.139L147.682 130.98L159.103 138.924C159.103 138.924 143.557 157.906 139.983 160.776C136.41 163.645 130.679 168.225 128.828 167.85C126.977 167.476 126.969 158.912 126.969 158.912V111.627L128.434 101.807Z" fill="#3E7BFA"/>
<path d="M66.0555 103.252C66.0555 103.252 58.3368 105.791 58.6427 120.882C58.9485 135.974 58.7111 141.04 58.7111 141.04L47.1411 128.794L37.5391 139.394C37.5391 139.394 48.2921 155.371 55.8136 163.138C62.9044 170.45 69.2065 164.1 71.2549 158.957C72.913 154.791 74.249 138.952 74.249 138.952L66.0555 103.252Z" fill="#3E7BFA"/>
<g opacity="0.3">
<path d="M129.104 128.971C129.804 124.545 129.989 119.752 127.973 115.691C123.027 127.917 123.249 141.958 125.019 154.912L128.939 166.12C131.41 158.611 129.064 150.61 129.116 142.779C129.148 138.316 128.408 133.386 129.104 128.971Z" fill="black"/>
</g>
<path d="M64.4512 112.854C64.4512 112.854 69.6104 147.56 70.6084 150.598C71.6064 153.636 71.6064 162.595 71.6064 162.595C71.6064 162.595 66.1937 172.68 65.8597 179.686L131.082 179.823L126.844 151.021C126.71 149.202 126.677 147.378 126.748 145.556C127.022 140.481 127.412 129.603 128.869 122.915C130.559 115.14 128.281 101.835 128.281 101.835L108.799 97.0342C104.187 103.662 92.702 103.751 88.1465 97.0342L66.1575 103.252L64.4512 112.854Z" fill="#3E7BFA"/>
<path d="M128.125 149.644C128.172 149.531 128.237 149.426 128.318 149.334C128.455 149.145 128.66 148.872 128.918 148.529C129.587 147.657 130.336 146.849 131.155 146.115C131.989 145.398 132.918 144.801 133.916 144.34C134.318 144.171 134.616 144.042 134.838 143.97C134.951 143.921 135.07 143.887 135.192 143.869C135.236 143.954 133.216 144.602 131.292 146.284C130.486 147.01 129.73 147.789 129.03 148.618C128.753 148.981 128.451 149.324 128.125 149.644Z" fill="#263238"/>
<path d="M67.7267 148.908C67.6865 148.908 67.5376 148.204 67.0426 147.145C66.4046 145.763 65.4728 144.537 64.312 143.552C63.1513 142.567 61.7896 141.847 60.322 141.443C59.1951 141.129 58.4627 141.097 58.4708 141.04C58.6405 141.019 58.8121 141.019 58.9819 141.04C59.4462 141.08 59.9065 141.158 60.3582 141.274C61.8653 141.645 63.266 142.36 64.4509 143.362C65.6297 144.37 66.5629 145.634 67.1794 147.057C67.3651 147.484 67.5172 147.926 67.6342 148.377C67.6884 148.549 67.7196 148.727 67.7267 148.908Z" fill="#263238"/>
<path d="M68.1443 130.102C68.0367 130.066 67.9361 130.011 67.8465 129.941C67.6654 129.829 67.4078 129.651 67.098 129.418C66.2964 128.81 65.5467 128.137 64.8564 127.406C64.1703 126.675 63.5267 125.905 62.9287 125.1C62.6617 124.779 62.4272 124.433 62.2285 124.066C62.5188 124.36 62.7878 124.675 63.0334 125.007C63.5244 125.599 64.2004 126.412 65.0013 127.261C65.6867 127.984 66.4151 128.666 67.1825 129.301C67.5177 129.55 67.8388 129.818 68.1443 130.102Z" fill="#263238"/>
<path d="M113.672 148.888C113.672 148.888 113.672 148.916 113.619 148.968L113.45 149.19C113.289 149.379 113.076 149.677 112.762 150.023C111.891 151.018 110.949 151.95 109.945 152.812C108.448 154.095 106.854 155.261 105.176 156.297C103.128 157.556 101.012 158.702 98.8379 159.729C96.5279 160.828 94.2984 161.806 92.2782 162.715C90.258 163.625 88.4511 164.458 86.9581 165.211C85.465 165.963 84.2738 166.607 83.4609 167.074C83.0585 167.299 82.7446 167.476 82.5313 167.613L82.2858 167.75C82.2295 167.778 82.2013 167.794 82.1973 167.79C82.2194 167.767 82.2453 167.748 82.2737 167.734L82.5071 167.577C82.7164 167.444 83.0182 167.243 83.4207 167.001C84.2255 166.514 85.4006 165.842 86.8896 165.078C88.3786 164.313 90.1856 163.468 92.2018 162.538C94.218 161.609 96.4434 160.639 98.7453 159.54C100.913 158.515 103.026 157.377 105.076 156.132C106.747 155.114 108.34 153.971 109.84 152.715C110.853 151.868 111.809 150.955 112.702 149.982C113.024 149.648 113.249 149.359 113.414 149.178L113.603 148.972L113.672 148.888Z" fill="#263238"/>
<path d="M66.0078 179.143V179.058C66.0078 178.99 66.0078 178.909 66.0078 178.805C66.0078 178.571 66.044 178.245 66.0682 177.823C66.2233 176.599 66.4694 175.388 66.8046 174.201C68.0412 170.04 69.7252 166.026 71.827 162.228V162.281C71.5654 158.506 71.1751 154.288 70.7243 149.854C69.8631 141.475 68.9617 133.909 68.3097 128.428C67.9797 125.699 67.7101 123.486 67.5049 121.945C67.4163 121.188 67.3479 120.593 67.2956 120.178L67.2473 119.719C67.242 119.667 67.242 119.615 67.2473 119.562C67.2637 119.612 67.2745 119.663 67.2795 119.715C67.2956 119.828 67.3197 119.981 67.3519 120.174C67.4083 120.577 67.4928 121.176 67.5974 121.933C67.8027 123.474 68.0924 125.683 68.4546 128.412C69.1508 133.885 70.0643 141.451 70.9376 149.829C71.3883 154.256 71.7747 158.49 72.0202 162.269V162.297V162.321C69.9169 166.103 68.216 170.096 66.9455 174.233C66.5942 175.413 66.3252 176.617 66.1406 177.835C66.1044 178.237 66.0722 178.579 66.0521 178.809C66.0521 178.913 66.0521 178.998 66.0239 179.062C66.0224 179.09 66.017 179.117 66.0078 179.143Z" fill="#263238"/>
<path d="M129.67 113.663C129.676 113.72 129.676 113.778 129.67 113.836C129.67 113.961 129.67 114.126 129.67 114.343C129.67 114.786 129.67 115.441 129.633 116.283C129.589 117.969 129.416 120.403 129.114 123.406C128.812 126.408 128.386 129.969 127.943 133.929C127.501 137.889 127.066 142.248 126.929 146.843C126.833 151.161 127.131 155.478 127.818 159.741C128.398 163.685 129.082 167.206 129.609 170.176C130.136 173.146 130.547 175.549 130.772 177.219C130.893 178.056 130.961 178.708 131.01 179.147C131.01 179.36 131.046 179.549 131.058 179.65C131.063 179.707 131.063 179.765 131.058 179.823C131.041 179.768 131.03 179.711 131.026 179.654C131.026 179.529 130.986 179.364 130.953 179.155C130.893 178.712 130.813 178.064 130.676 177.231C130.43 175.565 130.012 173.162 129.468 170.201C128.925 167.239 128.221 163.717 127.629 159.77C126.93 155.495 126.626 151.165 126.72 146.835C126.861 142.231 127.307 137.869 127.754 133.909C128.201 129.949 128.66 126.388 128.961 123.39C129.263 120.391 129.472 117.965 129.545 116.279C129.597 115.437 129.601 114.786 129.617 114.343C129.617 114.126 129.617 113.961 129.617 113.836C129.629 113.777 129.647 113.719 129.67 113.663Z" fill="#263238"/>
<g opacity="0.3">
<path d="M67.4364 121.1C66.324 132.214 67.6127 143.438 71.2153 154.011L67.4364 121.1Z" fill="black"/>
</g>
<g opacity="0.3">
<path d="M107.779 159.552C102.838 164.092 97.8796 167.971 91.7988 170.132C96.3825 170.535 101.007 168.768 104.548 165.834C108.089 162.9 110.613 159.798 112.234 155.508L107.779 159.552Z" fill="black"/>
</g>
<path d="M102.151 164.55C102.111 164.51 105.185 161.689 109.016 158.252C112.847 154.816 115.986 152.067 116.023 152.111C116.059 152.156 112.988 154.973 109.157 158.409C105.326 161.846 102.191 164.595 102.151 164.55Z" fill="#263238"/>
<path d="M113.08 79.3834C113.08 79.8826 112.932 80.3706 112.654 80.7856C112.377 81.2007 111.982 81.5241 111.521 81.7149C111.06 81.9058 110.552 81.9555 110.063 81.8578C109.573 81.7602 109.124 81.5194 108.771 81.1662C108.418 80.8129 108.178 80.3629 108.081 79.8732C107.984 79.3834 108.035 78.876 108.226 78.415C108.418 77.954 108.742 77.5602 109.158 77.2834C109.573 77.0066 110.061 76.8593 110.56 76.8601C110.892 76.8601 111.22 76.9254 111.525 77.0523C111.831 77.1791 112.109 77.365 112.343 77.5994C112.577 77.8338 112.763 78.1119 112.889 78.4181C113.015 78.7242 113.08 79.0522 113.08 79.3834Z" fill="#455A64"/>
<path d="M128.095 112.52C127.351 106.349 126.608 100.179 125.865 94.0079L109.909 89.1787C109.599 100.189 107.671 112.552 104.902 123.213C110.805 125.123 117.043 125.773 123.213 125.12C123.481 122.142 123.75 119.164 124.018 116.186C124.415 118.432 124.817 120.676 125.225 122.919C126.899 121.981 127.885 120.102 128.219 118.222C128.553 116.343 128.324 114.443 128.095 112.52Z" fill="#263238"/>
<path d="M115.608 125.204C115.608 125.204 115.608 125.128 115.656 124.975C115.705 124.822 115.745 124.573 115.813 124.295C115.954 123.691 116.159 122.814 116.425 121.691C116.948 119.425 117.721 116.154 118.473 112.069C119.391 107.286 119.972 102.445 120.212 97.5814C120.518 91.6325 119.976 85.6703 118.602 79.8743C117.242 74.0658 114.725 68.591 111.201 63.777C110.799 63.2337 110.396 62.6824 109.946 62.1672C109.495 61.6521 109.097 61.1491 108.642 60.6863L107.978 59.982L107.302 59.31C106.859 58.8592 106.4 58.4447 105.958 58.0262C104.167 56.3682 102.416 54.9114 100.851 53.5431C99.2852 52.1748 97.8888 50.9152 96.7298 49.7361C96.436 49.4423 96.1704 49.1445 95.9249 48.8708C95.6794 48.5972 95.4098 48.3195 95.1844 48.066C94.9591 47.8124 94.7297 47.5428 94.5204 47.2973L93.953 46.573C93.5827 46.1222 93.3051 45.6876 93.0435 45.3214C92.7819 44.9552 92.5887 44.6332 92.4318 44.3676L92.0776 43.772C91.9972 43.6352 91.9609 43.5627 91.9609 43.5627C91.9609 43.5627 92.0092 43.6271 92.0978 43.7599L92.468 44.3475C92.629 44.6051 92.8302 44.927 93.0958 45.2852C93.3614 45.6433 93.6431 46.09 94.0174 46.5247L94.5888 47.241L95.2569 48.0016C95.4863 48.2712 95.7358 48.5408 96.0054 48.8065C96.275 49.0721 96.5366 49.3779 96.8344 49.6636C97.9934 50.8347 99.3979 52.0782 100.967 53.4425C102.537 54.8067 104.292 56.2595 106.094 57.9095C106.537 58.3119 107.004 58.7466 107.447 59.1933L108.127 59.8653L108.795 60.5736C109.254 61.0364 109.668 61.5555 110.107 62.0586C110.545 62.5616 110.956 63.1089 111.378 63.6683C114.917 68.5018 117.442 74.0004 118.803 79.8341C120.186 85.6506 120.728 91.6352 120.413 97.6055C120.164 102.471 119.567 107.313 118.626 112.093C117.854 116.182 117.061 119.45 116.513 121.711C116.236 122.838 116.014 123.723 115.861 124.307C115.785 124.597 115.725 124.818 115.684 124.979C115.644 125.14 115.608 125.204 115.608 125.204Z" fill="#455A64"/>
</svg>
