<svg width="190" height="141" viewBox="0 0 190 141" fill="none" xmlns="http://www.w3.org/2000/svg">
<g id="Success Payment">
<path id="Rectangle 3" d="M189.049 76.8702C189.049 43.7345 162.187 16.8728 129.051 16.8728H60.9462C27.8105 16.8728 0.948822 43.7345 0.948822 76.8702C0.948822 110.006 27.8106 136.868 60.9462 136.868H129.051C162.187 136.868 189.049 110.006 189.049 76.8702Z" fill="#3E7BFA"/>
<rect id="Rectangle" x="128.453" y="4.71118" width="9.66397" height="1.89661" transform="rotate(32.6414 128.453 4.71118)" fill="white"/>
<rect id="Rectangle_2" x="144.549" y="43.0142" width="12.5818" height="3.35555" transform="rotate(-30.1116 144.549 43.0142)" fill="#E50A3E"/>
<rect id="Rectangle_3" x="167.355" y="21.7852" width="6.74611" height="3.35555" transform="rotate(37.6414 167.355 21.7852)" fill="#FFB21D"/>
<mask id="mask0_372_4980" style="mask-type:alpha" maskUnits="userSpaceOnUse" x="1" y="0" width="188" height="141">
<rect id="Rectangle 4" width="188" height="141" rx="70.5" transform="matrix(-1 0 0 1 189 0)" fill="#3E7BFA"/>
</mask>
<g mask="url(#mask0_372_4980)">
<g id="Group 33">
<rect id="Rectangle_4" x="61.209" y="54.4414" width="9.66397" height="1.89661" transform="rotate(-106.554 61.209 54.4414)" fill="white"/>
<rect id="Rectangle_5" x="196.848" y="57.9658" width="9.66397" height="4.81448" transform="rotate(-172.307 196.848 57.9658)" fill="#F2D1BB"/>
<rect id="Rectangle_6" x="105.873" y="74.252" width="9.66397" height="4.81448" transform="rotate(-167.307 105.873 74.252)" fill="white"/>
<rect id="Rectangle_7" x="74.0547" y="14.929" width="12.5818" height="3.35555" transform="rotate(-169.307 74.0547 14.929)" fill="#E50A3E"/>
<rect id="Rectangle_8" x="42.9199" y="16.0952" width="6.74611" height="3.35555" transform="rotate(-101.554 42.9199 16.0952)" fill="#FFB21D"/>
<rect id="Rectangle_9" x="59.1875" y="139.111" width="14.0408" height="3.35555" transform="rotate(88.4455 59.1875 139.111)" fill="white"/>
<rect id="Rectangle_10" x="69.7988" y="26.3655" width="8.20504" height="4.81448" transform="rotate(-136.554 69.7988 26.3655)" fill="#FFB21D"/>
<rect id="Rectangle_11" x="188.6" y="139.458" width="11.1229" height="1.89661" transform="rotate(173.693 188.6 139.458)" fill="#F2D1BB"/>
<rect id="Rectangle_12" x="35.7832" y="52.8035" width="3.82824" height="1.89661" transform="rotate(-66.5544 35.7832 52.8035)" fill="#FFB21D"/>
<ellipse id="Ellipse" cx="56.3173" cy="92.6086" rx="2.30511" ry="2.30511" transform="rotate(91.6925 56.3173 92.6086)" fill="#E50A3E"/>
<ellipse id="Ellipse_2" cx="152.221" cy="107.119" rx="0.846181" ry="0.846181" transform="rotate(91.6925 152.221 107.119)" fill="white"/>
<ellipse id="Ellipse_3" cx="147.716" cy="111.365" rx="2.30511" ry="2.30511" transform="rotate(91.6925 147.716 111.365)" fill="white"/>
<ellipse id="Ellipse_4" cx="102.836" cy="74.2791" rx="3.03458" ry="3.03458" transform="rotate(91.6925 102.836 74.2791)" fill="#FFB21D"/>
<ellipse id="Ellipse_5" cx="7.62782" cy="60.6196" rx="1.57565" ry="1.57565" transform="rotate(-9.55445 7.62782 60.6196)" fill="#E50A3E"/>
<ellipse id="Ellipse_6" cx="99.4513" cy="40.6089" rx="3.03458" ry="3.03458" transform="rotate(91.6925 99.4513 40.6089)" fill="#FFB21D"/>
<ellipse id="Ellipse_7" cx="145.384" cy="66.7788" rx="1.57565" ry="1.57565" transform="rotate(91.6925 145.384 66.7788)" fill="#E50A3E"/>
<ellipse id="Ellipse_8" cx="24.6298" cy="28.9108" rx="2.30511" ry="2.30511" transform="rotate(91.6925 24.6298 28.9108)" fill="white"/>
<path id="Polygon" d="M68.115 53.4832L69.6154 52.7003L71.0436 53.6083L70.9714 55.2991L69.471 56.082L68.0428 55.174L68.115 53.4832Z" fill="#F2D1BB"/>
<path id="Polygon_2" d="M42.9773 31.0417L42.22 33.3121L39.9496 32.5548L40.7069 30.2844L42.9773 31.0417Z" fill="#E50A3E"/>
<path id="Polygon_3" d="M29.0575 86.3414L35.7767 86.1591L32.575 92.0693L29.0575 86.3414Z" fill="#FFB21D"/>
<path id="Polygon_4" d="M164.789 103.2L167.507 102.353L169.152 104.676L167.451 106.959L164.754 106.046L164.789 103.2Z" fill="white"/>
<path id="Polygon_5" d="M101.572 14.2825L100.182 11.7018L103.112 11.7884L101.572 14.2825Z" fill="#F2D1BB"/>
<path id="Polygon_6" d="M69.3166 136.192L68.9193 133.832L71.2795 133.435L71.6768 135.795L69.3166 136.192Z" fill="white"/>
</g>
<g id="Group 31">
<g id="Group 29">
<path id="Vector 130" d="M129.328 109.823C132.252 103.17 139.308 89.3788 144.147 87.4433C150.196 85.0239 155.034 83.5117 157.151 81.3947C159.268 79.2778 161.99 78.068 163.502 79.5802C164.712 80.7899 158.764 85.3263 155.639 87.4433C155.942 88.0482 156.91 89.1974 158.361 88.9554C160.176 88.653 173.785 88.653 178.321 88.0482C182.858 87.4433 183.463 90.1651 183.463 90.77C183.463 91.3749 176.204 91.9797 172.575 92.5846C170.275 92.968 168.328 92.8703 167.218 92.7129C170.256 93.2783 176.272 94.4127 180.741 95.3064C186.789 96.5161 186.789 98.3307 186.487 99.238C186.245 99.9638 178.523 99.1372 174.692 98.6331C177.616 99.4396 183.463 101.415 183.463 102.867C183.463 104.319 169.954 101.456 163.2 99.8428C166.93 102.363 174.39 107.706 174.39 108.916C174.39 110.428 173.18 111.033 172.273 110.428C171.366 109.823 162.898 102.262 155.034 102.262C147.171 102.262 144.147 104.077 142.333 109.823C140.881 114.42 137.393 117.283 135.679 117.988L129.328 109.823Z" fill="#E5A072"/>
<path id="Vector 134" d="M155.641 87.4434C157.052 86.4353 160.238 83.9957 161.689 82.3021" stroke="black" stroke-width="1.42099" stroke-linecap="round"/>
<path id="Vector 131" d="M163.201 99.5405C168.947 101.153 180.802 104.198 182.254 103.472C184.069 102.565 183.464 102.262 178.323 99.8429C174.21 97.9074 167.939 96.4154 165.318 95.9114" stroke="black" stroke-width="1.42099" stroke-linecap="round"/>
<path id="Vector 123" d="M47.9757 80.185L52.5121 99.8428L44.044 107.706C41.8262 100.246 36.5438 84.6004 33.1566 81.6971C28.9226 78.068 25.8983 78.6728 18.3376 77.7656C10.7769 76.8583 9.56722 76.5559 9.86964 75.0437C10.1116 73.834 18.8417 73.5316 23.1765 73.5316C17.0271 71.5154 4.6074 67.0596 4.12352 65.366C3.63963 63.6724 5.73649 63.6523 6.84541 63.8539C4.72841 62.9466 0.191998 62.3418 3.82113 59.9223C6.72444 57.9868 16.9263 62.3418 21.6644 64.7612C20.2531 63.4507 16.4022 60.0433 12.2892 56.8981C7.1479 52.9665 10.4746 53.2689 13.1964 54.1762C15.9183 55.0835 34.064 67.483 36.181 67.483C38.2979 67.483 37.6931 67.7855 34.9713 62.6442C32.2494 57.5029 33.7616 55.6883 36.4834 57.2005C38.6609 58.4102 39.8101 61.9385 40.1126 63.5515C41.3223 64.862 44.3465 68.3903 46.766 72.0194C49.1854 75.6486 48.5805 78.9753 47.9757 80.185Z" fill="#E5A072"/>
<path id="Vector 125" d="M2.61133 62.3418C7.14774 63.5515 17.6117 66.4548 23.1764 68.3903" stroke="#232323" stroke-width="1.42099" stroke-linecap="round"/>
<path id="Vector 122" d="M50.3944 91.6772C49.5879 87.2416 49.0032 77.3422 53.1162 73.2292C57.1772 69.1682 73.562 66.542 81.5443 65.6999C91.3228 61.6571 113.602 56.1722 124.489 66.5758C135.376 76.9793 140.518 85.8303 141.727 88.9554L131.747 108.311L139.913 113.452L142.332 109.52C145.719 111.456 147.574 114.964 148.078 116.476L139.006 127.061C142.151 134.32 137.493 138.554 134.772 139.763C132.755 142.384 127.695 148.715 123.582 153.07C119.469 157.425 112.795 156.094 109.973 154.885C104.408 159.24 96.9681 160.933 93.9439 161.236C68.056 165.349 55.5355 155.086 52.5113 149.441C51.0596 147.989 51.5032 144.804 51.9064 143.392C44.6481 135.166 43.8417 124.843 44.3457 120.71C42.8336 119.299 38.8416 114.964 34.9705 108.916C31.0994 102.867 36.7851 96.9193 40.1118 94.7015L43.1361 104.984C51.604 99.6613 51.5033 93.895 50.3944 91.6772Z" fill="#FFD43A"/>
<path id="Vector 135" d="M121.466 101.053C117.03 109.117 108.159 126.457 108.159 131.295C104.228 138.352 99.5702 153.131 112.393 155.792C115.921 157.203 125.216 156.094 134.168 140.368" stroke="black" stroke-width="1.42099" stroke-linecap="round"/>
<path id="Intersect" d="M75.502 66.4773C79.1501 76.7766 88.5947 90.6783 105.739 86.2335C117.128 83.2808 121.919 74.5329 123.459 65.6651C112.251 56.5065 91.024 61.7808 81.5447 65.6999C79.8448 65.8793 77.7638 66.1395 75.502 66.4773Z" fill="#F2D1BB"/>
<path id="Vector 129" d="M73.3809 80.7899C73.3809 85.4271 74.8325 96.5162 80.6391 103.774" stroke="#232323" stroke-width="1.42099" stroke-linecap="round"/>
<path id="Vector 128" d="M44.3468 120.71C44.0444 129.178 46.9477 146.356 60.9803 147.324C75.013 148.292 75.2953 134.219 73.6823 127.061C73.5815 114.259 71.1419 85.8102 62.1901 74.439" stroke="#232323" stroke-width="1.42099" stroke-linecap="round"/>
<path id="Vector 118" d="M84.5697 48.4302C84.0656 49.4383 83.2995 51.8174 84.2673 53.269" stroke="#232323" stroke-width="1.42099" stroke-linecap="round"/>
<path id="Vector 119" d="M102.11 49.3376C102.614 50.3457 103.38 52.7248 102.412 54.1765" stroke="#232323" stroke-width="1.42099" stroke-linecap="round"/>
<path id="Vector 121" d="M93.037 82.3021C86.5046 79.1568 80.8391 68.2896 78.8229 63.2491C72.5325 47.5229 78.8229 25.4457 82.7545 16.3729C85.7788 15.0624 94.7306 13.1671 106.344 16.0705C117.957 18.9738 117.03 59.2168 115.114 78.9754C110.477 81.3948 99.5695 85.4473 93.037 82.3021Z" fill="#E5A072"/>
<ellipse id="Ellipse 10" opacity="0.3" cx="84.066" cy="43.5788" rx="3.18671" ry="1.50722" transform="rotate(4.89398 84.066 43.5788)" fill="#E50A3E"/>
<ellipse id="Ellipse 11" opacity="0.3" cx="101.785" cy="44.4577" rx="3.18671" ry="1.50722" transform="rotate(4.89398 101.785 44.4577)" fill="#E50A3E"/>
<path id="Intersect_2" d="M108.835 81.5943C105.291 82.772 101.154 83.6709 97.4923 83.4033C99.9316 79.725 102.301 74.2821 103.925 66.2734C99.9932 69.1968 90.9204 70.2654 83.6621 58.4102C84.2604 58.9625 84.8307 59.5078 85.3836 60.0364C88.4641 62.9818 91.0058 65.4121 94.8519 65.6685C101.552 66.1152 106.344 60.2248 111.183 50.5471L108.835 81.5943Z" fill="#BE693B"/>
<path id="Vector" d="M99.9385 56.0927C98.347 57.6554 95.64 58.7066 92.5537 58.3356C90.0326 58.0333 88.2092 57.2715 87.0008 56.3076C85.0703 54.7685 84.7013 52.717 85.5407 51.1847C86.1323 50.1049 87.1548 49.8497 88.2749 49.8772C89.0937 49.8919 89.9688 50.0618 90.765 50.1668C92.3049 50.3661 94.9179 47.9994 97.9564 48.9653C98.6315 49.1803 99.3281 49.5602 100.038 50.1668C102.104 51.9356 101.722 54.3366 99.9375 56.0927H99.9385Z" fill="#232323"/>
<path id="Intersect_3" d="M92.5519 58.3355C95.6382 58.7065 98.3451 57.6553 99.9367 56.0926C100.108 55.9241 100.266 55.7497 100.41 55.5705C98.6145 54.6105 96.0428 54.0701 93.2145 54.1937C90.6051 54.3099 88.2664 54.97 86.584 55.9465C86.7133 56.0695 86.8515 56.19 86.9989 56.3075C88.2074 57.2715 90.0309 58.0332 92.5519 58.3355Z" fill="#E50A3E"/>
<path id="Intersect_4" d="M87.3545 52.4453C88.9272 52.8013 94.0183 53.7043 98.6869 51.7564V51.7575C98.92 51.6599 99.0524 51.4081 99.0109 51.1562L98.7009 49.2686C98.4499 49.1437 98.2012 49.0436 97.9555 48.9653C96.0695 48.3657 94.3472 49.0503 92.9438 49.6081C92.0865 49.9489 91.3482 50.2424 90.7643 50.1668C90.5529 50.1389 90.336 50.1065 90.1161 50.0736C89.5074 49.9825 88.8755 49.888 88.2742 49.8772C87.8998 49.868 87.5364 49.8904 87.1962 49.9646L86.9353 51.8274C86.8949 52.1125 87.0765 52.382 87.3545 52.4453Z" fill="white"/>
<path id="Vector 114" d="M93.0384 33.9138C92.6352 36.434 91.4053 41.8979 89.7117 43.5915C87.5947 45.7085 90.9214 47.8255 93.3408 47.2206" stroke="#232323" stroke-width="1.77624" stroke-linecap="round"/>
<path id="Vector 112" d="M107.488 30.0093L107.663 30.2549C108.101 30.8674 107.623 31.72 106.871 31.6964C102.3 31.5534 99.1748 32.1952 97.6533 32.7263C97.248 32.8678 96.754 32.742 96.7409 32.313C96.7259 31.8232 96.9733 31.1895 97.8769 30.587C99.2447 29.6752 104.479 29.4972 106.85 29.6483C107.106 29.6647 107.338 29.7999 107.488 30.0093Z" fill="#232323"/>
<path id="Vector 113" d="M80.5923 28.6579L80.4015 28.8917C79.9254 29.4748 80.3466 30.3563 81.099 30.3813C85.6697 30.5329 88.7472 31.3746 90.2313 32.0026C90.6266 32.1698 91.1277 32.0762 91.1684 31.6489C91.2149 31.161 91.0089 30.5127 90.1459 29.8533C88.8397 28.8553 83.6281 28.3407 81.2521 28.3388C80.9949 28.3386 80.755 28.4587 80.5923 28.6579Z" fill="#232323"/>
<g id="Mask group">
<mask id="mask1_372_4980" style="mask-type:alpha" maskUnits="userSpaceOnUse" x="97" y="30" width="14" height="10">
<path id="Vector 115" d="M109.183 38.9221C106.877 39.3833 101.365 38.6905 98.4094 38.1008C98.1448 38.048 97.9202 37.876 97.8161 37.6271C96.9916 35.6566 96.4969 31.8867 101.018 30.7566C107.066 29.2444 112.207 38.3172 109.183 38.9221Z" fill="#232323"/>
</mask>
<g mask="url(#mask1_372_4980)">
<g id="Group 27">
<ellipse id="Ellipse 26" cx="102.413" cy="36.333" rx="3.3267" ry="3.3267" fill="white"/>
<ellipse id="Ellipse 28" cx="103.017" cy="36.3331" rx="2.11699" ry="2.11699" fill="#232323"/>
</g>
</g>
</g>
<g id="Mask group_2">
<mask id="mask2_372_4980" style="mask-type:alpha" maskUnits="userSpaceOnUse" x="80" y="29" width="14" height="10">
<path id="Vector 115_2" d="M92.8511 38.3171C90.5449 38.7784 85.0328 38.0855 82.0774 37.4958C81.8128 37.443 81.5882 37.271 81.484 37.0221C80.6596 35.0516 80.1648 31.2818 84.6856 30.1516C90.7341 28.6394 95.8754 37.7123 92.8511 38.3171Z" fill="#232323"/>
</mask>
<g mask="url(#mask2_372_4980)">
<g id="Group 27_2">
<ellipse id="Ellipse 26_2" cx="86.0806" cy="35.7281" rx="3.3267" ry="3.3267" fill="white"/>
<ellipse id="Ellipse 28_2" cx="86.6854" cy="35.7281" rx="2.11699" ry="2.11699" fill="#232323"/>
</g>
</g>
</g>
<path id="Vector 116" d="M99.0859 38.4502C100.396 38.551 103.441 38.8736 105.134 39.3575" stroke="#232323" stroke-width="1.42099" stroke-linecap="round"/>
<path id="Vector 117" d="M82.7559 37.8452C84.0664 37.946 87.1108 38.2686 88.8044 38.7525" stroke="#232323" stroke-width="1.42099" stroke-linecap="round"/>
<path id="Vector 120" d="M91.6889 16.5967C87.76 15.8947 79.7209 18.0409 78.9955 32.2415C78.0889 49.9924 79.6 53.6027 85.04 60.5225L84.7378 64.4337C79.7007 65.3363 68.9013 67.2016 66 67.4423C68.4178 61.4251 73.3742 47.4049 73.8578 39.4622C74.4622 29.5338 74.7644 5.16399 96.2222 2.15538C100.756 0.651068 111.575 0.771413 118.587 13.2873C127.351 28.9321 131.582 76.1673 131.884 81.282C132.187 86.3966 132.489 97.8294 134 99.3337L130.676 96.0242C128.761 99.7348 123.604 108.42 118.284 113.474C112.965 118.529 106.196 121.597 103.476 122.5C104.483 121.898 106.558 120.454 106.8 119.491C107.102 118.288 100.756 119.191 99.5467 109.864C98.8893 104.792 100.15 101.565 101.562 99.7654C98.9414 102.574 96.2211 108.027 98.3378 115.881C97.3304 115.179 95.6782 111.428 97.1289 102.041C98.9422 90.3078 106.498 84.8923 108.916 67.7432C111.333 50.5941 109.822 28.6312 102.871 22.0122C95.92 15.3933 92.2933 16.6782 91.6889 16.5967Z" fill="#232323" stroke="#232323" stroke-width="1.77624" stroke-linecap="round"/>
<path id="Vector 126" d="M9.86914 55.0835C14.0023 58.4102 22.9945 65.3055 25.8978 66.2733" stroke="#232323" stroke-width="1.42099" stroke-linecap="round"/>
<path id="Vector 127" d="M34.6699 56.8983C35.3756 56.7975 37.1498 57.2612 38.6015 59.9225C40.0531 62.5839 40.6177 64.0557 40.7185 64.459C43.8436 67.4832 49.6703 74.8625 47.9767 80.1852L48.2792 81.3949C47.7751 84.1167 45.2549 88.2902 39.2063 83.2095" stroke="#232323" stroke-width="1.42099" stroke-linecap="round"/>
<g id="Vector_2">
<path d="M34.3631 107.804C31.7883 102.151 36.9892 96.7834 40.1118 94.7017L43.1361 104.984C43.2337 104.923 43.3302 104.861 43.4255 104.8L43.4384 104.984C42.4309 106.379 39.4333 108.382 34.3631 107.804Z" fill="#DE8845"/>
<path d="M133.431 105.045L131.747 108.311L139.913 113.452L142.332 109.521C145.719 111.456 147.574 114.964 148.078 116.476L147.205 117.496C143.24 115.267 130.761 108.823 130.235 106.194C129.818 104.107 131.769 104.573 133.431 105.045Z" fill="#DE8845"/>
</g>
<path id="Vector 133" d="M142.031 110.428C142.434 108.412 144.209 104.077 148.08 102.867C151.951 101.657 156.346 102.363 158.06 102.867" stroke="black" stroke-width="1.42099" stroke-linecap="round"/>
<path id="Vector 132" d="M186.941 98.9357C186.941 97.4236 183.916 95.9114 178.473 94.7017C174.118 93.7339 168.997 92.8871 166.98 92.5847" stroke="black" stroke-width="1.42099" stroke-linecap="round"/>
<path id="Vector 124" d="M43.4403 104.984C41.2225 98.3307 36.3635 84.661 34.6699 83.2094" stroke="#232323" stroke-width="1.42099" stroke-linecap="round"/>
</g>
</g>
<g id="Group 34">
<path id="Union" fill-rule="evenodd" clip-rule="evenodd" d="M110.536 73.4862C110.03 70.8773 107.504 69.1727 104.896 69.6788L67.2923 76.9738C64.6835 77.4799 62.9788 80.0051 63.485 82.614L73.2567 132.984C73.2567 132.984 73.2567 132.984 73.2566 132.984C73.2565 132.984 73.2565 132.984 73.2566 132.984L75.0013 134.993C75.7768 135.885 77.2279 135.604 77.6133 134.486L78.4798 131.972C78.4802 131.971 78.4811 131.97 78.4823 131.97C78.4834 131.97 78.4846 131.97 78.4854 131.971L79.3565 132.974C80.5197 134.313 82.6963 133.891 83.2744 132.214C83.5427 131.436 84.2058 130.86 85.014 130.703L92.8622 129.18C93.6703 129.024 94.5008 129.31 95.0406 129.931C96.2038 131.271 98.3805 130.848 98.9586 129.171L99.3916 127.915C99.392 127.914 99.3929 127.913 99.394 127.913C99.3952 127.913 99.3963 127.913 99.3971 127.914L100.268 128.917C101.431 130.256 103.608 129.834 104.186 128.157L104.619 126.901C104.62 126.9 104.62 126.899 104.622 126.899C104.623 126.899 104.624 126.899 104.625 126.9L105.496 127.903C106.659 129.242 108.836 128.82 109.414 127.143C109.682 126.365 110.345 125.789 111.153 125.632L113.774 125.124C114.582 124.967 115.413 125.253 115.953 125.875C117.115 127.214 119.292 126.792 119.87 125.116L120.303 123.858C120.304 123.857 120.304 123.857 120.305 123.856C120.307 123.856 120.307 123.855 120.307 123.854L110.536 73.4862ZM86.325 130.449C85.1641 130.674 84.6823 132.071 85.4578 132.964C86.2333 133.857 87.6844 133.575 88.0698 132.457C88.4552 131.339 87.4859 130.224 86.325 130.449ZM91.5526 129.435C90.3917 129.66 89.9099 131.057 90.6854 131.95C91.4609 132.843 92.912 132.561 93.2974 131.443C93.6828 130.325 92.7135 129.209 91.5526 129.435ZM114.209 127.386C113.824 128.504 112.373 128.786 111.597 127.893C110.822 127 111.303 125.603 112.464 125.378C113.625 125.153 114.595 126.268 114.209 127.386Z" fill="white"/>
<rect id="Rectangle 6" opacity="0.5" x="67.125" y="82.0138" width="40.5545" height="3.27713" rx="1.63857" transform="rotate(-10.979 67.125 82.0138)" fill="#D9D9D9"/>
<rect id="Rectangle 8" opacity="0.5" x="73.209" y="113.381" width="40.5545" height="3.27713" rx="1.63857" transform="rotate(-10.979 73.209 113.381)" fill="#D9D9D9"/>
<rect id="Rectangle 10" opacity="0.5" x="75.082" y="123.032" width="40.5545" height="3.27713" rx="1.63857" transform="rotate(-10.979 75.082 123.032)" fill="#D9D9D9"/>
<rect id="Rectangle 7" opacity="0.5" x="68.0605" y="86.8395" width="40.5545" height="3.27713" rx="1.63857" transform="rotate(-10.979 68.0605 86.8395)" fill="#D9D9D9"/>
<rect id="Rectangle 9" opacity="0.5" x="74.1445" y="118.207" width="40.5545" height="3.27713" rx="1.63857" transform="rotate(-10.979 74.1445 118.207)" fill="#D9D9D9"/>
<g id="Group 28">
<path id="Union_2" fill-rule="evenodd" clip-rule="evenodd" d="M98.7326 93.6677C99.5213 92.4985 99.2128 90.9073 98.0444 90.118C96.876 89.3287 95.2858 89.6374 94.4971 90.8066L89.0221 98.9229L85.8419 96.7747C84.6723 95.9846 83.0842 96.2929 82.2946 97.4633C81.5051 98.6337 81.8132 100.223 82.9828 101.013L88.2781 104.59C88.8234 104.958 89.4596 105.088 90.0635 105.003C90.7567 104.906 91.4077 104.526 91.83 103.9L98.7326 93.6677Z" fill="#23BA3B"/>
</g>
</g>
<rect id="Rectangle_13" width="9.65879" height="4.81374" transform="matrix(0.881896 -0.471444 0.470938 0.882166 131.236 20.5232)" fill="#FFB21D"/>
</g>
</g>
</svg>
