<svg width="24" height="25" viewBox="0 0 24 25" fill="none" xmlns="http://www.w3.org/2000/svg">
<path d="M18.7188 15.8438C18.125 15.1875 16.9688 14.2188 16.9688 11C16.9688 8.59375 15.2812 6.65625 12.9688 6.15625V5.5C12.9688 4.96875 12.5312 4.5 12 4.5C11.4375 4.5 11 4.96875 11 5.5V6.15625C8.6875 6.65625 7 8.59375 7 11C7 14.2188 5.84375 15.1875 5.25 15.8438C5.0625 16.0312 4.96875 16.2812 5 16.5C5 17.0312 5.375 17.5 6 17.5H17.9688C18.5938 17.5 18.9688 17.0312 19 16.5C19 16.2812 18.9062 16.0312 18.7188 15.8438ZM7.09375 16C7.75 15.1562 8.46875 13.6875 8.5 11.0312C8.5 11.0312 8.5 11.0312 8.5 11C8.5 9.09375 10.0625 7.5 12 7.5C13.9062 7.5 15.5 9.09375 15.5 11C15.5 11.0312 15.4688 11.0312 15.4688 11.0312C15.5 13.6875 16.2188 15.1562 16.875 16H7.09375ZM12 20.5C13.0938 20.5 13.9688 19.625 13.9688 18.5H10C10 19.625 10.875 20.5 12 20.5Z" fill="#333333"/>
</svg>
