<svg width="24" height="24" viewBox="0 0 24 24" fill="none" xmlns="http://www.w3.org/2000/svg">
<path d="M6.4375 18.5L5.53125 9.5H13.5C13.75 9.5 14 9.28125 14 9V8.5C14 8.25 13.75 8 13.5 8H9.4375L10.0625 5.5H11.5C11.75 5.5 12 5.28125 12 5V4.5C12 4.25 11.75 4 11.5 4H9.875C9.28125 4 8.8125 4.40625 8.65625 4.96875L7.90625 8H3.5C3.21875 8 3 8.25 3 8.5V9C3 9.28125 3.21875 9.5 3.5 9.5H4.03125L5 19.0938C5.03125 19.5938 5.4375 20 5.96875 20C5.96875 20 5.96875 20 6 20H11C11.0938 20 11.1875 20 11.3125 19.9688C10.9062 19.5625 10.5938 19.0625 10.4375 18.5H6.4375ZM19.5 13.75C19.75 13.75 20 13.5312 20 13.25C20 13 19.75 12.75 19.5 12.75C19.2188 12.75 19 13 19 13.25C19 13.5312 19.2188 13.75 19.5 13.75ZM17 13.25C17.25 13.25 17.5 13.0312 17.5 12.75C17.5 12.5 17.25 12.25 17 12.25C16.7188 12.25 16.5 12.5 16.5 12.75C16.5 13.0312 16.7188 13.25 17 13.25ZM23 15.75C23 15.375 22.7812 15.0312 22.5 14.7812C22.6562 14.4688 22.7188 14.125 22.7188 13.75C22.7188 13.2812 22.5938 12.8438 22.3125 12.4688C21.2812 10.9688 19.1875 10.0312 17 10C14.7812 10.0312 12.6875 10.9688 11.6562 12.4688C11.375 12.8438 11.25 13.2812 11.25 13.75C11.25 14.125 11.3125 14.4688 11.5 14.7812C11.1875 15.0312 11 15.375 11 15.75C11 16.125 11.125 16.4375 11.375 16.6562C11.2812 16.9062 11.25 17.125 11.25 17.375C11.25 18.8438 12.4062 20 13.875 20H20.125C21.5625 20 22.7188 18.8438 22.75 17.375C22.75 17.125 22.6875 16.9062 22.5938 16.6562C22.8438 16.4375 22.9688 16.125 23 15.75ZM12.875 13.3438C13.5938 12.3125 15.1562 11.5312 17 11.5C18.8125 11.5 20.375 12.3125 21.0938 13.3438C21.1875 13.4375 21.2188 13.5938 21.2188 13.75C21.2188 14.1875 20.9062 14.5 20.4688 14.5H13.5C13.0625 14.5 12.75 14.1875 12.75 13.75C12.75 13.5938 12.7812 13.4375 12.875 13.3438ZM20.125 18.5H13.875C13.25 18.5 12.75 18 12.75 17.375C12.75 17.1875 12.9062 17 13.125 17H20.875C21.0625 17 21.25 17.1875 21.25 17.375C21.25 18 20.7188 18.5 20.125 18.5ZM14.5 13.75C14.75 13.75 15 13.5312 15 13.25C15 13 14.75 12.75 14.5 12.75C14.2188 12.75 14 13 14 13.25C14 13.5312 14.2188 13.75 14.5 13.75Z" fill="#3E7BFA"/>
</svg>
