<svg width="24" height="24" viewBox="0 0 24 24" fill="none" xmlns="http://www.w3.org/2000/svg">
<path d="M7 11V9C7 8.46875 6.53125 8 6 8C5.4375 8 5 8.46875 5 9V11C5 11.5625 5.4375 12 6 12C6.53125 12 7 11.5625 7 11ZM18 8C17.4375 8 17 8.46875 17 9V11C17 11.5625 17.4375 12 18 12C18.5312 12 19 11.5625 19 11V9C19 8.46875 18.5312 8 18 8ZM17.5625 13.2188C17.3438 12.5312 16.7188 12.0625 16 12.0312V6C16 4.90625 15.0938 4 14 4H10C8.875 4 8 4.90625 8 6V12.0312C7.25 12.0625 6.625 12.5312 6.40625 13.2188L6.0625 14.2188C5.90625 14.75 6 15.3438 6.3125 15.7812C6.65625 16.25 7.1875 16.5 7.75 16.5H11.25V18.0938C10.25 18.2188 9.4375 18.6875 9.0625 19.2812C8.84375 19.5938 9.125 20 9.53125 20H14.4375C14.8438 20 15.125 19.5938 14.9062 19.2812C14.5312 18.6875 13.7188 18.2188 12.75 18.0938V16.5H16.25C16.7812 16.5 17.3125 16.25 17.6562 15.7812C17.9688 15.3438 18.0625 14.75 17.9062 14.2188L17.5625 13.2188ZM9.5 6C9.5 5.75 9.71875 5.5 10 5.5H14C14.25 5.5 14.5 5.75 14.5 6V12H9.5V6ZM16.25 15H7.75C7.5625 15 7.4375 14.8438 7.5 14.6875L7.84375 13.6875C7.875 13.5938 7.96875 13.5 8.0625 13.5H15.9062C16 13.5 16.0938 13.5938 16.125 13.6875L16.4688 14.6875C16.5312 14.8438 16.4062 15 16.25 15Z" fill="#3E7BFA"/>
</svg>
