<svg width="24" height="25" viewBox="0 0 24 25" fill="none" xmlns="http://www.w3.org/2000/svg">
<path d="M13.4688 12.5077L16.8438 9.16391C17.0312 8.97641 17.0312 8.63266 16.8438 8.44516L16.0625 7.66391C15.875 7.47641 15.5312 7.47641 15.3438 7.66391L12 11.0389L8.625 7.66391C8.4375 7.47641 8.09375 7.47641 7.90625 7.66391L7.125 8.44516C6.9375 8.63266 6.9375 8.97641 7.125 9.16391L10.5 12.5077L7.125 15.8827C6.9375 16.0702 6.9375 16.4139 7.125 16.6014L7.90625 17.3827C8.09375 17.5702 8.4375 17.5702 8.625 17.3827L12 14.0077L15.3438 17.3827C15.5312 17.5702 15.875 17.5702 16.0625 17.3827L16.8438 16.6014C17.0312 16.4139 17.0312 16.0702 16.8438 15.8827L13.4688 12.5077Z" fill="#333333"/>
</svg>
