<svg width="190" height="139" viewBox="0 0 190 139" fill="none" xmlns="http://www.w3.org/2000/svg">
<path d="M182.625 77.5193C182.625 44.3608 155.745 17.4805 122.586 17.4805H67.0408C33.8822 17.4805 7.00195 44.3608 7.00195 77.5193C7.00195 110.678 33.8822 137.558 67.0408 137.558H122.586C155.745 137.558 182.625 110.678 182.625 77.5193Z" fill="#3E7BFA"/>
<mask id="mask0_1642_18355" style="mask-type:alpha" maskUnits="userSpaceOnUse" x="0" y="0" width="190" height="139">
<path d="M189.051 69.0369C189.051 30.9089 158.142 0 120.014 0H69.9876C31.8596 0 0.950775 30.9089 0.950775 69.0369C0.950775 107.165 31.8596 138.074 69.9876 138.074H120.014C158.142 138.074 189.051 107.165 189.051 69.0369Z" fill="#23BA3B"/>
</mask>
<g mask="url(#mask0_1642_18355)">
<path d="M50.8447 102.379L72.7687 94.0866C74.1633 93.5591 75.6112 93.1852 77.0867 92.9715L104.086 89.0618C107.822 88.5207 111.636 89.0212 115.106 90.5082L150.354 105.611C155.38 107.764 159.338 111.834 161.35 116.917L179.177 161.945C183.66 173.268 175.103 185.485 162.93 185.142L154.349 184.9C153.345 184.872 152.439 184.291 151.994 183.39L151.659 182.71C150.543 180.447 147.157 181.079 146.932 183.592C146.817 184.88 145.738 185.866 144.445 185.866H44.9723C31.4031 185.866 21.5714 172.93 25.2045 159.856L27.9573 149.95L38.4851 115.563C40.3435 109.493 44.907 104.625 50.8447 102.379Z" fill="#FBF3E7"/>
<path d="M129.444 96.6504L109.801 88.2344L74.8688 93.293L64.9219 97.0553C77.9309 111.838 101.554 123.93 129.444 96.6504Z" fill="#AEAEAE"/>
<path d="M78.8598 89.7526C79.6583 88.1338 78.5271 81.6588 77.8617 78.6236C72.2725 72.9579 68.2137 59.0635 66.8829 52.8245L62.8906 35.1193L72.8714 21.9668L92.8329 21.4609C98.9876 27.5313 112.195 40.0767 115.789 41.6955C120.28 43.719 120.28 49.2835 118.783 54.848C117.585 59.2996 114.291 61.087 112.794 61.4242L110.798 69.518C111.297 75.2511 112.495 87.0209 113.293 88.235C114.092 89.4491 119.282 92.4505 121.777 93.7995C99.0209 115.653 79.0262 103.242 71.8733 94.3054C73.8694 93.4622 78.0614 91.3713 78.8598 89.7526Z" fill="#E5A072"/>
<path d="M110.803 69.5742C111.305 75.328 112.498 87.0241 113.293 88.2341C114.092 89.4482 119.282 92.4497 121.777 93.7986C119.161 96.3108 116.582 98.3703 114.054 100.034C101.262 95.1254 86.1848 88.392 78.5338 82.1313C78.4129 81.4054 78.2847 80.7046 78.1602 80.067C83.1916 82.536 90.7814 84.0259 97.8233 82.1638C103.996 80.5314 107.959 74.9208 110.803 69.5742Z" fill="#BE693B"/>
<path d="M113.789 48.2715C115.12 49.1146 117.282 51.4078 115.286 53.836" stroke="#232323" stroke-width="2.93098" stroke-linecap="round"/>
<path d="M66.3828 49.2832C68.7117 60.4122 73.8684 82.4679 87.8414 83.682" stroke="#232323" stroke-width="2.93098" stroke-linecap="round"/>
<path d="M67.8791 49.7887V55.8591C59.8945 41.6949 59.8945 34.4442 60.8926 32.5893L59.8945 31.0717C67.4799 6.79028 89.005 9.15098 98.8194 13.3665C112.792 13.7712 116.618 32.758 116.785 42.2008C113.192 40.582 111.295 45.2359 110.796 47.7653C110.397 42.909 102.978 33.6011 99.3185 29.5542L89.3377 26.0131C82.95 35.321 72.7031 36.9735 68.3781 36.6363C64.7851 39.0644 66.5483 46.4163 67.8791 49.7887Z" fill="#232323"/>
<path d="M82.3536 48.7773C82.6863 52.3184 83.1521 59.8052 82.3536 61.4239C81.3555 63.4474 84.8488 64.4591 87.843 63.4474" stroke="#232323" stroke-width="2.34478" stroke-linecap="round"/>
<path d="M71.0123 42.9743C75.5978 39.8681 77.6024 41.447 78.3142 42.5588C78.5674 42.9542 78.3271 43.4113 77.8887 43.5825L76.3511 44.1831C73.4586 45.3129 70.8056 46.9838 68.5342 49.1061C68.2394 49.3815 67.7676 49.3747 67.5734 49.0226C66.9029 47.8072 67.0004 45.692 71.0123 42.9743Z" fill="#232323"/>
<path d="M91.3462 37.5563C94.2312 37.5199 96.5047 38.3401 98.2332 39.3675C99.4993 40.12 98.5677 41.795 97.1114 41.5933C90.4878 40.6758 85.7524 42.0583 85.0326 41.5052C84.1434 40.8219 83.713 37.6524 91.3462 37.5563Z" fill="#232323"/>
<mask id="mask1_1642_18355" style="mask-type:alpha" maskUnits="userSpaceOnUse" x="68" y="48" width="15" height="10">
<path d="M79.8597 48.7773C73.1598 48.7773 69.6005 51.6715 68.2877 53.6253C68.0019 54.0506 68.0592 54.6123 68.3839 55.0087C75.5319 63.7356 89.1201 48.7773 79.8597 48.7773Z" fill="black"/>
</mask>
<g mask="url(#mask1_1642_18355)">
<ellipse cx="4.49832" cy="4.54586" rx="4.49832" ry="4.54586" transform="matrix(0.940343 -0.340228 0.332533 0.943092 69.3828 49.3105)" fill="white"/>
<ellipse cx="74.3731" cy="53.3301" rx="2.99422" ry="3.03518" fill="#232323"/>
</g>
<mask id="mask2_1642_18355" style="mask-type:alpha" maskUnits="userSpaceOnUse" x="86" y="44" width="16" height="10">
<path d="M98.3206 44.2715C91.6208 44.2715 88.0614 47.1656 86.7486 49.1194C86.4628 49.5448 86.5201 50.1064 86.8448 50.5028C93.9928 59.2297 107.581 44.2715 98.3206 44.2715Z" fill="black"/>
</mask>
<g mask="url(#mask2_1642_18355)">
<ellipse cx="4.49832" cy="4.54586" rx="4.49832" ry="4.54586" transform="matrix(0.940343 -0.340228 0.332533 0.943092 87.8438 44.8047)" fill="white"/>
<ellipse cx="92.8341" cy="48.8242" rx="2.99422" ry="3.03518" fill="#232323"/>
</g>
<path d="M122.624 32.5095L128.564 23.5267" stroke="white" stroke-width="2.49084" stroke-linecap="round"/>
<path d="M125.761 36.7949L134.434 30.4793" stroke="white" stroke-width="2.49084" stroke-linecap="round"/>
<path d="M128.618 41.5597L139.136 39.5982" stroke="white" stroke-width="2.49084" stroke-linecap="round"/>
<path d="M69.375 51.8116C70.8721 50.6312 75.064 48.3717 79.8548 48.7764" stroke="#232323" stroke-width="2.34478" stroke-linecap="round"/>
<path d="M87.8438 47.3077C89.3409 46.1273 93.5328 43.8678 98.3235 44.2725" stroke="#232323" stroke-width="2.34478" stroke-linecap="round"/>
<ellipse opacity="0.3" cx="4.54064" cy="1.84628" rx="4.54064" ry="1.84628" transform="matrix(0.978368 -0.206873 0.201555 0.979477 91.3359 57.2324)" fill="#E50A3E"/>
<ellipse opacity="0.3" cx="4.54064" cy="1.84628" rx="4.54064" ry="1.84628" transform="matrix(0.978368 -0.206873 0.201555 0.979477 71.375 61.2793)" fill="#E50A3E"/>
<ellipse cx="5.40776" cy="1.70291" rx="5.40776" ry="1.70291" transform="matrix(0.987843 -0.155455 0.151385 0.988475 87.3438 70.1875)" fill="#232323"/>
<path d="M58.6315 136.622L45.5313 108.921C45.1217 108.055 44.2974 107.464 43.3482 107.355L32.1858 106.08C30.5143 105.889 29.0482 107.223 29.0695 108.916L29.5439 146.734C29.568 148.661 31.4758 149.975 33.2772 149.305L57.0655 140.464C58.6085 139.891 59.3347 138.109 58.6315 136.622Z" fill="#FBF3E7"/>
<path d="M30.7551 67.0979C30.5646 68.811 36.8444 76.4681 40.0082 80.0824L41.4778 81.4863C42.4256 82.3918 43.8779 82.5047 44.9638 81.7575L65.1208 67.8866C66.3942 67.0104 66.7266 65.2663 65.8631 63.992L57.0186 50.9392C56.1654 49.6801 54.4644 49.3458 53.1975 50.1985C44.6103 55.9775 30.9291 65.5327 30.7551 67.0979Z" fill="#E50A3E"/>
<path d="M30.8281 79.9012C20.5093 84.9679 20.6767 91.0303 22.0503 93.4281C19.7175 95.9374 22.308 98.8068 23.8949 99.9278C25.5312 104.452 32.0172 115.386 37.2539 114.466C41.4433 113.73 44.9206 110.932 46.1356 109.625L44.6183 104.03C47.6535 96.7436 45.3081 88.2059 43.7561 84.848C44.971 83.541 47.3504 80.2274 47.1482 77.4285C46.8954 73.9298 43.7266 73.5678 30.8281 79.9012Z" fill="#E5A072"/>
<path d="M41.9119 78.3492C41.3883 76.9014 43.7468 75.9564 44.9915 75.6649C45.8048 76.047 47.2855 76.968 46.7023 77.5953C45.9733 78.3794 42.5664 80.1588 41.9119 78.3492Z" fill="#EFC6AA"/>
<path d="M41.1065 81.7258L39.5144 78.7246" stroke="#232323" stroke-width="2.23356" stroke-linecap="round"/>
<path d="M46.3008 79.2832C42.0558 81.5451 32.6971 86.1866 26.3058 89.7937" stroke="#232323" stroke-width="2.23356" stroke-linecap="round"/>
<path d="M33.8472 100.848C36.2126 99.4554 41.3512 97.2377 42.9816 99.5058C45.0197 102.341 43.5617 103.909 39.7085 105.855" stroke="#232323" stroke-width="2.23356" stroke-linecap="round"/>
<path d="M32.0062 94.3478C33.9105 92.6136 39.6769 89.2388 42.1524 91.6035C44.6278 93.9681 44.1457 98.0479 43.5952 99.7922" stroke="#232323" stroke-width="2.23356" stroke-linecap="round"/>
<path d="M36.9708 84.2896C39.2866 84.6265 44.0521 86.7902 42.1477 91.6039" stroke="#232323" stroke-width="2.23356" stroke-linecap="round"/>
<rect width="24.7754" height="3.27563" rx="1.63782" transform="matrix(-0.821359 0.574155 0.561289 0.825074 53.5039 52.998)" fill="#F2D1BB"/>
<rect width="24.7754" height="2.23525" rx="1.11762" transform="matrix(-0.821359 0.574155 0.561289 0.825074 55.8398 56.2363)" fill="#F2D1BB"/>
<path d="M45.543 109.309C49.5969 121.637 60.218 147.361 70.2716 151.635" stroke="#232323" stroke-width="2.14286" stroke-linecap="round"/>
<path d="M150.718 137.766L155.98 107.503C156.144 106.559 156.781 105.767 157.666 105.403L168.069 101.133C169.632 100.491 171.404 101.377 171.833 103.013L181.42 139.57C181.908 141.429 180.418 143.21 178.503 143.056L153.251 141.033C151.611 140.902 150.436 139.387 150.718 137.766Z" fill="#FBF3E7"/>
<path d="M155.723 110.113C154.073 122.955 148.275 150.881 138.29 159.854" stroke="#232323" stroke-width="2.14286" stroke-linecap="round"/>
<path d="M159.103 63.1956C159.742 64.7935 155.727 73.8815 153.64 78.2257L152.598 79.9767C151.925 81.1081 150.552 81.6133 149.305 81.1887L126.215 73.3322C124.756 72.8356 123.972 71.2508 124.464 69.7914L129.518 54.7998C130.005 53.3549 131.559 52.5694 133.009 53.046C142.814 56.269 158.52 61.736 159.103 63.1956Z" fill="#E50A3E"/>
<path d="M162.433 75.5461C173.717 77.6102 175.165 83.4945 174.479 86.1786C177.392 87.9588 175.659 91.4291 174.428 92.9417C174.054 97.7454 170.711 110.045 165.423 110.588C161.193 111.023 157.101 109.277 155.584 108.35L155.559 102.548C150.701 96.3578 150.693 87.4954 151.296 83.8379C149.779 82.9107 146.607 80.3686 146.059 77.6178C145.373 74.1793 148.329 72.966 162.433 75.5461Z" fill="#E5A072"/>
<path d="M151.344 77.0753C151.463 75.5381 148.941 75.2716 147.665 75.3305C146.983 75.9204 145.802 77.2114 146.53 77.6564C147.44 78.2127 151.194 78.9968 151.344 77.0753Z" fill="#EFC6AA"/>
<path d="M153.015 80.1087L153.752 76.7841" stroke="#232323" stroke-width="2.23356" stroke-linecap="round"/>
<path d="M147.367 79.1738C152.056 80.194 162.302 82.1105 169.415 83.8405" stroke="#232323" stroke-width="2.23356" stroke-linecap="round"/>
<path d="M165.086 96.5431C162.438 95.8476 156.9 95.1139 155.932 97.7433C154.722 101.03 156.543 102.143 160.77 102.965" stroke="#232323" stroke-width="2.23356" stroke-linecap="round"/>
<path d="M165.136 89.7803C162.841 88.6297 156.392 86.9529 154.636 89.9058C152.879 92.8587 154.427 96.6563 155.42 98.186" stroke="#232323" stroke-width="2.23356" stroke-linecap="round"/>
<path d="M157.681 81.449C155.54 82.4053 151.525 85.7895 154.638 89.9058" stroke="#232323" stroke-width="2.23356" stroke-linecap="round"/>
<rect width="24.742" height="3.27996" rx="1.63998" transform="matrix(0.944782 0.329289 -0.321051 0.946523 133.449 55.8242)" fill="#F2D1BB"/>
<rect width="24.742" height="2.2382" rx="1.1191" transform="matrix(0.944782 0.329289 -0.321051 0.946523 132.062 59.5781)" fill="#F2D1BB"/>
</g>
</svg>
