<svg width="190" height="139" viewBox="0 0 190 139" fill="none" xmlns="http://www.w3.org/2000/svg">
<path d="M182.625 77.5193C182.625 44.3608 155.745 17.4805 122.586 17.4805H67.0408C33.8822 17.4805 7.00195 44.3608 7.00195 77.5193C7.00195 110.678 33.8822 137.558 67.0408 137.558H122.586C155.745 137.558 182.625 110.678 182.625 77.5193Z" fill="#FFB21D"/>
<mask id="mask0_1906_20768" style="mask-type:alpha" maskUnits="userSpaceOnUse" x="0" y="0" width="190" height="139">
<path d="M189.051 69.0369C189.051 30.9089 158.142 0 120.014 0H69.9876C31.8596 0 0.950775 30.9089 0.950775 69.0369C0.950775 107.165 31.8596 138.074 69.9876 138.074H120.014C158.142 138.074 189.051 107.165 189.051 69.0369Z" fill="#FFB21D"/>
</mask>
<g mask="url(#mask0_1906_20768)">
<path d="M50.8447 102.379L72.7687 94.0866C74.1633 93.5591 75.6112 93.1852 77.0867 92.9715L104.086 89.0618C107.822 88.5207 111.636 89.0212 115.106 90.5082L150.354 105.611C155.38 107.764 159.338 111.834 161.35 116.917L179.177 161.945C183.66 173.268 175.103 185.485 162.93 185.142L154.349 184.9C153.345 184.872 152.439 184.291 151.994 183.39L151.659 182.71C150.543 180.447 147.157 181.079 146.932 183.592C146.817 184.88 145.738 185.866 144.445 185.866H44.9723C31.4031 185.866 21.5714 172.93 25.2045 159.856L27.9573 149.95L38.4851 115.563C40.3435 109.493 44.907 104.625 50.8447 102.379Z" fill="#FBF3E7"/>
<path d="M129.444 96.6504L109.801 88.2344L74.8688 93.293L64.9219 97.0553C77.9309 111.838 101.554 123.93 129.444 96.6504Z" fill="#AEAEAE"/>
<path d="M78.8598 89.7526C79.6583 88.1338 78.5271 81.6588 77.8617 78.6236C72.2725 72.9579 68.2137 59.0635 66.8829 52.8245L62.8906 35.1193L72.8714 21.9668L92.8329 21.4609C98.9876 27.5313 112.195 40.0767 115.789 41.6955C120.28 43.719 120.28 49.2835 118.783 54.848C117.585 59.2996 114.291 61.087 112.794 61.4242L110.798 69.518C111.297 75.2511 112.495 87.0209 113.293 88.235C114.092 89.4491 119.282 92.4505 121.777 93.7995C99.0209 115.653 79.0262 103.242 71.8733 94.3054C73.8694 93.4622 78.0614 91.3713 78.8598 89.7526Z" fill="#E5A072"/>
<path d="M110.803 69.5742C111.305 75.328 112.498 87.0241 113.293 88.2341C114.092 89.4482 119.282 92.4497 121.777 93.7986C119.161 96.3108 116.582 98.3703 114.054 100.034C101.262 95.1254 86.1848 88.392 78.5338 82.1313C78.4129 81.4054 78.2847 80.7046 78.1602 80.067C83.1916 82.536 90.7814 84.0259 97.8233 82.1638C103.996 80.5314 107.959 74.9208 110.803 69.5742Z" fill="#BE693B"/>
<path d="M113.789 48.2695C115.12 49.1126 117.282 51.4059 115.286 53.834" stroke="#232323" stroke-width="2.93098" stroke-linecap="round"/>
<path d="M67.8791 49.7887V55.8591C59.8945 41.6949 59.8945 34.4442 60.8926 32.5893L59.8945 31.0717C67.4799 6.79028 89.005 9.15098 98.8194 13.3665C112.792 13.7712 116.618 32.758 116.785 42.2008C113.192 40.582 111.295 45.2359 110.796 47.7653C110.397 42.909 102.978 33.6011 99.3185 29.5542L89.3377 26.0131C82.95 35.321 72.7031 36.9735 68.3781 36.6363C64.7851 39.0644 66.5483 46.4163 67.8791 49.7887Z" fill="#232323"/>
<path d="M84.0721 49C84.307 52.5253 84.636 59.9788 84.0721 61.5904C83.3671 63.6049 85.8344 64.6121 87.9492 63.6049" stroke="#232323" stroke-width="2.34478" stroke-linecap="round"/>
<path d="M73.4649 42.8977C78.8207 41.4866 80.1888 43.6406 80.4919 44.9255C80.5997 45.3824 80.2215 45.7341 79.7512 45.7504L78.1014 45.8074C74.9979 45.9148 71.9411 46.612 69.0947 47.8617C68.7253 48.0238 68.2825 47.861 68.2159 47.4645C67.9861 46.0955 68.779 44.1323 73.4649 42.8977Z" fill="#232323"/>
<path d="M90.1023 38.9499C92.8161 37.9707 95.2329 38.0011 97.2025 38.4056C98.6453 38.7019 98.3137 40.5897 96.8716 40.8761C90.3129 42.1786 86.2915 45.0357 85.4303 44.7489C84.3662 44.3945 82.9215 41.5408 90.1023 38.9499Z" fill="#232323"/>
<mask id="mask1_1906_20768" style="mask-type:alpha" maskUnits="userSpaceOnUse" x="68" y="48" width="15" height="10">
<path d="M79.8597 48.7773C73.1598 48.7773 69.6005 51.6715 68.2877 53.6253C68.0019 54.0506 68.0592 54.6123 68.3839 55.0087C75.5319 63.7356 89.1201 48.7773 79.8597 48.7773Z" fill="black"/>
</mask>
<g mask="url(#mask1_1906_20768)">
<ellipse cx="4.49832" cy="4.54586" rx="4.49832" ry="4.54586" transform="matrix(0.940343 -0.340228 0.332533 0.943092 69.3828 49.3125)" fill="white"/>
<circle cx="75.4531" cy="52.5" r="2.5" fill="#232323"/>
</g>
<mask id="mask2_1906_20768" style="mask-type:alpha" maskUnits="userSpaceOnUse" x="86" y="44" width="16" height="10">
<path d="M98.3206 44.2734C91.6208 44.2734 88.0614 47.1676 86.7486 49.1214C86.4628 49.5467 86.5201 50.1084 86.8448 50.5048C93.9928 59.2317 107.581 44.2734 98.3206 44.2734Z" fill="black"/>
</mask>
<g mask="url(#mask2_1906_20768)">
<ellipse cx="4.49832" cy="4.54586" rx="4.49832" ry="4.54586" transform="matrix(0.940343 -0.340228 0.332533 0.943092 87.8438 44.8086)" fill="white"/>
<circle cx="92.9492" cy="48" r="3" fill="#232323"/>
</g>
<path d="M69.9572 51.0566C71.5195 50.1207 75.7217 48.5314 80.0324 49.6614" stroke="#232323" stroke-width="2" stroke-linecap="round"/>
<path d="M88.0064 47.7848C89.2894 46.4809 92.9781 43.8707 97.4686 43.8621" stroke="#232323" stroke-width="2" stroke-linecap="round"/>
<path d="M58.6315 136.622L45.5313 108.921C45.1217 108.055 44.2974 107.464 43.3482 107.355L32.1858 106.08C30.5143 105.889 29.0482 107.223 29.0695 108.916L29.5439 146.734C29.568 148.661 31.4758 149.975 33.2772 149.305L57.0655 140.464C58.6085 139.891 59.3347 138.109 58.6315 136.622Z" fill="#FBF3E7"/>
<path d="M30.7551 67.0998C30.5646 68.8129 36.8444 76.47 40.0082 80.0844L41.4778 81.4883C42.4256 82.3937 43.8779 82.5067 44.9638 81.7594L65.1208 67.8886C66.3942 67.0123 66.7266 65.2683 65.8631 63.994L57.0186 50.9411C56.1654 49.6821 54.4644 49.3478 53.1975 50.2004C44.6103 55.9795 30.9291 65.5347 30.7551 67.0998Z" fill="#3E7BFA"/>
<path d="M30.8281 79.9051C20.5093 84.9718 20.6767 91.0342 22.0503 93.432C19.7175 95.9413 22.308 98.8107 23.8949 99.9317C25.5312 104.456 32.0172 115.389 37.2539 114.47C41.4433 113.734 44.9206 110.936 46.1356 109.629L44.6183 104.034C47.6535 96.7475 45.3081 88.2099 43.7561 84.8519C44.971 83.545 47.3504 80.2314 47.1482 77.4324C46.8954 73.9337 43.7266 73.5717 30.8281 79.9051Z" fill="#E5A072"/>
<path d="M41.9119 78.3511C41.3883 76.9034 43.7468 75.9584 44.9915 75.6669C45.8048 76.0489 47.2855 76.9699 46.7023 77.5972C45.9733 78.3814 42.5664 80.1608 41.9119 78.3511Z" fill="#EFC6AA"/>
<path d="M41.1065 81.7297L39.5144 78.7285" stroke="#232323" stroke-width="2.23356" stroke-linecap="round"/>
<path d="M46.3008 79.2852C42.0558 81.5471 32.6971 86.1886 26.3058 89.7956" stroke="#232323" stroke-width="2.23356" stroke-linecap="round"/>
<path d="M33.8472 100.852C36.2126 99.4593 41.3512 97.2416 42.9816 99.5098C45.0197 102.345 43.5617 103.913 39.7085 105.859" stroke="#232323" stroke-width="2.23356" stroke-linecap="round"/>
<path d="M32.0062 94.3517C33.9105 92.6175 39.6769 89.2427 42.1524 91.6074C44.6278 93.9721 44.1457 98.0518 43.5952 99.7961" stroke="#232323" stroke-width="2.23356" stroke-linecap="round"/>
<path d="M36.9708 84.2935C39.2866 84.6304 44.0521 86.7941 42.1477 91.6078" stroke="#232323" stroke-width="2.23356" stroke-linecap="round"/>
<rect width="24.7754" height="3.27563" rx="1.63782" transform="matrix(-0.821359 0.574155 0.561289 0.825074 53.5039 53)" fill="#F2D1BB"/>
<rect width="24.7754" height="2.23525" rx="1.11762" transform="matrix(-0.821359 0.574155 0.561289 0.825074 55.8398 56.2383)" fill="#F2D1BB"/>
<path d="M45.543 109.309C49.5969 121.637 60.218 147.361 70.2716 151.635" stroke="#232323" stroke-width="2.14286" stroke-linecap="round"/>
<path d="M150.718 137.766L155.98 107.503C156.144 106.559 156.781 105.767 157.666 105.403L168.069 101.133C169.632 100.491 171.404 101.377 171.833 103.013L181.42 139.57C181.908 141.429 180.418 143.21 178.503 143.056L153.251 141.033C151.611 140.902 150.436 139.387 150.718 137.766Z" fill="#FBF3E7"/>
<path d="M155.723 110.115C154.073 122.957 148.275 150.883 138.29 159.856" stroke="#232323" stroke-width="2.14286" stroke-linecap="round"/>
<path d="M159.103 63.1956C159.742 64.7935 155.727 73.8815 153.64 78.2257L152.598 79.9767C151.925 81.1081 150.552 81.6133 149.305 81.1887L126.215 73.3322C124.756 72.8356 123.972 71.2508 124.464 69.7914L129.518 54.7998C130.005 53.3549 131.559 52.5694 133.009 53.046C142.814 56.269 158.52 61.736 159.103 63.1956Z" fill="#3E7BFA"/>
<path d="M162.433 75.548C173.717 77.6121 175.165 83.4964 174.479 86.1805C177.392 87.9607 175.659 91.431 174.428 92.9437C174.054 97.7474 170.711 110.047 165.423 110.59C161.193 111.025 157.101 109.279 155.584 108.352L155.559 102.549C150.701 96.3598 150.693 87.4973 151.296 83.8398C149.779 82.9126 146.607 80.3706 146.059 77.6198C145.373 74.1812 148.329 72.9679 162.433 75.548Z" fill="#E5A072"/>
<path d="M151.344 77.0734C151.463 75.5362 148.941 75.2697 147.665 75.3285C146.983 75.9184 145.802 77.2094 146.53 77.6545C147.44 78.2108 151.194 78.9949 151.344 77.0734Z" fill="#EFC6AA"/>
<path d="M153.015 80.1087L153.752 76.7841" stroke="#232323" stroke-width="2.23356" stroke-linecap="round"/>
<path d="M147.367 79.1719C152.056 80.192 162.302 82.1085 169.415 83.8385" stroke="#232323" stroke-width="2.23356" stroke-linecap="round"/>
<path d="M165.086 96.5431C162.438 95.8476 156.9 95.1139 155.932 97.7433C154.722 101.03 156.543 102.143 160.77 102.965" stroke="#232323" stroke-width="2.23356" stroke-linecap="round"/>
<path d="M165.136 89.7823C162.841 88.6317 156.392 86.9549 154.636 89.9077C152.879 92.8606 154.427 96.6582 155.42 98.1879" stroke="#232323" stroke-width="2.23356" stroke-linecap="round"/>
<path d="M157.681 81.449C155.54 82.4053 151.525 85.7895 154.638 89.9058" stroke="#232323" stroke-width="2.23356" stroke-linecap="round"/>
<rect width="24.742" height="3.27996" rx="1.63998" transform="matrix(0.944782 0.329289 -0.321051 0.946523 133.449 55.8242)" fill="#F2D1BB"/>
<rect width="24.742" height="2.2382" rx="1.1191" transform="matrix(0.944782 0.329289 -0.321051 0.946523 132.062 59.5781)" fill="#F2D1BB"/>
</g>
<path d="M78.8581 62.8111C78.6566 61.8112 77.2525 61.2506 75.7218 61.5589C74.1911 61.8673 73.1135 62.9279 73.3149 63.9278C73.5164 64.9277 74.9206 65.4883 76.4513 65.1799C77.9819 64.8715 79.0595 63.811 78.8581 62.8111Z" fill="#EA8080"/>
<path d="M99.8581 58.8111C99.6566 57.8112 98.2525 57.2506 96.7218 57.5589C95.1911 57.8673 94.1135 58.9279 94.3149 59.9278C94.5164 60.9277 95.9206 61.4883 97.4513 61.1799C98.9819 60.8715 100.06 59.811 99.8581 58.8111Z" fill="#EA8080"/>
<path d="M96.6641 67.2539C95.4428 68.9374 93.8271 70.2956 91.9586 71.2093C90.0902 72.123 88.0262 72.5642 85.9475 72.4945" stroke="#1C1B1F" stroke-width="2" stroke-linecap="round" stroke-linejoin="round"/>
</svg>
