<svg width="156" height="28" viewBox="0 0 156 28" fill="none" xmlns="http://www.w3.org/2000/svg">
<circle cx="6.8335" cy="14" r="6" stroke="#3E7BFA"/>
<line x1="17.3335" y1="13.5" x2="138.667" y2="13.5" stroke="#C2C2C2" stroke-dasharray="3 3"/>
<circle cx="149.167" cy="14" r="6" fill="#3E7BFA" stroke="#3E7BFA"/>
<rect width="24" height="24" transform="translate(65 2)" fill="white"/>
<path d="M75.4688 7.5L78.625 13H82.25C83.0625 13 84.1875 13.625 84.4688 14C84.1875 14.4062 83.0625 15 82.25 15H78.625L75.4688 20.5H74.3125L75.875 15H72.25L71.125 16.5H69.8125L70.5625 14L69.8125 11.5H71.125L72.25 13H75.875L74.3125 7.5H75.4688ZM76.0625 6H73C72.6562 6 72.4062 6.34375 72.5 6.65625L73.9062 11.5H73L72 10.2188C71.9062 10.0938 71.7812 10 71.625 10H68.5C68.1562 10 67.9062 10.3125 68 10.625L69 14L68 17.4062C67.9062 17.7188 68.1562 18 68.5 18H71.625C71.7812 18 71.9062 17.9375 72 17.8125L73 16.5H73.9062L72.5 21.375C72.4062 21.6875 72.6562 22 73 22H76.0625C76.2188 22 76.4062 21.9062 76.5 21.75L79.5 16.5H82.25C83.625 16.5 86 15.4062 86 14C86 12.625 83.625 11.5 82.25 11.5H79.5L76.5 6.28125C76.4062 6.125 76.25 6 76.0625 6Z" fill="#3E7BFA"/>
</svg>
