<svg width="190" height="181" viewBox="0 0 190 181" fill="none" xmlns="http://www.w3.org/2000/svg">
<path d="M26.5703 158.451L29.9749 180.826H49.7545L54.3463 158.777L26.5703 158.451Z" fill="#EBEBEB"/>
<path d="M51.5804 172.796C51.5804 172.861 46.5097 172.913 40.2599 172.913C34.0101 172.913 28.9395 172.861 28.9395 172.796C28.9395 172.732 34.0061 172.68 40.2599 172.68C46.5137 172.68 51.5804 172.724 51.5804 172.796Z" fill="#FAFAFA"/>
<path d="M51.6571 171.691C51.6571 171.755 46.5543 171.808 40.2602 171.808C33.9661 171.808 28.8633 171.755 28.8633 171.691C28.8633 171.627 33.9661 171.574 40.2602 171.574C46.5543 171.574 51.6571 171.627 51.6571 171.691Z" fill="#FAFAFA"/>
<path d="M51.618 170.447C51.618 170.511 46.5152 170.563 40.2211 170.563C33.9271 170.563 28.8242 170.511 28.8242 170.447C28.8242 170.382 33.9271 170.33 40.2211 170.33C46.5152 170.33 51.618 170.382 51.618 170.447Z" fill="#FAFAFA"/>
<path d="M32.2496 179.545C31.9691 178.625 31.7658 177.683 31.642 176.728C31.4381 175.789 31.3116 174.835 31.2637 173.875C31.5419 174.796 31.7451 175.738 31.8713 176.692C32.0705 177.632 32.1969 178.586 32.2496 179.545Z" fill="#FAFAFA"/>
<path d="M33.593 179.308C33.3905 177.479 33.2656 175.642 33.2188 173.803C33.4324 174.703 33.5538 175.623 33.5809 176.547C33.6828 177.465 33.6869 178.39 33.593 179.308Z" fill="#FAFAFA"/>
<path d="M36.0427 179.309C35.578 177.453 35.3548 175.544 35.3787 173.631C35.566 174.561 35.7004 175.502 35.7811 176.448C35.9421 178.029 36.1071 179.297 36.0427 179.309Z" fill="#FAFAFA"/>
<path d="M37.7658 179.43C37.5791 178.487 37.4874 177.527 37.4922 176.565C37.4219 175.605 37.4516 174.641 37.5807 173.688C37.684 174.64 37.7324 175.598 37.7256 176.557C37.7935 177.513 37.8069 178.472 37.7658 179.43Z" fill="#FAFAFA"/>
<path d="M40.8131 179.308C40.6692 178.41 40.6005 177.501 40.6078 176.592C40.5375 175.684 40.5456 174.773 40.632 173.867C40.8452 175.673 40.9058 177.493 40.8131 179.308Z" fill="#FAFAFA"/>
<path d="M43.0409 179.429C42.9303 178.494 42.898 177.552 42.9443 176.612C42.9149 175.671 42.962 174.729 43.0851 173.795C43.193 174.73 43.2239 175.672 43.1777 176.612C43.2069 177.553 43.1612 178.495 43.0409 179.429Z" fill="#FAFAFA"/>
<path d="M45.1273 179.127C45.1063 178.145 45.1628 177.162 45.2963 176.189C45.3562 175.209 45.4908 174.235 45.6988 173.275C45.663 175.238 45.4732 177.194 45.1313 179.127H45.1273Z" fill="#FAFAFA"/>
<path d="M47.8184 178.834C47.9056 177.15 48.2658 175.492 48.8848 173.924C48.7637 174.753 48.5944 175.574 48.3777 176.383C48.2354 177.209 48.0487 178.027 47.8184 178.834Z" fill="#FAFAFA"/>
<path d="M45.9165 114.303L45.8923 114.415C45.8642 114.5 45.836 114.601 45.7998 114.729L45.4215 115.937C45.2525 116.46 45.0512 117.1 44.842 117.852C44.6327 118.605 44.3631 119.462 44.1297 120.404C43.8963 121.345 43.6065 122.392 43.357 123.518C43.1075 124.645 42.854 125.849 42.5964 127.12C42.1215 129.672 41.6869 132.493 41.3891 135.471C41.0913 138.449 40.9867 141.302 40.9303 143.894C40.9303 145.194 40.9303 146.425 40.9625 147.58C40.9947 148.735 41.047 149.805 41.1034 150.799C41.1597 151.793 41.2402 152.667 41.3006 153.443C41.3609 154.22 41.4253 154.888 41.4897 155.435C41.5541 155.983 41.5903 156.385 41.6185 156.691C41.6185 156.824 41.6426 156.932 41.6467 157.021C41.6528 157.058 41.6528 157.096 41.6467 157.134C41.6332 157.098 41.6251 157.06 41.6225 157.021C41.6225 156.937 41.5903 156.828 41.5702 156.699C41.5259 156.393 41.4696 155.975 41.3971 155.444C41.3247 154.912 41.2362 154.236 41.1678 153.455C41.0993 152.675 40.9907 151.793 40.9343 150.811C40.878 149.83 40.7975 148.755 40.7693 147.592C40.7412 146.429 40.717 145.202 40.709 143.902C40.7372 141.302 40.8659 138.445 41.1557 135.451C41.4454 132.457 41.9002 129.639 42.3871 127.084C42.6527 125.812 42.8902 124.597 43.192 123.462C43.4938 122.327 43.7272 121.293 43.9969 120.347C44.2665 119.402 44.52 118.548 44.7454 117.8C44.9708 117.051 45.18 116.416 45.3651 115.896C45.5503 115.377 45.679 114.995 45.7676 114.689C45.8118 114.564 45.8481 114.464 45.8803 114.383C45.8893 114.355 45.9015 114.328 45.9165 114.303Z" fill="#EBEBEB"/>
<path d="M42.3409 128.159C42.8857 126.546 43.9739 125.172 45.4196 124.272C45.9065 123.97 46.5262 123.724 47.0293 123.974C47.7175 124.308 47.7738 125.278 47.5686 126.018C47.2126 127.271 46.4185 128.353 45.331 129.069C44.3661 129.782 43.1584 130.086 41.9707 129.914" fill="#EBEBEB"/>
<path d="M41.1427 137.512C41.6538 135.58 43.1952 132.836 44.7928 131.641C45.0375 131.44 45.3192 131.29 45.6218 131.198C45.7746 131.155 45.9355 131.151 46.0905 131.184C46.2455 131.218 46.3899 131.289 46.5112 131.391C46.8372 131.705 46.805 132.232 46.7084 132.671C46.3807 134.08 45.6673 135.37 44.6481 136.396C43.6289 137.422 42.344 138.145 40.9375 138.482" fill="#EBEBEB"/>
<path d="M40.8125 145.746C41.6054 143.901 42.8766 142.302 44.4948 141.114C44.6677 140.956 44.8702 140.834 45.0906 140.755C45.311 140.677 45.5448 140.642 45.7785 140.655C46.4788 140.784 46.7967 141.637 46.7323 142.345C46.6075 143.802 45.4928 144.969 44.3459 145.874C43.1104 146.848 40.9373 147.625 40.9373 147.625" fill="#EBEBEB"/>
<path d="M40.998 151.665C41.7684 150.26 42.8387 149.041 44.133 148.096C44.4105 147.891 44.7313 147.753 45.0707 147.693C45.2416 147.662 45.4178 147.678 45.5802 147.74C45.7426 147.802 45.8851 147.907 45.9922 148.043C46.3061 148.506 45.9922 149.13 45.6703 149.573C44.5674 151.114 43.0009 152.263 41.1993 152.852" fill="#EBEBEB"/>
<path d="M40.8397 149.262C39.491 147.605 37.9916 146.076 36.3606 144.695C36.103 144.482 35.7851 144.256 35.4672 144.357C35.3491 144.408 35.2483 144.492 35.1769 144.599C35.1055 144.706 35.0665 144.832 35.0647 144.96C35.0599 145.22 35.1179 145.477 35.2338 145.709C35.769 146.9 36.5659 147.954 37.565 148.795C38.5641 149.635 39.7398 150.239 41.0046 150.562" fill="#EBEBEB"/>
<path d="M40.9862 141.557L37.4649 137.267C37.1568 136.834 36.7689 136.464 36.322 136.176C36.0957 136.039 35.8361 135.967 35.5715 135.967C35.3069 135.967 35.0473 136.039 34.821 136.176C34.6173 136.345 34.4644 136.566 34.3792 136.816C34.2939 137.066 34.2797 137.335 34.338 137.593C34.4668 138.103 34.7013 138.58 35.0262 138.993C35.7113 140.047 36.5795 140.97 37.5897 141.718C38.6239 142.43 39.5656 142.893 40.8092 142.708" fill="#EBEBEB"/>
<path d="M41.4732 132.883C40.7834 130.829 39.5614 128.995 37.9317 127.567C37.6775 127.309 37.3596 127.123 37.0102 127.028C36.3019 126.891 35.6218 127.482 35.4004 128.163C35.2897 128.552 35.2611 128.96 35.3166 129.361C35.372 129.763 35.5102 130.148 35.7224 130.493C36.1537 131.18 36.7173 131.775 37.3804 132.243C38.5655 133.15 39.8872 133.864 41.2961 134.356" fill="#EBEBEB"/>
<path d="M42.8803 125.153C42.5382 122.666 41.2424 120.594 39.7413 118.581C39.4274 118.155 38.9847 117.708 38.4616 117.777C38.2964 117.812 38.1428 117.889 38.0148 117.999C37.8868 118.109 37.7886 118.25 37.7291 118.408C37.6117 118.726 37.5637 119.065 37.5883 119.402C37.6533 120.91 38.1608 122.365 39.0475 123.586C39.9343 124.807 41.1609 125.74 42.5744 126.268" fill="#EBEBEB"/>
<path d="M43.8674 121.206C43.7041 119.93 43.661 118.642 43.7387 117.358C43.8175 116.067 44.2597 114.824 45.0144 113.773C45.3377 113.321 45.781 112.968 46.2941 112.754C46.5516 112.651 46.8314 112.616 47.1064 112.653C47.3814 112.689 47.6422 112.797 47.8636 112.964C48.0505 113.139 48.1957 113.354 48.2883 113.593C48.381 113.832 48.4187 114.089 48.3988 114.344C48.3534 114.855 48.2171 115.354 47.9964 115.817C47.0587 118.075 45.4973 120.574 43.8634 121.206" fill="#EBEBEB"/>
<path d="M28.5307 124.172C28.5402 124.276 28.5402 124.381 28.5307 124.486C28.5307 124.715 28.5307 125.017 28.5307 125.387C28.5307 125.757 28.5307 126.26 28.5549 126.816C28.579 127.371 28.5549 128.023 28.6193 128.707C28.6837 130.104 28.8165 131.77 29.0217 133.609C29.2269 135.448 29.565 137.456 29.9956 139.549C30.4262 141.642 30.9614 143.609 31.4926 145.384C32.0239 147.159 32.5792 148.732 33.1024 150.036C33.3438 150.696 33.5934 151.28 33.7986 151.795C34.0038 152.31 34.201 152.753 34.354 153.111C34.5069 153.469 34.6155 153.731 34.7081 153.944C34.7535 154.038 34.7898 154.137 34.8168 154.238C34.756 154.151 34.7047 154.058 34.6638 153.96L34.2614 153.155C34.0924 152.801 33.8871 152.35 33.6738 151.855C33.4605 151.36 33.1909 150.761 32.9414 150.105C32.4142 148.805 31.8548 147.227 31.2955 145.453C30.7361 143.678 30.225 141.702 29.7783 139.605C29.3316 137.509 29.062 135.476 28.8648 133.633C28.6676 131.79 28.5468 130.116 28.5066 128.711C28.4704 128.011 28.4784 127.375 28.4704 126.82C28.4623 126.265 28.4704 125.782 28.4704 125.387C28.4704 124.993 28.4945 124.715 28.5026 124.486C28.4996 124.38 28.509 124.275 28.5307 124.172Z" fill="#E0E0E0"/>
<path d="M29.082 134.369C29.1046 133.155 29.5485 131.987 30.3376 131.065C30.4522 130.894 30.6073 130.754 30.7891 130.657C30.971 130.56 31.1739 130.509 31.3799 130.51C31.9232 130.59 32.1848 131.238 32.1848 131.785C32.2131 132.715 31.906 133.623 31.3196 134.345C30.8137 135.035 30.0587 135.502 29.2148 135.645" fill="#E0E0E0"/>
<path d="M30.278 141.006C30.2096 139.581 30.6805 137.384 31.4853 136.225C31.6081 136.034 31.7683 135.869 31.9562 135.742C32.0512 135.68 32.1599 135.642 32.2727 135.632C32.3856 135.621 32.4993 135.638 32.6041 135.682C32.7342 135.777 32.8389 135.903 32.9091 136.048C32.9793 136.193 33.0127 136.353 33.0065 136.515C33.0861 137.544 32.8775 138.575 32.4041 139.493C31.9308 140.41 31.2113 141.178 30.3263 141.71" fill="#E0E0E0"/>
<path d="M31.8223 146.676C31.9658 145.248 32.4882 143.885 33.3354 142.728C33.4174 142.585 33.5268 142.459 33.6573 142.358C33.7878 142.258 33.9369 142.183 34.096 142.14C34.5991 142.076 34.9975 142.591 35.1061 143.086C35.3355 144.104 34.8284 145.138 34.2409 146C33.6791 146.723 33.0257 147.371 32.2971 147.927" fill="#E0E0E0"/>
<path d="M33.2227 150.663C33.4434 149.54 33.9107 148.481 34.5909 147.561C34.7335 147.358 34.9208 147.192 35.1382 147.074C35.2481 147.015 35.3718 146.988 35.496 146.995C35.6202 147.002 35.74 147.043 35.8425 147.114C36.1564 147.359 36.088 147.846 35.9512 148.225C35.5312 149.511 34.7122 150.63 33.613 151.42" fill="#E0E0E0"/>
<path d="M32.5992 149.054C31.3265 148.217 29.9794 147.499 28.5749 146.909C28.4733 146.848 28.358 146.812 28.2394 146.806C28.1207 146.799 28.0023 146.823 27.8948 146.873C27.8244 146.933 27.773 147.012 27.7466 147.101C27.7201 147.189 27.7199 147.283 27.7459 147.372C27.8 147.548 27.8936 147.709 28.0195 147.843C28.6404 148.538 29.41 149.085 30.2711 149.442C31.1322 149.8 32.0627 149.959 32.9936 149.907" fill="#E0E0E0"/>
<path d="M31.0417 143.786L27.7176 141.621C27.4146 141.396 27.0719 141.229 26.7075 141.13C26.5245 141.083 26.332 141.087 26.1511 141.142C25.9702 141.196 25.8077 141.3 25.6813 141.44C25.5787 141.599 25.5221 141.783 25.5178 141.972C25.5136 142.161 25.5618 142.347 25.6571 142.511C25.857 142.829 26.1199 143.103 26.4298 143.315C27.1221 143.887 27.9132 144.328 28.7639 144.615C29.6211 144.881 30.3737 144.99 31.1785 144.615" fill="#E0E0E0"/>
<path d="M29.5077 137.785C28.5948 136.535 27.3675 135.548 25.9502 134.924C25.7207 134.805 25.464 134.748 25.2057 134.759C24.9547 134.816 24.7316 134.959 24.575 135.164C24.4185 135.368 24.3383 135.621 24.3485 135.878C24.3592 136.165 24.4286 136.446 24.5525 136.705C24.6764 136.964 24.8522 137.195 25.0689 137.383C25.5101 137.758 26.0218 138.041 26.574 138.216C27.5758 138.578 28.6282 138.78 29.6928 138.816" fill="#E0E0E0"/>
<path d="M28.7998 132.208C28.0311 130.599 26.7031 129.456 25.2503 128.409C25.1144 128.277 24.9462 128.183 24.7626 128.137C24.579 128.09 24.3864 128.093 24.204 128.144C24.1002 128.205 24.0129 128.29 23.9498 128.392C23.8866 128.495 23.8496 128.611 23.8418 128.731C23.8303 128.973 23.87 129.214 23.9585 129.44C24.3292 130.452 24.9891 131.333 25.8562 131.973C26.7234 132.613 27.7595 132.985 28.836 133.041" fill="#E0E0E0"/>
<path d="M28.6187 129.307C28.2328 128.474 27.9269 127.606 27.7052 126.715C27.481 125.82 27.5145 124.88 27.8018 124.003C27.9262 123.624 28.155 123.288 28.4618 123.033C28.6152 122.908 28.7983 122.824 28.9934 122.789C29.1886 122.755 29.3894 122.771 29.5765 122.836C29.7385 122.914 29.8814 123.026 29.9954 123.166C30.1094 123.305 30.1917 123.467 30.2365 123.641C30.317 123.999 30.3334 124.368 30.2848 124.731C30.1319 126.47 29.6047 128.506 28.6268 129.287" fill="#E0E0E0"/>
<path d="M53.5373 123.953C53.5564 124.057 53.5658 124.162 53.5655 124.267C53.5655 124.496 53.5655 124.794 53.5977 125.168C53.6299 125.543 53.6218 126.042 53.5977 126.601C53.5735 127.161 53.5977 127.808 53.5655 128.493C53.5252 129.897 53.4045 131.567 53.2033 133.414C53.0021 135.262 52.6801 137.278 52.2455 139.378C51.8109 141.479 51.2676 143.451 50.7243 145.23C50.181 147.009 49.6055 148.578 49.0783 149.878C48.8288 150.534 48.5673 151.113 48.3499 151.628C48.1326 152.144 47.9475 152.578 47.7584 152.928C47.5692 153.278 47.4646 153.536 47.3559 153.733C47.3126 153.828 47.2628 153.919 47.207 154.007C47.2315 153.905 47.268 153.806 47.3157 153.713C47.4042 153.5 47.5209 153.226 47.6698 152.88C47.8187 152.534 48.0159 152.075 48.2212 151.564C48.4264 151.053 48.6799 150.465 48.9174 149.805C49.4244 148.502 49.9677 146.924 50.5271 145.153C51.0865 143.383 51.5775 141.411 52.0201 139.318C52.4628 137.225 52.7687 135.213 52.994 133.378C53.2194 131.543 53.3441 129.877 53.3965 128.476C53.4407 127.776 53.4448 127.144 53.4649 126.585C53.485 126.026 53.489 125.551 53.4649 125.156C53.4407 124.762 53.4649 124.484 53.4649 124.255C53.4783 124.152 53.5026 124.051 53.5373 123.953Z" fill="#EBEBEB"/>
<path d="M52.9852 134.164C52.9615 132.95 52.5162 131.782 51.7256 130.86C51.6105 130.689 51.4553 130.549 51.2736 130.453C51.0919 130.356 50.8892 130.305 50.6833 130.305C50.14 130.385 49.8784 131.033 49.8784 131.58C49.8527 132.51 50.1611 133.418 50.7477 134.14C51.2509 134.833 52.0072 135.3 52.8524 135.44" fill="#EBEBEB"/>
<path d="M51.8023 140.779C51.8667 139.355 51.3998 137.157 50.595 135.998C50.4722 135.807 50.3121 135.643 50.1241 135.515C50.0298 135.454 49.9219 135.416 49.8097 135.405C49.6975 135.395 49.5844 135.412 49.4802 135.455C49.3496 135.55 49.2445 135.676 49.1743 135.821C49.1041 135.966 49.0709 136.127 49.0778 136.288C48.9965 137.317 49.2038 138.349 49.6766 139.267C50.1494 140.184 50.8688 140.952 51.754 141.483" fill="#EBEBEB"/>
<path d="M50.2414 146.459C50.0969 145.032 49.5761 143.67 48.7322 142.511C48.6481 142.367 48.5361 142.24 48.4028 142.139C48.2694 142.039 48.1174 141.965 47.9555 141.923C47.4525 141.859 47.0541 142.374 46.9414 142.869C46.716 143.887 47.2231 144.922 47.8066 145.783C48.3685 146.507 49.0218 147.155 49.7504 147.71" fill="#EBEBEB"/>
<path d="M48.8405 150.451C48.6203 149.327 48.1544 148.266 47.4763 147.344C47.3325 147.141 47.1438 146.974 46.9249 146.857C46.8151 146.798 46.6914 146.771 46.5672 146.778C46.443 146.786 46.3232 146.827 46.2207 146.897C45.9108 147.143 45.9792 147.629 46.112 148.008C46.532 149.294 47.351 150.414 48.4502 151.203" fill="#EBEBEB"/>
<path d="M49.4647 148.844C50.7384 148.008 52.0854 147.29 53.489 146.699C53.591 146.638 53.7061 146.603 53.8246 146.597C53.9431 146.59 54.0613 146.613 54.1691 146.662C54.241 146.721 54.2939 146.8 54.3211 146.889C54.3483 146.978 54.3486 147.073 54.3221 147.162C54.2654 147.337 54.1706 147.498 54.0444 147.632C53.4238 148.328 52.6543 148.875 51.7931 149.233C50.932 149.59 50.0013 149.749 49.0703 149.697" fill="#EBEBEB"/>
<path d="M51.0255 143.569L54.3456 141.404C54.6491 141.18 54.9916 141.013 55.3557 140.913C55.5387 140.866 55.7311 140.87 55.9121 140.925C56.093 140.98 56.2555 141.083 56.3819 141.223C56.4854 141.382 56.5425 141.566 56.5468 141.755C56.551 141.944 56.5023 142.131 56.406 142.294C56.2084 142.614 55.945 142.888 55.6334 143.099C54.9411 143.669 54.1518 144.111 53.3033 144.403C52.4461 144.664 51.6935 144.777 50.8887 144.403" fill="#EBEBEB"/>
<path d="M52.5602 137.561C53.4735 136.311 54.7007 135.324 56.1177 134.7C56.3469 134.58 56.6039 134.523 56.8623 134.535C57.1125 134.593 57.3347 134.736 57.4904 134.94C57.6462 135.145 57.7258 135.397 57.7154 135.654C57.7084 135.943 57.6406 136.227 57.5165 136.489C57.3924 136.75 57.2147 136.982 56.995 137.171C56.5542 137.545 56.0442 137.829 55.494 138.008C54.4904 138.368 53.4367 138.569 52.3711 138.603" fill="#EBEBEB"/>
<path d="M53.2641 131.991C54.0328 130.381 55.3608 129.242 56.8176 128.192C57.1235 127.971 57.5219 127.761 57.8599 127.926C57.9699 127.986 58.0628 128.073 58.1297 128.178C58.1966 128.284 58.2354 128.405 58.2422 128.53C58.2504 128.772 58.2093 129.013 58.1215 129.238C57.7524 130.251 57.0935 131.132 56.2269 131.773C55.3602 132.413 54.3242 132.784 53.248 132.84" fill="#EBEBEB"/>
<path d="M53.4453 129.093C53.8296 128.259 54.1368 127.392 54.3629 126.501C54.5839 125.604 54.5491 124.663 54.2623 123.785C54.1401 123.407 53.9142 123.071 53.6103 122.815C53.4579 122.689 53.2753 122.605 53.0805 122.572C52.8858 122.538 52.6856 122.555 52.4996 122.622C52.3358 122.698 52.1911 122.81 52.0761 122.949C51.9612 123.088 51.879 123.252 51.8356 123.427C51.7575 123.785 51.7412 124.154 51.7873 124.517C51.9402 126.256 52.4674 128.292 53.4453 129.077" fill="#EBEBEB"/>
<path d="M24.3008 154.02V158.209C24.3008 158.425 24.3435 158.64 24.4265 158.84C24.5094 159.04 24.631 159.221 24.7843 159.374C24.9376 159.527 25.1195 159.648 25.3196 159.731C25.5198 159.813 25.7343 159.855 25.9508 159.855H54.5919C55.0285 159.855 55.4471 159.681 55.7558 159.373C56.0645 159.064 56.2379 158.645 56.2379 158.209V154.02H24.3008Z" fill="#EBEBEB"/>
<path d="M26.7832 159.855L27.0206 161.188L53.4484 163.071L54.1205 159.855H26.7832Z" fill="#E0E0E0"/>
<path d="M31.536 58.136L25.4995 55.657C25.4995 55.657 23.4149 60.7236 18.1149 58.647C17.0854 58.2676 16.2001 57.5762 15.5825 56.6693C14.9649 55.7624 14.646 54.6854 14.6701 53.5885C14.6758 52.6668 14.8998 51.7596 15.3237 50.9412C15.7476 50.1228 16.3593 49.4164 17.1088 48.88C18.8232 47.6123 21.765 46.8316 25.5358 49.2221L31.0612 35.7888L25.0931 33.334L21.8173 41.3022C21.8173 41.3022 12.5613 40.0265 8.77441 49.2462C5.15251 58.0675 12.5251 63.4964 16.642 65.1906C19.2377 66.253 27.2743 68.8286 31.536 58.136Z" fill="#F5F5F5"/>
<path d="M28.5042 24.8521L26.1797 30.5059L32.2354 32.9957L34.5599 27.3419L28.5042 24.8521Z" fill="#F5F5F5"/>
<path d="M29.4922 57.2981L23.4557 54.8191C23.4557 54.8191 21.3711 59.8817 16.0711 57.8092C15.0419 57.4292 14.1569 56.7377 13.5394 55.8309C12.922 54.9242 12.6027 53.8474 12.6262 52.7506C12.6321 51.8285 12.8566 50.921 13.2812 50.1025C13.7059 49.284 14.3186 48.5779 15.069 48.0421C16.7834 46.7744 19.6567 46.1627 23.4275 48.5532L29.0214 34.9509L23.0573 32.4961L19.7815 40.4643C19.7815 40.4643 10.5255 39.1886 6.73058 48.3962C3.10868 57.2176 10.1754 62.5297 13.572 63.91C16.1515 64.9765 25.2425 67.9746 29.4922 57.2981Z" fill="#E0E0E0"/>
<path d="M26.4613 24.0005L24.1367 29.6543L30.1924 32.1441L32.517 26.4904L26.4613 24.0005Z" fill="#E0E0E0"/>
<path d="M174.29 161.379L170.552 161.689C170.552 161.689 170.813 164.828 167.553 165.158C166.926 165.232 166.291 165.109 165.737 164.806C165.182 164.503 164.736 164.036 164.459 163.468C164.219 162.995 164.094 162.473 164.094 161.943C164.094 161.413 164.219 160.89 164.459 160.417C165.006 159.319 166.31 158.148 168.865 158.381L168.177 150.051L164.475 150.361L164.877 155.299C164.877 155.299 159.803 157.073 160.277 162.788C160.732 168.257 165.936 169.106 168.487 168.893C170.117 168.772 174.91 167.967 174.29 161.379Z" fill="#F5F5F5"/>
<path d="M167.931 145.812L164.164 146.113L164.445 149.631L168.212 149.329L167.931 145.812Z" fill="#F5F5F5"/>
<path d="M173.024 161.477L169.282 161.791C169.282 161.791 169.543 164.93 166.283 165.256C165.657 165.332 165.022 165.21 164.468 164.908C163.914 164.606 163.468 164.138 163.193 163.57C162.953 163.097 162.828 162.575 162.828 162.045C162.828 161.515 162.953 160.992 163.193 160.519C163.74 159.421 165.052 158.354 167.62 158.588L166.919 150.137L163.221 150.447L163.623 155.384C163.623 155.384 158.549 157.155 159.024 162.874C159.478 168.343 164.489 169.208 166.585 169.031C168.203 168.914 173.644 168.073 173.024 161.477Z" fill="#E0E0E0"/>
<path d="M166.498 144.903L162.744 145.215L163.035 148.72L166.789 148.408L166.498 144.903Z" fill="#E0E0E0"/>
<path d="M152.565 25.7116L159.973 22.7859C159.973 22.7859 157.515 16.5643 163.937 13.9002C165.166 13.3642 166.531 13.225 167.843 13.502C169.154 13.779 170.347 14.4585 171.254 15.4456C172.027 16.2603 172.598 17.2464 172.918 18.3234C173.238 19.4004 173.3 20.5379 173.097 21.643C172.658 24.2106 170.73 27.3898 165.39 28.4844L171.906 44.9842L179.234 42.0907L175.35 32.2995C175.35 32.2995 184.606 25.5869 180.123 14.2624C175.841 3.42891 164.75 4.89779 159.692 6.89788C156.512 8.15347 147.261 12.6929 152.565 25.7116Z" fill="#F5F5F5"/>
<path d="M180.682 45.4945L173.244 48.4316L175.986 55.3749L183.424 52.4378L180.682 45.4945Z" fill="#F5F5F5"/>
<path d="M149.595 26.8796L157.007 23.9539C157.007 23.9539 154.549 17.7323 160.971 15.0682C162.199 14.5307 163.563 14.3896 164.875 14.6644C166.186 14.9393 167.379 15.6164 168.288 16.6014C169.062 17.418 169.633 18.4062 169.953 19.4853C170.274 20.5644 170.335 21.7039 170.131 22.811C169.716 25.3785 167.704 28.3485 162.352 29.4431L168.952 46.1481L176.276 43.2546L172.413 33.4674C172.413 33.4674 181.64 26.7548 177.165 15.4465C172.887 4.58076 162.179 5.91684 158.018 7.55876C154.826 8.81436 144.307 13.8609 149.595 26.8796Z" fill="#E0E0E0"/>
<path d="M177.726 46.6605L170.289 49.5977L173.031 56.541L180.468 53.6038L177.726 46.6605Z" fill="#E0E0E0"/>
<path d="M92.4717 17.0366C93.1534 9.35221 87.4641 2.56899 79.7642 1.88586C72.0644 1.20273 65.2697 6.87837 64.5879 14.5628C63.9062 22.2471 69.5955 29.0304 77.2954 29.7135C84.9953 30.3966 91.7899 24.721 92.4717 17.0366Z" fill="white"/>
<path d="M87.5199 26.5165L87.6929 26.3716L88.1839 25.9088L88.5461 25.5748C88.6748 25.45 88.8036 25.2971 88.9485 25.1361L89.4113 24.621C89.5801 24.4199 89.7386 24.2104 89.8862 23.9932C90.6936 22.9042 91.3288 21.6976 91.7696 20.4156C92.3717 18.7205 92.6382 16.9245 92.5543 15.1276C92.5543 14.8781 92.5261 14.6246 92.5141 14.371C92.502 14.1175 92.4376 13.864 92.4014 13.6024C92.3652 13.3408 92.337 13.0832 92.2686 12.8257C92.2002 12.5681 92.1358 12.3065 92.0714 12.0208L91.842 11.2763V11.232C91.7494 10.9705 91.6528 10.7049 91.5603 10.4272C91.4677 10.1495 91.3188 9.91206 91.1981 9.65047C91.081 9.38309 90.9466 9.12364 90.7957 8.87378C90.5019 8.35354 90.1739 7.85342 89.8137 7.37673C89.6286 7.13929 89.4556 6.88576 89.2543 6.65235L88.3891 5.71468L88.2966 5.62614L87.9424 5.31224C87.701 5.107 87.4675 4.88566 87.218 4.68445C86.7051 4.2884 86.1674 3.92547 85.6083 3.59788C85.032 3.26148 84.4337 2.96434 83.8175 2.7085C83.4995 2.58375 83.1736 2.48716 82.8516 2.37046C82.6907 2.32216 82.5297 2.25375 82.3647 2.21351L81.8335 2.16521C81.2912 2.02694 80.7399 1.92742 80.1835 1.86741L79.3424 1.76278L78.4369 1.72656H78.1713L77.6321 1.75473L77.0928 1.78693L76.5576 1.86339L76.0183 1.9479L75.7487 1.98814L75.4831 2.05253L73.5071 2.65216L73.3703 2.70045C71.9733 3.26651 70.6695 4.03981 69.5029 4.99432C68.3574 5.97589 67.3669 7.12509 66.5651 8.40293L66.5008 8.51561C66.2432 9.0267 65.8206 9.85974 65.5591 10.3708L65.4504 10.6203L65.3619 10.8779L65.1848 11.4212L65.0118 11.9363L64.891 12.4635L64.7663 12.9866L64.7059 13.2482L64.5852 14.1457L64.5087 14.9867C64.4684 15.5441 64.4684 16.1035 64.5087 16.6609L64.5369 17.176C64.5369 17.349 64.5852 17.518 64.6053 17.6871C64.6616 18.0251 64.7019 18.3632 64.7703 18.6932C64.9116 19.3466 65.0986 19.9894 65.3297 20.6168C65.56 21.2301 65.8288 21.8282 66.1345 22.4076C66.2875 22.6893 66.4645 22.9549 66.6255 23.2125L66.871 23.6149L66.9434 23.7195L67.7121 24.7337C67.9093 24.9751 68.1145 25.1884 68.3318 25.4138C68.7368 25.8457 69.1711 26.2491 69.6317 26.6211C69.849 26.8215 70.0774 27.0096 70.3158 27.1845C70.5533 27.3455 70.7786 27.5225 71.0201 27.6714L71.7525 28.094L72.4769 28.4642L73.2174 28.7942C73.4606 28.8971 73.7091 28.9871 73.9619 29.0639C74.2074 29.1443 74.4528 29.2329 74.6943 29.3053L75.4348 29.4784C77.1896 29.8743 79.0045 29.9262 80.7791 29.6313C82.1184 29.4208 83.4174 29.0054 84.6304 28.3998C84.8702 28.2935 85.104 28.1739 85.3306 28.0417L85.9182 27.6795C86.0993 27.5668 86.2723 27.4662 86.4212 27.3656L86.8236 27.0638L87.3468 26.6613C87.4675 26.5688 87.5239 26.5165 87.5239 26.5165L87.3388 26.6493L86.8035 27.0517C86.6828 27.1362 86.554 27.2368 86.4011 27.3414C86.2482 27.4461 86.0791 27.5386 85.8981 27.6513L85.3065 28.0055C85.0779 28.1342 84.8428 28.251 84.6022 28.3556C83.3943 28.9375 82.1054 29.3337 80.7791 29.5307C79.0161 29.8127 77.2153 29.7525 75.475 29.3536L74.7426 29.1926C74.4971 29.1202 74.2597 29.0317 74.0142 28.9512C73.7687 28.8707 73.5152 28.7983 73.2777 28.6815L72.5453 28.3516L71.8531 27.9974H71.8209L71.1006 27.595C70.8591 27.4461 70.6378 27.269 70.4044 27.108C70.1645 26.9479 69.9347 26.7732 69.7162 26.5849C69.2606 26.2129 68.8317 25.8095 68.4324 25.3776C68.2312 25.1562 68.03 24.9429 67.8207 24.7055L67.0601 23.6954C67.0351 23.6635 67.0122 23.6299 66.9917 23.5948L66.7462 23.1924C66.5893 22.9227 66.4122 22.6611 66.2633 22.3875C65.9675 21.8147 65.7094 21.2232 65.4907 20.6168C65.2579 19.9804 65.0709 19.3281 64.9313 18.665C64.8629 18.339 64.8266 18.005 64.7703 17.671C64.7502 17.5019 64.7099 17.337 64.7019 17.1679L64.6818 16.6528C64.6376 15.9627 64.6376 15.2704 64.6818 14.5803C64.7301 14.2342 64.7783 13.8881 64.8226 13.538L64.8588 13.2764L64.9192 13.0188L65.0399 12.5037L65.1647 11.9806L65.3337 11.4735L65.5068 10.9624L65.5953 10.7089L65.7039 10.4594L66.6497 8.60415L66.71 8.50354C68.276 5.94294 70.636 3.96444 73.4307 2.86947L73.5594 2.82118L75.5193 2.2296L75.7809 2.16119L76.0465 2.12095L76.5817 2.04046L77.1089 1.95997L77.6441 1.9318L78.1754 1.90363H78.441H78.7025L79.7529 1.94388C80.4401 2.01476 81.1217 2.13173 81.7932 2.29399L82.2922 2.4107C82.4572 2.44692 82.6142 2.51533 82.7752 2.56362C83.0931 2.67631 83.4191 2.77289 83.7289 2.89362C84.3398 3.14678 84.9328 3.44123 85.5037 3.77495C86.0637 4.09512 86.6015 4.45276 87.1134 4.84542C87.3629 5.04261 87.5923 5.24785 87.8297 5.46517L88.1839 5.77504L88.2724 5.85955L89.1296 6.78515C89.3308 7.01454 89.5039 7.26807 89.689 7.50148C90.0459 7.98153 90.3712 8.48429 90.6629 9.00658C90.8106 9.25546 90.9449 9.51204 91.0653 9.77523C91.182 10.0328 91.3188 10.2823 91.4235 10.5439L91.7052 11.3286C91.7535 11.4574 91.8017 11.5862 91.846 11.7311V11.7673C91.9426 12.1496 92.0392 12.5279 92.1358 12.8981C92.2082 13.1557 92.2243 13.4173 92.2726 13.6708C92.3209 13.9243 92.3531 14.1819 92.3853 14.4314C92.4175 14.6809 92.4134 14.9344 92.4255 15.1799C92.5168 16.9627 92.2612 18.7463 91.673 20.4317C91.2419 21.7083 90.6191 22.912 89.8258 24.0012C89.6568 24.2226 89.528 24.452 89.359 24.6331L88.9083 25.1039C88.7674 25.2649 88.6426 25.4178 88.5058 25.5466L88.1517 25.8846L87.6688 26.3394C87.5722 26.4601 87.5199 26.5165 87.5199 26.5165Z" fill="#E0E0E0"/>
<path d="M90.4606 34.2264C90.2276 34.5355 89.9198 34.7802 89.5662 34.9375C89.2126 35.0949 88.8248 35.1597 88.4392 35.1259C88.0537 35.0921 87.6831 34.9607 87.3622 34.7443C87.0414 34.5278 86.7809 34.2332 86.6053 33.8884C86.4119 33.5105 86.329 33.0858 86.366 32.663C86.403 32.2402 86.5585 31.8364 86.8145 31.4979C87.1827 31.0322 87.7181 30.7287 88.3068 30.6519C88.8954 30.5752 89.4908 30.7313 89.9661 31.0869C90.4413 31.4426 90.759 31.9698 90.8513 32.5562C90.9437 33.1426 90.8035 33.7418 90.4606 34.2264Z" fill="white"/>
<path d="M90.0973 34.6064C90.0973 34.6064 90.1416 34.5822 90.2141 34.5219C90.3221 34.4314 90.4194 34.3288 90.5038 34.216C90.7699 33.8602 90.9278 33.4352 90.9585 32.9919C90.9892 32.5487 90.8914 32.106 90.6769 31.7169C90.4723 31.3501 90.1736 31.0445 89.8116 30.8315C89.4114 30.5936 88.9479 30.4841 88.4836 30.5176C87.9828 30.5452 87.5044 30.7341 87.1199 31.0562C86.7354 31.3783 86.4656 31.8162 86.3507 32.3044C86.2395 32.7566 86.2662 33.2318 86.4272 33.6687C86.5738 34.062 86.8224 34.4092 87.1475 34.6748C87.4309 34.904 87.7647 35.0626 88.1214 35.1376C88.6347 35.2494 89.1709 35.1797 89.6386 34.9404C89.7653 34.8787 89.883 34.8002 89.9887 34.707C90.0652 34.6466 90.1014 34.6104 90.0973 34.6064C90.0933 34.6023 89.9323 34.7311 89.6104 34.88C89.1514 35.0887 88.6359 35.1382 88.1455 35.0209C87.8619 34.9533 87.5945 34.8304 87.3585 34.6592C87.1225 34.488 86.9227 34.2718 86.7705 34.0231C86.6183 33.7745 86.5167 33.4982 86.4716 33.2101C86.4265 32.9221 86.4388 32.628 86.5076 32.3447C86.6182 31.8914 86.8707 31.4852 87.2283 31.1855C87.586 30.8858 88.03 30.7082 88.4957 30.6786C88.9286 30.6483 89.3605 30.7493 89.7352 30.9684C90.0697 31.161 90.3474 31.4387 90.54 31.7732C90.7496 32.1413 90.8506 32.5611 90.8314 32.9842C90.8121 33.4072 90.6734 33.8162 90.4314 34.1637C90.2463 34.4695 90.0813 34.5943 90.0973 34.6064Z" fill="#E0E0E0"/>
<path d="M74.2426 13.5051H76.3513C76.3502 13.2641 76.3974 13.0253 76.4904 12.8029C76.5833 12.5805 76.72 12.379 76.8923 12.2105C77.0646 12.0419 77.269 11.9097 77.4934 11.8217C77.7178 11.7337 77.9576 11.6917 78.1985 11.6982C78.5544 11.6853 78.9055 11.7838 79.2027 11.9801C79.5 12.1763 79.7285 12.4604 79.8565 12.7928C79.9675 13.0698 80.0114 13.3691 79.9849 13.6663C79.9583 13.9635 79.8619 14.2502 79.7036 14.5031C79.3454 15.0947 78.5607 15.634 77.1361 15.3845V20.1533H79.2247V17.3363C80.0832 17.085 80.8354 16.5585 81.3655 15.838C81.8956 15.1174 82.1742 14.2426 82.1584 13.3482C82.1584 10.2534 79.3857 9.53711 78.1985 9.53711C77.293 9.55723 74.2023 9.77455 74.2426 13.5051Z" fill="#E0E0E0"/>
<path d="M79.2517 21.1367H77.1309V23.1207H79.2517V21.1367Z" fill="#E0E0E0"/>
<path d="M49.9789 73.2507H52.0957C52.0945 73.0097 52.1418 72.7709 52.2348 72.5485C52.3277 72.3261 52.4643 72.1246 52.6366 71.9561C52.8089 71.7875 53.0134 71.6553 53.2378 71.5673C53.4621 71.4793 53.7019 71.4373 53.9429 71.4438C54.2977 71.4314 54.6475 71.5298 54.9439 71.7252C55.2402 71.9206 55.4685 72.2034 55.5969 72.5344C55.7097 72.8115 55.7551 73.1115 55.7292 73.4095C55.7033 73.7076 55.6069 73.9953 55.448 74.2488C55.0898 74.8403 54.301 75.3796 52.8764 75.1261V79.8949H54.9691V77.102C55.8276 76.8507 56.5798 76.3243 57.1099 75.6037C57.6399 74.8831 57.9185 74.0083 57.9028 73.1139C57.9028 70.0192 55.1301 69.2988 53.9429 69.2988C53.0334 69.2988 49.9387 69.5202 49.9789 73.2507Z" fill="#E0E0E0"/>
<path d="M54.9939 80.8809H52.873V82.8649H54.9939V80.8809Z" fill="#E0E0E0"/>
<path d="M144.882 88.7258L142.511 87.2207C142.511 87.2207 141.244 89.2328 139.151 87.933C138.741 87.6942 138.416 87.3329 138.221 86.8998C138.027 86.4666 137.974 85.9835 138.068 85.5184C138.14 85.1276 138.303 84.7593 138.544 84.4438C138.786 84.1283 139.098 83.8746 139.457 83.7034C140.282 83.301 141.55 83.2527 142.97 84.5485L146.367 79.1962L144.02 77.7031L142.028 80.8421C142.028 80.8421 138.197 79.6026 135.891 83.2285C133.686 86.7015 136.294 89.4824 137.622 90.3315C138.64 90.9875 142.27 92.9433 144.882 88.7258Z" fill="#E0E0E0"/>
<path d="M146.11 74.3726L144.697 76.5977L147.079 78.1101L148.492 75.885L146.11 74.3726Z" fill="#E0E0E0"/>
<path d="M50.8802 14.3919L48.9123 15.1686C49.003 15.3919 49.0477 15.6313 49.0437 15.8723C49.0398 16.1134 48.9871 16.3511 48.8891 16.5713C48.791 16.7915 48.6495 16.9897 48.473 17.1539C48.2965 17.3181 48.0886 17.4449 47.8619 17.5269C47.5364 17.6709 47.1741 17.7095 46.8255 17.6374C46.477 17.5652 46.1597 17.3859 45.9182 17.1244C45.7124 16.9083 45.561 16.6463 45.4763 16.3602C45.3916 16.074 45.3762 15.7718 45.4312 15.4785C45.5479 14.7944 46.0792 14.0056 47.4997 13.7158L45.7451 9.28906L43.8014 10.0577L44.8276 12.6293C44.1215 13.1789 43.6154 13.9452 43.3871 14.8104C43.1588 15.6756 43.221 16.5918 43.5639 17.4182C44.6988 20.2956 47.544 19.9455 48.6467 19.5109C49.4918 19.1889 52.2887 17.8609 50.8802 14.3919Z" fill="#E0E0E0"/>
<path d="M44.7009 6.38717L42.7285 7.17188L43.4626 9.01699L45.435 8.23229L44.7009 6.38717Z" fill="#E0E0E0"/>
<path d="M185.882 179.823C185.882 179.88 146.041 179.928 96.8793 179.928C47.7181 179.928 7.86914 179.88 7.86914 179.823C7.86914 179.767 47.71 179.719 96.8793 179.719C146.049 179.719 185.882 179.763 185.882 179.823Z" fill="#263238"/>
<path d="M157.241 108.874L154.146 107.489L172.574 84.2852L175.58 85.1182C176.029 85.242 176.43 85.4987 176.731 85.8547L179.725 89.38C179.932 89.6236 180.033 89.9391 180.007 90.2574C179.982 90.5756 179.831 90.8708 179.588 91.0782L158.903 108.636C158.677 108.829 158.401 108.954 158.107 108.996C157.812 109.038 157.512 108.996 157.241 108.874Z" fill="#455A64"/>
<path d="M178.139 107.241L174.791 110.058C174.608 110.214 174.387 110.319 174.15 110.361C173.913 110.404 173.669 110.382 173.443 110.299L170.924 109.402C170.61 109.285 170.349 109.057 170.191 108.762L156.484 82.9219L159.575 83.8193C159.974 83.9356 160.329 84.1665 160.597 84.4833L178.284 105.321C178.519 105.595 178.635 105.951 178.608 106.311C178.581 106.671 178.412 107.005 178.139 107.241Z" fill="#455A64"/>
<g opacity="0.3">
<path d="M157.241 108.876L154.146 107.491L172.574 84.2871L175.58 85.1201C176.029 85.2439 176.43 85.5007 176.731 85.8566L179.725 89.3819C179.932 89.6255 180.033 89.941 180.007 90.2593C179.982 90.5776 179.831 90.8727 179.588 91.0802L158.903 108.638C158.677 108.831 158.401 108.956 158.107 108.998C157.812 109.04 157.512 108.998 157.241 108.876Z" fill="black"/>
<path d="M178.139 107.241L174.791 110.058C174.608 110.214 174.387 110.319 174.15 110.361C173.913 110.404 173.669 110.382 173.443 110.299L170.924 109.402C170.61 109.285 170.349 109.057 170.191 108.762L156.484 82.9219L159.575 83.8193C159.974 83.9356 160.329 84.1665 160.597 84.4833L178.284 105.321C178.519 105.595 178.635 105.951 178.608 106.311C178.581 106.671 178.412 107.005 178.139 107.241Z" fill="black"/>
</g>
<path d="M176.138 88.2279L173.096 84.6441C172.767 84.256 172.185 84.2084 171.797 84.5377L150.841 102.323C150.453 102.652 150.405 103.234 150.734 103.622L153.776 107.206C154.105 107.594 154.687 107.641 155.075 107.312L176.031 89.5268C176.419 89.1975 176.467 88.6159 176.138 88.2279Z" fill="#455A64"/>
<path d="M152.173 86.2826L155.855 83.1578C156.018 83.0197 156.229 82.9519 156.442 82.9693C156.655 82.9867 156.852 83.0879 156.99 83.2507L174.863 104.312C175.022 104.498 175.099 104.74 175.079 104.983C175.059 105.227 174.943 105.452 174.757 105.611L171.164 108.66C170.978 108.818 170.736 108.896 170.493 108.876C170.249 108.856 170.023 108.74 169.865 108.554L152.08 87.5969C151.922 87.4105 151.844 87.169 151.864 86.9254C151.884 86.6818 152 86.4561 152.186 86.2979L152.173 86.2826Z" fill="#455A64"/>
<path d="M158.046 97.2402C157.078 98.2063 156.061 99.1223 155 99.9848C153.983 100.901 152.921 101.765 151.816 102.572C152.785 101.606 153.802 100.688 154.863 99.8239C155.879 98.9091 156.942 98.0468 158.046 97.2402Z" fill="white"/>
<path d="M171.926 85.3722C171.966 85.4165 170.429 86.7767 168.501 88.4106C166.574 90.0445 164.98 91.3282 164.944 91.2839C164.908 91.2397 166.437 89.8835 168.369 88.2496C170.3 86.6157 171.89 85.3279 171.926 85.3722Z" fill="white"/>
<path d="M158.734 93.9194C158.69 93.9556 157.503 92.5109 156.082 90.6999C154.662 88.889 153.547 87.3839 153.591 87.3477C154.531 88.3749 155.417 89.4494 156.247 90.5671C157.134 91.6407 157.964 92.7596 158.734 93.9194Z" fill="white"/>
<path d="M169.342 105.994C168.377 105.105 167.461 104.165 166.597 103.177C165.681 102.236 164.817 101.246 164.01 100.211C164.972 101.103 165.888 102.043 166.754 103.028C167.669 103.97 168.532 104.96 169.342 105.994Z" fill="white"/>
<path d="M11.1321 104.5L10.4922 102.118L27.7445 105.555L42.9847 84.125L44.8439 87.5859C44.9865 87.8491 45.0613 88.1437 45.0613 88.4431C45.0613 88.7425 44.9865 89.0371 44.8439 89.3003L31.6119 113.523C31.3764 113.953 31.0571 114.332 30.673 114.637C30.2888 114.942 29.8475 115.167 29.375 115.299C28.9025 115.431 28.4084 115.467 27.9217 115.406C27.4351 115.344 26.9657 115.185 26.5412 114.939L13.1885 107.201C12.6849 106.908 12.2441 106.519 11.8912 106.055C11.5383 105.592 11.2803 105.063 11.1321 104.5Z" fill="#3E7BFA"/>
<g opacity="0.3">
<path d="M11.1321 104.5L10.4922 102.118L27.7445 105.555L42.9847 84.125L44.8439 87.5859C44.9865 87.8491 45.0613 88.1437 45.0613 88.4431C45.0613 88.7425 44.9865 89.0371 44.8439 89.3003L31.6119 113.523C31.3764 113.953 31.0571 114.332 30.673 114.637C30.2888 114.942 29.8475 115.167 29.375 115.299C28.9025 115.431 28.4084 115.467 27.9217 115.406C27.4351 115.344 26.9657 115.185 26.5412 114.939L13.1885 107.201C12.6849 106.908 12.2441 106.519 11.8912 106.055C11.5383 105.592 11.2803 105.063 11.1321 104.5Z" fill="black"/>
</g>
<path d="M10.5409 100.983L13.0279 96.5804C13.1989 96.2765 13.4798 96.0496 13.8128 95.9463C14.1459 95.843 14.5058 95.8712 14.8188 96.0251L24.7991 100.915C25.1183 101.07 25.4853 101.096 25.823 100.986C26.1607 100.876 26.4428 100.64 26.6101 100.327L36.5099 81.7507C36.5977 81.5859 36.7182 81.4407 36.8642 81.3242C37.0102 81.2077 37.1784 81.1224 37.3586 81.0734C37.5389 81.0243 37.7272 81.0127 37.9121 81.0393C38.0969 81.0658 38.2744 81.1299 38.4335 81.2276L42.4579 83.7025C42.7565 83.8858 42.9734 84.1765 43.064 84.515C43.1546 84.8534 43.112 85.2136 42.9448 85.5215L30.0026 109.189C29.5844 109.954 28.8815 110.524 28.0461 110.775C27.2108 111.026 26.3102 110.937 25.5396 110.529L11.0882 102.883C10.9246 102.797 10.7801 102.679 10.6634 102.536C10.5466 102.392 10.4601 102.227 10.409 102.05C10.3578 101.872 10.3431 101.686 10.3658 101.503C10.3885 101.32 10.448 101.143 10.5409 100.983Z" fill="#3E7BFA"/>
<path d="M24.1188 102.041C23.9342 101.987 23.7551 101.916 23.5836 101.828L22.163 101.184C20.9557 100.629 19.3218 99.8522 17.5109 98.983L16.1869 98.3471L15.5591 98.0453C15.374 97.9432 15.1699 97.8802 14.9594 97.8602C14.766 97.8433 14.5712 97.8657 14.3865 97.9258C14.2019 97.986 14.0313 98.0827 13.8849 98.2103C13.6421 98.4614 13.4446 98.7528 13.3014 99.0715L12.5247 100.428C12.4365 100.598 12.3327 100.759 12.2148 100.911C12.2772 100.729 12.3567 100.554 12.4523 100.387L13.1686 98.9991L13.4101 98.5403C13.5016 98.3663 13.6228 98.2097 13.7682 98.0775C13.9322 97.9329 14.1236 97.8227 14.331 97.7536C14.5384 97.6844 14.7576 97.6577 14.9755 97.675C15.2107 97.6942 15.4394 97.7613 15.6476 97.8722L16.2754 98.17L17.5954 98.7938C19.4063 99.6631 21.0442 100.464 22.2234 101.051L23.6319 101.756C23.8016 101.838 23.9644 101.933 24.1188 102.041Z" fill="white"/>
<path d="M27.7763 101.24C27.724 101.212 29.8207 97.0665 32.4607 91.9838C35.1006 86.901 37.2899 82.7962 37.3301 82.8244C37.3704 82.8525 35.2858 86.9936 32.6458 92.0803C30.0058 97.1671 27.8246 101.264 27.7763 101.24Z" fill="white"/>
<path d="M69.3483 45.8737C70.2682 38.4672 65.0098 31.7173 57.6033 30.7974C50.1968 29.8775 43.4469 35.1359 42.527 42.5425C41.6071 49.949 46.8655 56.6989 54.272 57.6188C61.6785 58.5387 68.4284 53.2802 69.3483 45.8737Z" fill="white"/>
<path d="M69.4489 44.2023C69.4489 44.2023 69.4489 44.1298 69.4489 43.9849C69.4489 43.8401 69.4488 43.6187 69.4247 43.3411L69.4046 42.8662C69.4046 42.6931 69.3563 42.504 69.3281 42.2987C69.3 42.0935 69.2637 41.8722 69.2315 41.6388C69.1993 41.4053 69.1189 41.1599 69.0625 40.8983C68.7579 39.622 68.2584 38.4004 67.5816 37.2764C66.6986 35.7782 65.5327 34.4661 64.1488 33.413L63.5653 32.9744C63.36 32.8375 63.1427 32.7128 62.9294 32.5719C62.7161 32.4311 62.5029 32.2943 62.2694 32.1695L61.5652 31.8274L61.207 31.6584L60.8287 31.5216L60.0681 31.2399C59.8065 31.1513 59.5369 31.095 59.2633 31.0226C58.9984 30.9458 58.7297 30.8827 58.4584 30.8334C57.8908 30.7273 57.3167 30.6601 56.74 30.6322C56.4462 30.6322 56.1525 30.592 55.8547 30.596L54.9572 30.6403C54.8043 30.6403 54.6514 30.6403 54.5025 30.6684L54.0477 30.7368C53.7459 30.7851 53.4401 30.8213 53.1342 30.8857C52.5196 31.0212 51.9146 31.1974 51.3233 31.4129C50.7142 31.6299 50.1212 31.8895 49.5485 32.1896C49.2628 32.3425 48.9851 32.5236 48.6994 32.6927C48.5626 32.7812 48.4137 32.8577 48.297 32.9583L47.8945 33.2561C47.3532 33.6585 46.8383 34.0953 46.3532 34.564L45.661 35.3246L45.488 35.5177L45.331 35.723L45.0211 36.1254L44.7072 36.5279L44.4336 36.9746L44.1599 37.4213L44.0231 37.6506L43.9064 37.8881C43.7535 38.206 43.5965 38.5239 43.4436 38.8459C43.2907 39.1678 43.1981 39.5139 43.0734 39.852C42.1396 42.6357 42.1396 45.6481 43.0734 48.4318C43.1981 48.7699 43.3189 49.1039 43.4436 49.4379L43.9024 50.3997L44.0191 50.6372L44.1559 50.8625L44.4296 51.3133L44.7072 51.76L45.0171 52.1624L45.331 52.5648L45.488 52.7741L45.661 52.9632L46.3532 53.7238C46.8373 54.1936 47.3522 54.6306 47.8945 55.0317L48.297 55.3336C48.4298 55.4342 48.5787 55.5106 48.6994 55.5992C48.9851 55.7642 49.2588 55.9453 49.5485 56.1022C50.1212 56.4024 50.7142 56.6619 51.3233 56.8789C51.9146 57.0945 52.5196 57.2706 53.1342 57.4061C53.4401 57.4705 53.7459 57.5027 54.0477 57.555L54.5025 57.6234C54.6554 57.6435 54.8043 57.6234 54.9572 57.6516L55.8547 57.6959C56.1525 57.6959 56.4503 57.6717 56.74 57.6596C57.3167 57.6317 57.8908 57.5645 58.4584 57.4584C58.7298 57.4095 58.9985 57.3464 59.2633 57.2693C59.5329 57.1928 59.8025 57.1365 60.0681 57.052L60.8287 56.7703L61.207 56.6334L61.5652 56.4604L62.2694 56.1223C62.5029 56.0137 62.7121 55.8608 62.9294 55.7199C63.1467 55.5791 63.36 55.4623 63.5653 55.3175L64.1528 54.8788C65.5346 53.8246 66.6989 52.5126 67.5816 51.0155C68.2577 49.8911 68.7572 48.6696 69.0625 47.3936C69.1315 47.1498 69.1879 46.9026 69.2315 46.6531C69.2637 46.4156 69.3 46.1943 69.3281 45.9891C69.3563 45.7838 69.3885 45.5866 69.4046 45.4216C69.4207 45.2566 69.4046 45.0916 69.4247 44.9508C69.4247 44.6691 69.4448 44.4558 69.4489 44.3069C69.4529 44.158 69.4489 44.0856 69.4489 44.0856C69.4489 44.0856 69.4489 44.162 69.4489 44.3069C69.4489 44.4518 69.4287 44.6691 69.4086 44.9468C69.4086 45.0876 69.4086 45.2446 69.3804 45.4216C69.3523 45.5987 69.3281 45.7798 69.2959 45.985C69.2637 46.1903 69.2275 46.3875 69.1913 46.641C69.1472 46.8898 69.088 47.1358 69.0142 47.3775C68.7007 48.6413 68.1973 49.8503 67.5212 50.9631C66.6414 52.4832 65.4708 53.8151 64.0764 54.8828L63.4969 55.3175C63.2916 55.4503 63.0743 55.575 62.865 55.7199C62.6558 55.8648 62.4385 55.9936 62.2051 56.1022L61.5088 56.4362L61.1547 56.6053L60.7804 56.7421L60.0239 57.0157C59.7663 57.1003 59.4967 57.1566 59.219 57.229C58.9541 57.3047 58.6855 57.3665 58.4141 57.4141C57.8516 57.5172 57.283 57.583 56.7118 57.6113C56.4221 57.6113 56.1323 57.6476 55.8345 57.6435L54.9452 57.5952C54.7963 57.5952 54.6474 57.5952 54.4985 57.5671L54.0477 57.4987C53.7499 57.4504 53.4441 57.4141 53.1463 57.3538C52.5368 57.2188 51.9371 57.0427 51.3514 56.8266C50.7514 56.6098 50.1665 56.353 49.6008 56.0579C49.3151 55.901 49.0455 55.7239 48.7638 55.5549C48.6269 55.4664 48.478 55.3939 48.3613 55.2933L47.9589 54.9955C47.4219 54.5984 46.9124 54.1654 46.4337 53.6997L45.7656 52.9512L45.5926 52.762L45.4397 52.5568L45.1298 52.1543L44.8199 51.7519L44.5503 51.3092L44.2807 50.8625L44.1438 50.6412L44.0312 50.4038L43.5724 49.458L43.2102 48.46C42.2872 45.7103 42.2872 42.7345 43.2102 39.9848L43.5764 38.9867C43.7293 38.6728 43.8782 38.3549 44.0312 38.041L44.1479 37.8076L44.2807 37.5822L44.5503 37.1396L44.824 36.6969L45.1298 36.2944L45.4397 35.892L45.5926 35.6868L45.7656 35.4976L46.4498 34.7451C46.9281 34.2805 47.4363 33.8476 47.971 33.4492L48.3734 33.1555C48.5022 33.0549 48.6511 32.9784 48.7758 32.8899C49.0576 32.7249 49.3272 32.5438 49.6129 32.3908C50.1786 32.0958 50.7634 31.839 51.3635 31.6222C51.9492 31.4061 52.5488 31.23 53.1583 31.095C53.4561 31.0346 53.762 30.9984 54.0598 30.9501L54.5105 30.8817C54.6594 30.8616 54.8083 30.8616 54.9572 30.8495L55.8466 30.8053C56.1444 30.8053 56.4342 30.8294 56.7239 30.8374C57.295 30.866 57.8637 30.9319 58.4262 31.0346C58.6979 31.0804 58.9667 31.1422 59.2311 31.2198C59.4967 31.2922 59.7663 31.3485 60.0359 31.433L60.7925 31.7067L61.1627 31.8435L61.5209 32.0126L62.2171 32.3466C62.4505 32.4512 62.6558 32.6041 62.8731 32.7249C63.0904 32.8456 63.3037 32.9784 63.5089 33.1273L64.0884 33.5579C65.4638 34.6002 66.6264 35.8966 67.5131 37.377C68.1886 38.4902 68.6919 39.6991 69.0062 40.9627C69.0791 41.2046 69.1382 41.4505 69.1832 41.6991C69.2195 41.9366 69.2557 42.1539 69.2879 42.3591C69.3201 42.5644 69.3563 42.7615 69.3724 42.9225C69.3885 43.0835 69.3925 43.2525 69.4006 43.3974C69.4207 43.6751 69.4328 43.8884 69.4408 44.0373C69.4489 44.1862 69.4489 44.2023 69.4489 44.2023Z" fill="#263238"/>
<path d="M74.5879 52.6973C74.5879 53.1319 74.4591 53.5567 74.2176 53.918C73.9762 54.2794 73.633 54.561 73.2315 54.7273C72.83 54.8936 72.3882 54.9371 71.962 54.8524C71.5357 54.7676 71.1442 54.5583 70.8369 54.251C70.5296 53.9437 70.3204 53.5522 70.2356 53.126C70.1508 52.6997 70.1943 52.2579 70.3606 51.8564C70.5269 51.4549 70.8086 51.1118 71.1699 50.8703C71.5312 50.6289 71.9561 50.5 72.3906 50.5C72.6793 50.4995 72.9653 50.5559 73.2321 50.6662C73.499 50.7764 73.7414 50.9382 73.9455 51.1424C74.1497 51.3465 74.3115 51.589 74.4218 51.8558C74.532 52.1226 74.5885 52.4086 74.5879 52.6973Z" fill="white"/>
<path d="M74.5884 52.6969C74.5884 52.6969 74.5884 52.6486 74.5884 52.556C74.5896 52.4206 74.5747 52.2855 74.5441 52.1536C74.4306 51.6562 74.1457 51.2145 73.7393 50.906C73.4689 50.6852 73.1505 50.5308 72.8097 50.4553C72.4062 50.3779 71.9893 50.4098 71.6024 50.5479C71.175 50.7027 70.8046 50.9833 70.5399 51.3527C70.2526 51.7428 70.0977 52.2145 70.0977 52.6989C70.0977 53.1833 70.2526 53.655 70.5399 54.045C70.8046 54.4145 71.175 54.6951 71.6024 54.8499C71.9885 54.9919 72.4064 55.024 72.8097 54.9425C73.2309 54.8589 73.6192 54.6558 73.9282 54.3575C74.2372 54.0592 74.4538 53.6783 74.5522 53.2603C74.5828 53.1284 74.5977 52.9933 74.5965 52.8579C74.5965 52.7653 74.5965 52.717 74.5965 52.717C74.5965 52.717 74.5965 52.9142 74.4959 53.2482C74.3885 53.6426 74.1716 53.9986 73.8703 54.2749C73.5691 54.5512 73.1958 54.7366 72.7936 54.8097C72.4183 54.8755 72.0323 54.8408 71.6748 54.709C71.2805 54.5666 70.9383 54.3085 70.6929 53.9686C70.4261 53.6058 70.2823 53.1673 70.2823 52.717C70.2823 52.2667 70.4261 51.8282 70.6929 51.4654C70.9395 51.1267 71.2813 50.8689 71.6748 50.725C72.0323 50.5932 72.4183 50.5585 72.7936 50.6243C73.1963 50.6977 73.5699 50.8837 73.8712 51.1607C74.1725 51.4378 74.3891 51.7946 74.4959 52.1898C74.5804 52.4997 74.5723 52.6969 74.5884 52.6969Z" fill="#263238"/>
<path d="M51.4924 45.2676V47.1068H50.0436V45.2475L48.0918 42.0039H49.617L50.8243 44.0402L52.0316 42.0039H53.4361L51.4924 45.2676Z" fill="#263238"/>
<path d="M57.9032 45.988V47.1068H53.8145V42.0039H57.8388V43.1267H55.2592V43.9879H57.5329V45.0704H55.2592V46.0081L57.9032 45.988Z" fill="#263238"/>
<path d="M58.3457 46.6457L58.8206 45.5793C59.327 45.8993 59.9118 46.0733 60.5108 46.0823C61.1104 46.0823 61.3438 45.9133 61.3438 45.6799C61.3438 44.875 58.4342 45.4586 58.4342 43.5591C58.4342 42.6415 59.1828 41.897 60.704 41.897C61.3502 41.8862 61.9887 42.0399 62.5592 42.3437L62.1125 43.4182C61.6806 43.1695 61.194 43.0312 60.6959 43.0158C60.0882 43.0158 59.8669 43.221 59.8669 43.4746C59.8669 44.2794 62.7725 43.6718 62.7725 45.5592C62.7725 46.4526 62.0239 47.2132 60.5027 47.2132C59.7446 47.231 58.9969 47.0343 58.3457 46.6457Z" fill="#263238"/>
<path d="M144.346 67.089C152.296 66.0776 157.921 58.8124 156.91 50.8619C155.898 42.9114 148.633 37.2861 140.683 38.2975C132.732 39.309 127.107 46.5741 128.118 54.5246C129.13 62.4752 136.395 68.1004 144.346 67.089Z" fill="white"/>
<path d="M128 52.7048C128 52.7048 128 52.6243 128 52.4674C128 52.3104 128 52.065 128.028 51.7792L128.048 51.2681C128.048 51.083 128.1 50.8657 128.132 50.6605C128.165 50.4552 128.197 50.2017 128.237 49.9482C128.281 49.6764 128.341 49.4076 128.418 49.1433C128.747 47.7753 129.283 46.4656 130.008 45.2598C130.957 43.6525 132.207 42.2437 133.69 41.1107L134.318 40.6399C134.539 40.495 134.773 40.3622 135.002 40.2374C135.231 40.1127 135.461 39.9396 135.714 39.835L136.467 39.4728L136.869 39.2877L137.272 39.1388L138.077 38.837C138.354 38.7444 138.648 38.6841 138.934 38.6036C139.224 38.5204 139.518 38.4532 139.815 38.4023C140.424 38.2889 141.04 38.2163 141.658 38.185C141.976 38.185 142.29 38.1408 142.612 38.1448L143.578 38.1931C143.739 38.1931 143.9 38.1931 144.065 38.2253L144.552 38.2977C144.874 38.35 145.204 38.3903 145.534 38.4547C146.193 38.6036 146.842 38.7931 147.477 39.0221C148.131 39.2558 148.767 39.5356 149.381 39.8592C149.691 40.0242 149.989 40.2173 150.29 40.3984C150.443 40.495 150.6 40.5755 150.745 40.6841L151.172 41.0061C151.756 41.4362 152.31 41.9055 152.83 42.4106L153.574 43.2154L153.759 43.4207L153.928 43.642L154.262 44.0887L154.596 44.5354L154.894 45.0184L155.188 45.5013L155.333 45.7427L155.458 45.9963C155.623 46.3383 155.788 46.6844 155.957 47.0265C156.126 47.3686 156.218 47.7468 156.359 48.109C157.368 51.0968 157.368 54.333 156.359 57.3207C156.226 57.6829 156.098 58.0451 155.957 58.4033L155.462 59.4335L155.337 59.687L155.188 59.9285L154.894 60.4155L154.601 60.8943L154.262 61.341L153.928 61.7918L153.759 62.0131L153.574 62.2183L152.83 63.0232C152.309 63.5262 151.757 63.9953 151.176 64.4277L150.745 64.7497C150.6 64.8543 150.443 64.9388 150.294 65.0314C149.989 65.2125 149.691 65.4097 149.385 65.5746C148.768 65.8946 148.131 66.1729 147.477 66.4077C146.842 66.6409 146.191 66.8305 145.53 66.9751C145.204 67.0435 144.874 67.0797 144.548 67.1321L144.065 67.2085C143.9 67.2286 143.739 67.2286 143.574 67.2367L142.612 67.285C142.29 67.285 141.972 67.2568 141.658 67.2488C141.04 67.2164 140.424 67.1425 139.815 67.0274C139.517 66.9789 139.223 66.9117 138.934 66.8262C138.644 66.7457 138.354 66.6854 138.077 66.5928L137.272 66.291L136.869 66.1461L136.467 65.961L135.71 65.5948C135.461 65.4781 135.235 65.3171 135.002 65.1923C134.769 65.0676 134.539 64.9187 134.318 64.7698L133.69 64.2989C132.205 63.1671 130.953 61.7581 130.004 60.1498C129.28 58.9438 128.746 57.6342 128.418 56.2664C128.341 56.0021 128.281 55.7333 128.237 55.4615C128.197 55.208 128.165 54.9705 128.132 54.7532C128.1 54.5359 128.064 54.3508 128.048 54.1415C128.032 53.9323 128.048 53.7874 128.028 53.6344C128.028 53.3326 128.008 53.1032 128 52.9423C127.992 52.7813 128 52.7089 128 52.7089C128 52.7089 128 52.7893 128.02 52.9423C128.04 53.0952 128.048 53.3447 128.064 53.6304C128.064 53.7833 128.084 53.9524 128.096 54.1375C128.108 54.3226 128.153 54.5399 128.185 54.7452C128.217 54.9504 128.257 55.1999 128.297 55.4494C128.338 55.6989 128.422 55.9645 128.487 56.2543C128.827 57.6115 129.37 58.9098 130.096 60.1056C131.048 61.6958 132.297 63.088 133.775 64.2064L134.398 64.6692C134.616 64.8141 134.849 64.9469 135.078 65.0716C135.306 65.2175 135.541 65.3519 135.783 65.474L136.531 65.8322L136.934 66.0133L137.336 66.1622L138.141 66.456C138.419 66.5485 138.708 66.6089 138.994 66.6854C139.281 66.7681 139.573 66.8339 139.867 66.8826C140.47 66.9949 141.079 67.0662 141.69 67.0958C142.004 67.0958 142.318 67.1361 142.632 67.1321L143.59 67.0797C143.747 67.0797 143.912 67.0797 144.069 67.0516L144.552 66.9751C144.874 66.9228 145.2 66.8866 145.522 66.8182C146.176 66.673 146.82 66.4848 147.449 66.2548C148.094 66.0219 148.722 65.745 149.329 65.4257C149.634 65.2607 149.928 65.0676 150.23 64.8905C150.375 64.7939 150.536 64.7134 150.673 64.6088L151.099 64.2909C151.675 63.8625 152.222 63.3974 152.737 62.8985L153.47 62.0936L153.655 61.8924L153.82 61.671L154.15 61.2284L154.484 60.7857L154.774 60.3108L155.063 59.8319L155.208 59.5945L155.333 59.341C155.494 59.0029 155.659 58.6649 155.82 58.3228C155.981 57.9807 156.081 57.6105 156.222 57.2563C156.695 55.7832 156.944 54.2477 156.963 52.7008C156.945 51.1548 156.694 49.6204 156.218 48.1493L155.816 47.0828C155.651 46.7408 155.49 46.4027 155.325 46.0647L155.204 45.8111L155.059 45.5737L154.766 45.0948L154.476 44.6199L154.146 44.1773L153.816 43.7346L153.651 43.5173L153.466 43.312L152.733 42.5072C152.218 42.0095 151.671 41.5458 151.095 41.1188L150.669 40.8008C150.528 40.6922 150.371 40.6117 150.226 40.5191C149.924 40.338 149.63 40.1489 149.325 39.9799C148.121 39.3547 146.841 38.888 145.518 38.5915C145.196 38.5231 144.87 38.4869 144.548 38.4305L144.069 38.3581C143.908 38.338 143.747 38.338 143.586 38.3259L142.628 38.2776C142.314 38.2776 142 38.3017 141.69 38.3138C141.077 38.3413 140.467 38.4125 139.863 38.5271C139.568 38.5723 139.276 38.6382 138.99 38.7243C138.704 38.8008 138.415 38.8611 138.137 38.9497L137.332 39.2475L136.93 39.3923L136.527 39.5734L135.779 39.9316C135.529 40.0483 135.308 40.2093 135.074 40.334C134.841 40.4588 134.616 40.6037 134.394 40.7365L133.771 41.2033C132.293 42.3219 131.044 43.7141 130.092 45.3041C129.366 46.4988 128.824 47.7956 128.483 49.1513C128.418 49.433 128.326 49.6906 128.293 49.9562C128.261 50.2218 128.217 50.4432 128.181 50.6645C128.145 50.8858 128.112 51.0669 128.092 51.2681C128.072 51.4694 128.068 51.6263 128.06 51.7752L128.016 52.4634C128.012 52.6243 128 52.7048 128 52.7048Z" fill="#263238"/>
<path d="M122.48 61.8251C122.48 62.2926 122.618 62.7499 122.877 63.139C123.136 63.5281 123.505 63.8315 123.937 64.0108C124.369 64.1901 124.844 64.2372 125.303 64.1462C125.761 64.0551 126.183 63.8301 126.513 63.4995C126.844 63.1689 127.069 62.7476 127.16 62.289C127.251 61.8303 127.204 61.355 127.024 60.9232C126.845 60.4914 126.542 60.1225 126.153 59.8632C125.764 59.604 125.306 59.466 124.839 59.4668C124.214 59.4679 123.614 59.7167 123.172 60.1587C122.73 60.6007 122.482 61.1999 122.48 61.8251Z" fill="white"/>
<path d="M122.481 61.8252C122.475 61.7758 122.475 61.7258 122.481 61.6763C122.48 61.53 122.496 61.3841 122.53 61.2417C122.649 60.7092 122.951 60.2353 123.383 59.9016C123.681 59.6684 124.03 59.5098 124.401 59.4388C124.802 59.3579 125.216 59.3792 125.607 59.5007C125.997 59.6223 126.351 59.8401 126.634 60.1343C126.918 60.4284 127.124 60.7893 127.232 61.1836C127.339 61.578 127.346 61.9931 127.251 62.3908C127.156 62.7884 126.963 63.1558 126.688 63.4589C126.414 63.762 126.068 63.9912 125.682 64.1253C125.295 64.2595 124.882 64.2941 124.478 64.2262C124.075 64.1583 123.696 63.99 123.375 63.7368C122.942 63.4038 122.64 62.9295 122.522 62.3967C122.488 62.2556 122.472 62.111 122.473 61.9661C122.467 61.9153 122.467 61.8639 122.473 61.8131C122.493 61.8131 122.473 62.0224 122.582 62.3806C122.721 62.8847 123.024 63.328 123.443 63.6402C123.75 63.8683 124.108 64.0165 124.486 64.0713C124.864 64.1261 125.25 64.0858 125.608 63.9541C126.033 63.7985 126.401 63.5179 126.663 63.1492C126.95 62.7601 127.105 62.289 127.105 61.8051C127.105 61.3212 126.95 60.8501 126.663 60.461C126.401 60.0923 126.033 59.8116 125.608 59.6561C125.222 59.5154 124.806 59.4793 124.401 59.5515C124.052 59.6094 123.722 59.7471 123.435 59.9539C123.016 60.2661 122.713 60.7094 122.574 61.2135C122.493 61.6159 122.502 61.8252 122.481 61.8252Z" fill="#263238"/>
<path d="M141.839 49.4336V55.5667H140.411L137.702 52.2989V55.5667H136.004V49.4336H137.433L140.141 52.7014V49.4336H141.839Z" fill="#263238"/>
<path d="M142.752 52.4999C142.752 50.6608 144.197 49.3086 146.161 49.3086C148.124 49.3086 149.569 50.6608 149.569 52.4999C149.569 54.339 148.124 55.6912 146.161 55.6912C144.197 55.6912 142.752 54.339 142.752 52.4999ZM147.819 52.4999C147.8 52.1768 147.687 51.8662 147.493 51.6065C147.3 51.3469 147.035 51.1495 146.731 51.0386C146.427 50.9278 146.097 50.9085 145.782 50.9829C145.467 51.0574 145.181 51.2224 144.958 51.4577C144.736 51.693 144.587 51.9882 144.531 52.3069C144.474 52.6256 144.512 52.9539 144.64 53.2513C144.768 53.5487 144.98 53.8021 145.25 53.9804C145.52 54.1587 145.837 54.254 146.161 54.2545C146.387 54.2573 146.612 54.213 146.821 54.1245C147.03 54.036 147.218 53.9053 147.374 53.7404C147.53 53.5756 147.65 53.3802 147.726 53.1667C147.803 52.9532 147.834 52.7262 147.819 52.4999Z" fill="#263238"/>
<path d="M121.234 32.2336C127.67 29.7009 130.831 22.4201 128.293 15.9714C125.756 9.52269 118.481 6.34818 112.045 8.8809C105.608 11.4136 102.448 18.6945 104.985 25.1432C107.523 31.5918 114.798 34.7664 121.234 32.2336Z" fill="white"/>
<path d="M111.645 32.049L111.834 32.1254L112.389 32.3427L112.792 32.5037C112.945 32.552 113.118 32.5922 113.303 32.6446L113.902 32.8055C114.132 32.8624 114.364 32.9068 114.599 32.9383C115.795 33.1486 117.016 33.1744 118.221 33.0148C119.823 32.823 121.372 32.3228 122.784 31.5419L123.376 31.2079C123.565 31.0831 123.754 30.9423 123.943 30.8054C124.132 30.6686 124.346 30.5438 124.515 30.403L125.066 29.9281L125.573 29.4492L125.601 29.417C125.774 29.24 125.947 29.0548 126.12 28.8738C126.293 28.6927 126.438 28.4713 126.599 28.2741C126.766 28.0624 126.919 27.8406 127.058 27.6101C127.357 27.1671 127.626 26.7047 127.863 26.2257C127.98 25.9803 128.116 25.7388 128.221 25.4853L128.623 24.4148L128.668 24.2981L128.776 23.8956C128.845 23.618 128.929 23.3443 128.99 23.0626C129.101 22.4884 129.174 21.9077 129.211 21.3241C129.251 20.7265 129.251 20.1269 129.211 19.5292C129.187 19.2274 129.135 18.9256 129.094 18.6238C129.07 18.4708 129.062 18.3179 129.026 18.165L128.917 17.7143C128.818 17.225 128.683 16.7436 128.515 16.2736C128.422 16.0401 128.326 15.8067 128.233 15.5693L127.863 14.8288L127.742 14.6196L127.505 14.2171L127.263 13.8147L126.986 13.4123L126.704 13.0098L126.563 12.8086L126.402 12.6195L125.13 11.2753L125.038 11.1868C123.015 9.36255 120.452 8.24902 117.738 8.01562H117.621H115.758H115.512L115.267 8.05184L114.784 8.11623L114.301 8.18465L113.83 8.29733L113.363 8.41001L113.13 8.46635L112.361 8.72793L111.653 9.00561C111.192 9.19963 110.744 9.42415 110.313 9.67767L109.91 9.91109C109.778 9.98755 109.657 10.0841 109.532 10.1686C109.283 10.3497 109.029 10.5188 108.788 10.7039C107.868 11.4525 107.05 12.3169 106.353 13.2754C106.188 13.5088 106.043 13.7583 105.89 13.9998L105.665 14.358C105.643 14.3901 105.625 14.4237 105.608 14.4586C105.439 14.8047 105.27 15.1427 105.101 15.4808C104.989 15.7343 104.904 15.9959 104.807 16.2494C104.618 16.7505 104.463 17.2642 104.345 17.7867C104.281 18.0397 104.232 18.2964 104.2 18.5554C104.164 18.8089 104.111 19.0624 104.091 19.316C104.071 19.5695 104.059 19.823 104.047 20.0725V20.805C104.047 21.0504 104.067 21.2919 104.075 21.5334C104.083 21.7748 104.135 22.0042 104.16 22.2376C104.184 22.471 104.22 22.6964 104.26 22.9218L104.417 23.5817C104.802 25.1476 105.486 26.6246 106.429 27.9321C107.137 28.9194 107.99 29.7933 108.961 30.5237C109.142 30.6687 109.331 30.8031 109.528 30.9262L110.055 31.2562C110.22 31.3527 110.369 31.4533 110.51 31.5298L110.912 31.723L111.452 31.9805L111.637 32.065L111.46 31.9685L110.928 31.6948L110.526 31.4976C110.385 31.4171 110.236 31.3165 110.075 31.2159L109.552 30.8859C109.359 30.7613 109.172 30.627 108.993 30.4835C108.045 29.7341 107.216 28.8454 106.534 27.8475C105.59 26.5504 104.907 25.0826 104.522 23.5254C104.469 23.3081 104.417 23.0908 104.369 22.8694C104.321 22.6481 104.304 22.4187 104.272 22.1893C104.233 21.9575 104.206 21.7238 104.192 21.4891C104.192 21.2557 104.172 21.0142 104.164 20.7728C104.156 20.5313 104.164 20.2657 104.164 20.0766V20.0403L104.212 19.2958C104.232 19.0423 104.284 18.7968 104.321 18.5433C104.355 18.2873 104.403 18.0334 104.465 17.7827C104.59 17.2613 104.75 16.749 104.944 16.2494C105.041 15.9999 105.125 15.7383 105.238 15.4928C105.403 15.1548 105.572 14.8167 105.741 14.4747C105.741 14.4425 105.777 14.4103 105.797 14.3781C105.87 14.2614 105.946 14.1447 106.019 14.024C106.172 13.7865 106.317 13.541 106.482 13.3076C106.821 12.8412 107.191 12.3975 107.588 11.9796C107.994 11.5475 108.43 11.1441 108.892 10.7723C109.13 10.5872 109.383 10.4222 109.629 10.2451C109.753 10.1606 109.87 10.06 110.003 9.98755L110.405 9.75816C110.943 9.45393 111.499 9.18507 112.071 8.95329L112.965 8.65147L113.19 8.57501L113.42 8.51867L113.882 8.41001L114.349 8.29733L114.828 8.23294L115.303 8.16452L115.544 8.13233H115.786H117.637H117.746C120.427 8.36255 122.96 9.46351 124.957 11.2673L125.046 11.3518L126.305 12.6839L126.466 12.869L126.603 13.0662L126.885 13.4686L127.159 13.871L127.396 14.2735L127.633 14.6759L127.75 14.8811L127.847 15.0985C127.98 15.3842 128.108 15.6699 128.249 15.9556C128.467 16.5349 128.647 17.1277 128.788 17.7304L128.893 18.1771C128.929 18.326 128.937 18.4789 128.962 18.6278C129.002 18.9296 129.054 19.2274 129.078 19.5252C129.12 20.116 129.12 20.7091 129.078 21.3C129.044 21.8768 128.973 22.4508 128.865 23.0183C128.805 23.3 128.724 23.5697 128.656 23.8232L128.547 24.2256C128.539 24.2612 128.528 24.2962 128.515 24.3303L128.112 25.3927C128.008 25.6462 127.875 25.8837 127.762 26.1251C127.524 26.601 127.256 27.0608 126.957 27.5015C126.817 27.7185 126.664 27.9268 126.499 28.1252C126.342 28.3264 126.193 28.5277 126.028 28.7208L125.513 29.2641L125.259 29.5297L125.235 29.5539L124.43 30.242C124.253 30.399 124.048 30.5197 123.863 30.6445C123.678 30.7692 123.488 30.9181 123.299 31.0469L122.716 31.3809C121.327 32.185 119.794 32.7113 118.204 32.9303C117.008 33.0965 115.794 33.0788 114.603 32.878C114.37 32.8506 114.139 32.8103 113.911 32.7572L113.311 32.6003C113.126 32.552 112.953 32.5158 112.8 32.4675L112.397 32.3146L111.834 32.1133L111.645 32.049Z" fill="#263238"/>
<path d="M106.643 37.4972C106.207 37.4182 105.809 37.1995 105.509 36.8743C105.208 36.5491 105.022 36.135 104.977 35.6944C104.933 35.2538 105.033 34.8107 105.262 34.4321C105.492 34.0534 105.838 33.7596 106.249 33.5952C106.661 33.4307 107.114 33.4045 107.541 33.5204C107.969 33.6363 108.347 33.8882 108.618 34.2379C108.89 34.5876 109.041 35.0162 109.047 35.4589C109.054 35.9017 108.916 36.3346 108.655 36.6923C108.429 37.0015 108.12 37.241 107.765 37.3833C107.409 37.5256 107.02 37.5651 106.643 37.4972Z" fill="white"/>
<path d="M106.191 37.357C106.191 37.357 106.231 37.3851 106.307 37.4173C106.423 37.4685 106.545 37.505 106.669 37.526C107.133 37.6161 107.613 37.5406 108.026 37.3127C108.334 37.144 108.594 36.9002 108.782 36.604C108.971 36.3078 109.082 35.9688 109.104 35.6185C109.138 35.197 109.041 34.7754 108.827 34.4112C108.6 34.0232 108.255 33.7185 107.842 33.5423C107.428 33.3662 106.969 33.3279 106.533 33.4332C106.143 33.5224 105.787 33.7214 105.506 34.0067C105.226 34.2919 105.033 34.6516 104.951 35.043C104.883 35.3621 104.889 35.6928 104.971 36.0088C105.087 36.4654 105.359 36.867 105.74 37.1437C105.841 37.2195 105.95 37.283 106.066 37.3328C106.142 37.369 106.187 37.3851 106.187 37.3771C106.187 37.369 106.026 37.2966 105.784 37.0994C105.432 36.8158 105.185 36.4217 105.084 35.9806C105.011 35.6818 105.011 35.37 105.084 35.0711C105.163 34.7275 105.334 34.4118 105.579 34.1576C105.846 33.8739 106.192 33.6775 106.573 33.5942C106.977 33.5049 107.399 33.5443 107.78 33.7069C108.162 33.8714 108.482 34.1533 108.694 34.5118C108.894 34.8461 108.988 35.2335 108.963 35.6225C108.942 35.9517 108.841 36.2708 108.667 36.5515C108.494 36.8322 108.254 37.0659 107.969 37.2322C107.577 37.4558 107.121 37.5435 106.673 37.4817C106.364 37.4214 106.199 37.3449 106.191 37.357Z" fill="#263238"/>
<path d="M113.088 18.4462H114.984C114.984 18.231 115.027 18.018 115.11 17.8198C115.194 17.6215 115.317 17.4421 115.471 17.292C115.625 17.1419 115.808 17.0243 116.008 16.946C116.209 16.8678 116.423 16.8305 116.638 16.8364C116.957 16.8241 117.272 16.9117 117.539 17.087C117.806 17.2623 118.011 17.5166 118.127 17.8144C118.227 18.0633 118.266 18.3323 118.243 18.5994C118.219 18.8666 118.132 19.1243 117.99 19.3517C117.668 19.8829 116.964 20.3658 115.684 20.1565V24.4022H117.559V21.883C118.329 21.6573 119.004 21.185 119.479 20.5387C119.955 19.8923 120.205 19.1076 120.191 18.3053C120.191 15.5326 117.704 14.8887 116.638 14.8887C115.825 14.9048 113.052 15.0979 113.088 18.4462Z" fill="#263238"/>
<path d="M117.585 25.2832H115.682V27.062H117.585V25.2832Z" fill="#263238"/>
<path d="M47.4154 131.442C47.4154 131.442 43.9787 128.223 42.6547 127.358C41.3307 126.492 38.3687 125.321 37.2621 125.213C36.1554 125.104 30.976 126.605 30.976 126.605C30.976 126.605 23.3298 125.929 22.046 126.822C20.7623 127.716 20.8669 128.641 21.4062 129.321C21.9454 130.002 24.0099 129.784 26.2957 129.821C28.5816 129.857 29.1892 130.07 29.1892 130.07L25.8692 133.607L34.4973 136.002L39.729 135.805L41.6204 138.187L47.4154 131.442Z" fill="#FFBF9D"/>
<path d="M21.2168 123.454L21.4261 131.068L21.7923 132.013L25.551 136.597L34.7184 135.989L27.4143 133.144L24.8186 131.172L23.8125 127.917C23.8125 127.917 24.1183 122.894 21.2168 123.454Z" fill="#FFBF9D"/>
<path d="M21.8532 132.191H19.6076C19.6076 132.191 16.694 127.398 14.0299 129.028L14.6416 129.973C14.6416 129.973 13.4343 129.43 12.6777 130.44L20.0262 136.879H20.3642L28.1915 136.376L21.8532 132.191Z" fill="#FFBF9D"/>
<path d="M23.1852 133.648C22.9752 133.668 22.7642 133.676 22.5533 133.672C22.022 133.677 21.4964 133.782 21.004 133.982L20.9315 134.018L20.8832 133.95C20.6539 133.628 20.3762 133.286 20.0784 132.928C19.4868 132.191 18.9475 131.527 18.4968 130.972C18.2662 130.712 18.0575 130.433 17.873 130.139C18.148 130.357 18.3977 130.605 18.6175 130.879C19.0482 131.358 19.6317 132.03 20.2514 132.799C20.5412 133.161 20.8148 133.503 21.0563 133.845L20.9315 133.813C21.4502 133.607 22.0087 133.52 22.5654 133.559C22.7758 133.548 22.9864 133.578 23.1852 133.648Z" fill="#FF9A6C"/>
<path d="M39.066 129.217C38.1793 129.518 37.3157 129.884 36.4824 130.311C35.6879 130.808 34.9319 131.364 34.2207 131.973C34.3681 131.737 34.5514 131.525 34.764 131.346C35.2477 130.877 35.7885 130.472 36.3737 130.138C36.9604 129.805 37.5863 129.545 38.237 129.366C38.5033 129.271 38.7834 129.221 39.066 129.217Z" fill="#FF9A6C"/>
<path d="M31.7404 127.244C31.4235 127.698 31.0723 128.127 30.6901 128.528C30.3615 128.976 29.9982 129.397 29.6035 129.788C29.8296 129.274 30.1427 128.803 30.5291 128.395C30.8639 127.945 31.2737 127.556 31.7404 127.244Z" fill="#FF9A6C"/>
<path d="M24.0858 134.71C24.0229 134.657 23.965 134.599 23.9127 134.536L23.4379 134.009L22.7014 133.164L22.2426 132.637C22.0615 132.443 21.8947 132.236 21.7436 132.017C21.4039 131.499 21.2209 130.894 21.2164 130.275C21.2164 129.627 21.1883 128.935 21.1762 128.206C21.152 126.745 21.1239 125.14 21.0957 123.453V123.361H21.1802L21.4257 123.329C21.6961 123.297 21.9703 123.327 22.227 123.418C22.4838 123.509 22.7163 123.657 22.9067 123.852C23.2476 124.233 23.4955 124.687 23.631 125.18C23.8671 126.075 23.9594 127.001 23.9047 127.925V127.892C24.279 129.124 24.6089 130.226 24.8906 131.152L24.8625 131.116L26.7499 132.593L27.2529 132.995C27.3133 133.039 27.3686 133.088 27.4179 133.144C27.4179 133.144 27.3495 133.112 27.2288 133.027L26.7056 132.653L24.778 131.228V131.204C24.4882 130.283 24.1421 129.192 23.7518 127.957V127.925C23.7966 127.023 23.7002 126.12 23.466 125.248C23.347 124.785 23.121 124.357 22.806 123.997C22.6367 123.824 22.4298 123.693 22.2016 123.614C21.9734 123.534 21.7299 123.508 21.4901 123.538L21.2687 123.566L21.3533 123.462C21.3774 125.148 21.3975 126.753 21.4136 128.214C21.4297 129.675 21.2486 131.031 21.9086 131.953C22.0402 132.162 22.1854 132.362 22.3432 132.552L22.7899 133.092C23.0636 133.422 23.301 133.711 23.4982 133.957L23.9409 134.508C23.9972 134.569 24.0459 134.637 24.0858 134.71Z" fill="#FF9A6C"/>
<path d="M20.3816 136.883C20.2388 136.896 20.0959 136.858 19.9792 136.774C19.6636 136.583 19.3741 136.352 19.118 136.086C18.2806 135.218 17.511 134.287 16.8161 133.301C15.9871 132.15 15.2909 131.096 14.7798 130.319C14.5343 129.917 14.3411 129.611 14.2123 129.386C14.1341 129.276 14.0731 129.155 14.0312 129.027C14.1268 129.121 14.2106 129.227 14.2808 129.341L14.9045 130.235C15.4317 130.995 16.1521 132.042 16.9811 133.176C17.6718 134.158 18.4189 135.099 19.2186 135.993C19.4599 136.262 19.7298 136.504 20.0235 136.714C20.1376 136.781 20.2575 136.837 20.3816 136.883Z" fill="#FF9A6C"/>
<path d="M33.7531 131.969L29.7086 131.696L28.5013 128.384L28.28 126.154C28.2327 125.627 27.9897 125.136 27.5987 124.778C27.2077 124.421 26.697 124.223 26.1672 124.223H26.127L26.3523 129.684L27.1854 133.076L30.4732 135.016H34.4976L33.7531 131.969Z" fill="#FFBF9D"/>
<path d="M33.7531 131.969L29.7086 131.696L28.5013 128.384L28.28 126.154C28.2327 125.627 27.9897 125.136 27.5987 124.778C27.2077 124.421 26.697 124.223 26.1672 124.223H26.127L26.3523 129.684L27.1854 133.076L30.4732 135.016" fill="#FFBF9D"/>
<path d="M30.4717 135.016C30.3892 134.985 30.3097 134.946 30.2343 134.9L29.5743 134.534L27.1597 133.141H27.1315V133.113C26.886 132.139 26.6003 130.988 26.2824 129.724V129.704C26.2099 128.062 26.1294 126.207 26.0449 124.243V124.139H26.1496C26.1858 124.139 26.23 124.139 26.2703 124.139C26.7567 124.156 27.224 124.333 27.6 124.642C27.976 124.951 28.2399 125.375 28.3509 125.849C28.3984 126.068 28.4293 126.29 28.4434 126.513L28.5038 127.157C28.5481 127.559 28.5843 127.994 28.6245 128.392V128.368C29.0672 129.604 29.4656 130.722 29.8318 131.692L29.7634 131.64L32.7213 131.873L33.5262 131.95C33.6198 131.954 33.7128 131.968 33.8038 131.99C33.7102 132 33.6158 132 33.5221 131.99L32.7173 131.954L29.7594 131.789H29.6668V131.745C29.3087 130.779 28.8982 129.664 28.4595 128.437V128.413C28.4193 128.01 28.375 127.608 28.3307 127.177C28.3106 126.964 28.2865 126.75 28.2664 126.533C28.2518 126.319 28.2222 126.107 28.1778 125.897C28.0766 125.468 27.837 125.084 27.496 124.804C27.155 124.524 26.7314 124.364 26.2904 124.348H26.1254L26.226 124.239C26.3025 126.199 26.3789 128.058 26.4433 129.7C26.7492 130.968 27.0228 132.115 27.2482 133.097L27.212 133.049L29.6024 134.497L30.2463 134.9C30.3262 134.929 30.402 134.968 30.4717 135.016Z" fill="#FF9A6C"/>
<path d="M120.384 67.528C116.919 54.3162 113.72 38.9553 94.399 40.3236C94.399 40.3236 82.4951 42.6134 76.8449 51.3985C73.5168 56.5658 70.6353 78.8445 70.0639 96.4389C70.0397 97.1552 70.3375 102.149 70.3174 102.85L121.451 107.107H130.678C130.678 107.107 130.103 97.7749 127.326 88.7202C124.61 79.919 121.612 72.1882 120.384 67.528Z" fill="#263238"/>
<path d="M91.8309 45.3581L93.0382 44.2031L106.097 49.4669C107.009 49.5178 107.868 49.9085 108.506 50.5618C109.143 51.2152 109.513 52.0838 109.542 52.9963L109.425 95.5496C109.425 98.435 108.866 100.934 107.123 103.232L105.288 105.647C101.107 111.168 92.5029 110.713 89.1909 104.633C88.9916 104.286 88.8374 103.915 88.7321 103.53C88.6489 103.217 88.583 102.9 88.5349 102.58C88.1325 99.1554 88.1325 96.1854 88.1325 96.1854C87.8991 92.4267 87.8226 90.8854 87.8226 90.9216C87.8226 90.9578 79.8223 90 77.6612 79.734C76.5867 74.6271 76.7879 67.6006 77.0897 60.6868C77.5002 51.129 84.1404 45.346 91.8309 45.3581Z" fill="#FFBF9D"/>
<path d="M95.1934 67.5242C95.208 67.87 95.3571 68.1965 95.6089 68.434C95.8608 68.6716 96.1954 68.8014 96.5415 68.7959C96.711 68.8012 96.8798 68.7726 97.0381 68.7115C97.1963 68.6505 97.3406 68.5583 97.4626 68.4405C97.5845 68.3227 97.6816 68.1816 97.748 68.0256C97.8145 67.8695 97.849 67.7018 97.8494 67.5322C97.8348 67.1867 97.6864 66.8604 97.4355 66.6223C97.1847 66.3842 96.8511 66.2531 96.5053 66.2565C96.3353 66.2511 96.1659 66.2799 96.0072 66.3411C95.8485 66.4024 95.7037 66.4948 95.5814 66.613C95.4591 66.7312 95.3617 66.8728 95.295 67.0293C95.2284 67.1858 95.1938 67.3541 95.1934 67.5242Z" fill="#263238"/>
<path d="M81.5586 67.8776C81.5712 68.2238 81.719 68.5513 81.9703 68.7898C82.2216 69.0283 82.5563 69.1588 82.9027 69.1533C83.0723 69.1581 83.2411 69.1291 83.3992 69.0679C83.5574 69.0067 83.7018 68.9146 83.824 68.7969C83.9461 68.6792 84.0436 68.5384 84.1107 68.3826C84.1778 68.2268 84.2131 68.0592 84.2147 67.8896C84.201 67.5431 84.0524 67.2156 83.8004 66.9772C83.5485 66.7388 83.2133 66.6084 82.8665 66.6139C82.697 66.6085 82.5282 66.6372 82.37 66.6983C82.2117 66.7593 82.0674 66.8515 81.9454 66.9693C81.8235 67.0871 81.7264 67.2282 81.66 67.3842C81.5935 67.5402 81.559 67.708 81.5586 67.8776Z" fill="#263238"/>
<path d="M78.4514 63.4317C78.6245 63.5967 79.5903 62.7999 81.019 62.7355C82.4476 62.6711 83.5301 63.3271 83.679 63.1379C83.7515 63.0574 83.5664 62.7355 83.0955 62.4417C82.4544 62.0456 81.707 61.8559 80.9546 61.8984C80.2118 61.9316 79.4994 62.2024 78.9223 62.6711C78.4997 63.0373 78.3629 63.3593 78.4514 63.4317Z" fill="#263238"/>
<path d="M92.6179 62.9319C92.8071 63.0768 93.6924 62.1874 95.105 61.9741C96.5175 61.7609 97.6644 62.3082 97.7892 62.111C97.8536 62.0224 97.6403 61.7367 97.1372 61.4792C96.4603 61.1511 95.6989 61.0387 94.9561 61.1572C94.2195 61.2685 93.5375 61.6109 93.0083 62.1351C92.63 62.5295 92.5294 62.8796 92.6179 62.9319Z" fill="#263238"/>
<path d="M87.9569 73.9753C87.9569 73.8948 87.0635 73.7861 85.6147 73.6734C85.2485 73.6533 84.8984 73.601 84.8099 73.3555C84.7586 72.9799 84.8246 72.5976 84.999 72.2609C85.2968 71.3595 85.6107 70.4178 85.9367 69.4439C87.2365 65.4195 88.1581 62.1115 87.9971 62.0592C87.8362 62.0069 86.649 65.2344 85.3491 69.2628C85.0352 70.2568 84.7374 71.2025 84.4557 72.108C84.339 72.5305 84.1257 73.0135 84.339 73.5487C84.3977 73.6746 84.4844 73.7854 84.5925 73.8726C84.7006 73.9598 84.8273 74.0211 84.9628 74.0517C85.1676 74.096 85.3771 74.1149 85.5866 74.1081C87.0554 74.096 87.9529 74.0598 87.9569 73.9753Z" fill="#263238"/>
<path d="M87.8164 90.9297C92.6965 90.7615 97.4337 89.24 101.499 86.5352C101.499 86.5352 98.3763 93.8755 87.9693 93.4288L87.8164 90.9297Z" fill="#FF9A6C"/>
<path d="M92.4211 76.8804C92.2123 76.6405 91.957 76.4455 91.6706 76.3071C91.3842 76.1688 91.0727 76.09 90.755 76.0756C89.8576 76.0232 89.2258 76.1359 88.7428 76.8442C88.6487 77.0191 88.5912 77.2114 88.5739 77.4093C88.5566 77.6072 88.5799 77.8066 88.6422 77.9952C88.7469 78.1602 88.6704 78.1642 88.8314 78.2809C89.4152 78.6899 90.0746 78.9786 90.7711 79.13C91.4633 79.287 92.2601 79.13 92.6183 78.5626C92.7596 78.2952 92.8165 77.9912 92.7813 77.6908C92.7461 77.3905 92.6205 77.1078 92.4211 76.8804Z" fill="#FF9A6C"/>
<path d="M92.2757 56.3843C92.4608 56.7465 93.6882 56.3843 95.2014 56.3441C96.7145 56.3038 97.9742 56.5855 98.119 56.2113C98.1834 56.0342 97.9178 55.7042 97.3786 55.4064C96.6827 55.0442 95.9049 54.8681 95.1209 54.8953C94.3461 54.9111 93.5894 55.1319 92.9276 55.5352C92.4206 55.8652 92.1952 56.2072 92.2757 56.3843Z" fill="#263238"/>
<path d="M78.6559 60.847C78.9215 61.1568 79.8914 60.7705 81.0705 60.698C82.2497 60.6256 83.2638 60.8027 83.4851 60.4526C83.5777 60.2835 83.4046 59.9656 82.9499 59.6799C82.3462 59.3343 81.6504 59.1839 80.9579 59.2493C80.2633 59.2945 79.6004 59.5562 79.0624 59.9978C78.6559 60.352 78.5352 60.694 78.6559 60.847Z" fill="#263238"/>
<path d="M109.281 71.1571C109.281 71.1571 103.784 72.4851 96.0007 55.6835C93.3446 49.9649 88.1895 44.2021 88.1895 44.2021L93.0187 43.5059C93.0187 43.5059 107.446 47.5704 107.687 47.7515C107.929 47.9326 111.329 55.2127 111.329 55.2127L109.281 71.1571Z" fill="#263238"/>
<path d="M107.48 70.4851C107.443 69.7125 108.244 67.8492 108.997 67.6922C111.009 67.2898 114.687 67.2536 114.981 72.4168C115.383 79.4715 108.216 78.4171 108.192 78.2159C108.168 78.0147 107.608 73.1452 107.48 70.4851Z" fill="#FFBF9D"/>
<path d="M110.195 75.4076C110.223 75.3835 110.32 75.4881 110.533 75.5726C110.833 75.6804 111.164 75.6674 111.455 75.5364C112.183 75.2225 112.743 74.0031 112.706 72.7193C112.688 72.1131 112.537 71.5182 112.264 70.9768C112.185 70.7604 112.055 70.5664 111.884 70.4114C111.714 70.2565 111.509 70.1453 111.286 70.0874C111.142 70.0578 110.993 70.0794 110.863 70.1485C110.734 70.2176 110.633 70.3299 110.577 70.4657C110.493 70.6669 110.549 70.8078 110.509 70.8199C110.469 70.8319 110.352 70.7112 110.392 70.4174C110.421 70.2399 110.511 70.0778 110.646 69.9587C110.737 69.8799 110.843 69.8202 110.958 69.7829C111.073 69.7456 111.194 69.7315 111.314 69.7413C111.607 69.7813 111.885 69.896 112.121 70.0742C112.357 70.2525 112.543 70.4885 112.662 70.7595C112.995 71.3545 113.179 72.0215 113.197 72.7032C113.233 74.1279 112.582 75.5002 111.588 75.8503C111.401 75.9161 111.203 75.9394 111.006 75.9185C110.81 75.8976 110.621 75.833 110.453 75.7295C110.215 75.5927 110.155 75.4358 110.195 75.4076Z" fill="#FF9A6C"/>
<path d="M93.3284 77.1666C93.3083 77.3477 92.101 77.3195 90.6724 77.5972C89.2437 77.8749 88.1249 78.3216 88.0364 78.1647C87.9479 78.0077 89.0063 77.2672 90.5557 76.9815C92.105 76.6958 93.3606 77.0177 93.3284 77.1666Z" fill="#263238"/>
<path d="M148.463 131.837C148.463 131.837 154.371 126.779 156.085 126.642C157.799 126.505 162.299 127.346 162.299 127.346C162.299 127.346 165.144 127.37 166.556 127.193C168.031 126.959 169.538 127.033 170.983 127.411C171.41 127.539 171.945 128.598 170.689 129.322C170.158 129.628 164.991 129.978 164.991 129.978L177.917 133.668L176.239 135.053C176.012 135.241 175.729 135.347 175.434 135.355L156.838 136.015L155.984 138.095L148.463 131.837Z" fill="#FFBF9D"/>
<path d="M162.572 131.841H168.609C168.609 131.841 170.726 129.024 171.49 127.86C172.162 126.834 172.967 126.532 173.671 126.774C173.855 126.841 174.008 126.973 174.102 127.144C174.169 127.268 174.205 127.406 174.205 127.547C174.205 127.687 174.169 127.826 174.102 127.949L171.446 132.903L172.838 132.436C172.838 132.436 175.623 129.708 176.166 129.076C176.71 128.444 178.69 125.788 180.444 127.724L178.03 130.428L180.444 128.714C180.444 128.714 182.384 127.048 183.418 129.032L176.175 135.132" fill="#FFBF9D"/>
<path d="M156.287 129.334C156.364 129.297 156.445 129.268 156.529 129.25C156.763 129.171 157.004 129.116 157.249 129.085C158.161 128.963 159.09 129.059 159.957 129.366C160.564 129.576 161.147 129.845 161.7 130.171C161.998 130.348 162.299 130.542 162.605 130.755L163.064 131.081C163.209 131.185 163.39 131.322 163.507 131.387C165.036 131.503 166.787 131.608 168.618 131.737L168.529 131.773C169.097 131.101 169.652 130.368 170.191 129.608C170.404 129.31 170.594 129.008 170.799 128.71C171.004 128.413 171.177 128.103 171.394 127.821C171.602 127.529 171.839 127.259 172.103 127.016C172.237 126.899 172.384 126.798 172.541 126.714C172.71 126.617 172.903 126.574 173.097 126.59H173.061C173.227 126.562 173.397 126.568 173.561 126.607C173.725 126.646 173.879 126.719 174.014 126.819C174.135 126.934 174.226 127.075 174.281 127.232C174.337 127.388 174.354 127.556 174.332 127.72V127.741C173.181 129.801 172.179 131.596 171.407 132.972C171.322 133.227 171.183 133.459 170.999 133.654C170.814 133.849 170.589 134.001 170.34 134.099C169.98 134.249 169.595 134.331 169.205 134.34C168.965 134.354 168.725 134.354 168.485 134.34C168.401 134.343 168.317 134.335 168.235 134.316H168.485C168.646 134.316 168.887 134.316 169.201 134.288C169.58 134.265 169.952 134.177 170.3 134.027C170.53 133.929 170.736 133.783 170.904 133.599C171.073 133.415 171.2 133.197 171.278 132.96L174.143 127.676V127.712C174.16 127.58 174.146 127.445 174.102 127.318C174.058 127.192 173.985 127.078 173.89 126.984C173.655 126.822 173.366 126.758 173.085 126.807H173.052C172.911 126.805 172.771 126.842 172.65 126.916C172.504 126.989 172.368 127.083 172.248 127.193C171.993 127.419 171.765 127.673 171.568 127.95C171.165 128.513 170.803 129.157 170.36 129.737C169.817 130.505 169.258 131.234 168.682 131.914L168.65 131.954H168.598C166.754 131.817 165.04 131.713 163.462 131.572C163.282 131.477 163.113 131.363 162.955 131.234L162.501 130.908C162.203 130.694 161.905 130.505 161.615 130.324C161.075 130 160.503 129.73 159.909 129.519C159.061 129.205 158.153 129.089 157.253 129.181C157.011 129.206 156.772 129.249 156.537 129.31C156.454 129.324 156.371 129.332 156.287 129.334Z" fill="#FF9A6C"/>
<path d="M180.457 127.725C180.395 127.845 180.317 127.956 180.224 128.055C180.059 128.26 179.821 128.554 179.519 128.908C178.924 129.624 178.087 130.602 177.149 131.672C176.211 132.743 175.406 133.757 174.71 134.393C174.443 134.651 174.152 134.882 173.841 135.085C173.731 135.167 173.605 135.224 173.471 135.254C173.574 135.168 173.683 135.088 173.797 135.017C174.082 134.792 174.351 134.547 174.602 134.284C175.258 133.632 176.022 132.598 176.98 131.54C177.938 130.481 178.775 129.503 179.395 128.811L180.143 128.006C180.235 127.899 180.34 127.804 180.457 127.725Z" fill="#FF9A6C"/>
<path d="M177.144 128.006C176.931 128.318 176.685 128.606 176.412 128.867C175.941 129.382 175.277 130.074 174.536 130.847C173.929 131.475 173.361 132.054 172.927 132.493C172.447 132.687 171.946 132.822 171.434 132.895C171.563 132.831 171.697 132.778 171.836 132.738L172.89 132.336L172.858 132.356C173.293 131.889 173.848 131.306 174.468 130.682C175.208 129.917 175.889 129.233 176.388 128.746C176.619 128.479 176.872 128.231 177.144 128.006Z" fill="#FF9A6C"/>
<path d="M128.434 101.807C128.434 101.807 137.11 104.044 137.959 115.835C138.446 122.556 134.869 144.139 134.869 144.139L147.682 130.979L159.103 138.923C159.103 138.923 143.557 157.906 139.983 160.775C136.41 163.645 130.679 168.224 128.828 167.85C126.977 167.476 126.969 158.912 126.969 158.912V111.626L128.434 101.807Z" fill="#3E7BFA"/>
<path d="M66.0555 103.252C66.0555 103.252 58.3368 105.791 58.6427 120.883C58.9485 135.974 58.7111 141.04 58.7111 141.04L47.1411 128.794L37.5391 139.394C37.5391 139.394 48.2921 155.371 55.8136 163.138C62.9044 170.45 69.2065 164.1 71.2549 158.957C72.913 154.792 74.249 138.952 74.249 138.952L66.0555 103.252Z" fill="#3E7BFA"/>
<g opacity="0.3">
<path d="M129.104 128.972C129.804 124.545 129.989 119.752 127.973 115.691C123.027 127.917 123.249 141.958 125.019 154.913L128.939 166.12C131.41 158.611 129.064 150.611 129.116 142.779C129.148 138.316 128.408 133.386 129.104 128.972Z" fill="black"/>
</g>
<path d="M64.4512 112.855C64.4512 112.855 69.6104 147.561 70.6084 150.599C71.6064 153.637 71.6064 162.596 71.6064 162.596C71.6064 162.596 66.1937 172.681 65.8597 179.687L131.082 179.824L126.844 151.022C126.71 149.203 126.677 147.379 126.748 145.557C127.022 140.482 127.412 129.604 128.869 122.916C130.559 115.141 128.281 101.836 128.281 101.836L108.799 97.0352C104.187 103.663 92.702 103.752 88.1465 97.0352L66.1575 103.253L64.4512 112.855Z" fill="#3E7BFA"/>
<path d="M128.125 149.644C128.172 149.531 128.237 149.426 128.318 149.334C128.455 149.145 128.66 148.871 128.918 148.529C129.587 147.657 130.336 146.848 131.155 146.115C131.989 145.398 132.918 144.801 133.916 144.34C134.318 144.171 134.616 144.042 134.838 143.97C134.951 143.921 135.07 143.887 135.192 143.869C135.236 143.954 133.216 144.602 131.292 146.284C130.486 147.01 129.73 147.789 129.03 148.618C128.753 148.981 128.451 149.324 128.125 149.644Z" fill="#263238"/>
<path d="M67.7267 148.909C67.6865 148.909 67.5376 148.205 67.0426 147.146C66.4046 145.764 65.4728 144.538 64.312 143.553C63.1513 142.568 61.7896 141.848 60.322 141.444C59.1951 141.13 58.4627 141.098 58.4708 141.041C58.6405 141.02 58.8121 141.02 58.9819 141.041C59.4462 141.081 59.9065 141.159 60.3582 141.275C61.8653 141.646 63.266 142.361 64.4509 143.363C65.6297 144.371 66.5629 145.635 67.1794 147.058C67.3651 147.485 67.5172 147.926 67.6342 148.378C67.6884 148.55 67.7196 148.728 67.7267 148.909Z" fill="#263238"/>
<path d="M68.1443 130.103C68.0367 130.066 67.9361 130.012 67.8465 129.942C67.6654 129.829 67.4078 129.652 67.098 129.419C66.2964 128.811 65.5467 128.138 64.8564 127.407C64.1703 126.675 63.5267 125.906 62.9287 125.101C62.6617 124.78 62.4272 124.433 62.2285 124.066C62.5188 124.361 62.7878 124.676 63.0334 125.008C63.5244 125.6 64.2004 126.413 65.0013 127.262C65.6867 127.985 66.4151 128.666 67.1825 129.302C67.5177 129.551 67.8388 129.818 68.1443 130.103Z" fill="#263238"/>
<path d="M113.672 148.889C113.672 148.889 113.672 148.917 113.619 148.969L113.45 149.19C113.289 149.38 113.076 149.677 112.762 150.024C111.891 151.019 110.949 151.951 109.945 152.812C108.448 154.096 106.854 155.262 105.176 156.297C103.128 157.557 101.012 158.703 98.8379 159.73C96.5279 160.829 94.2984 161.807 92.2782 162.716C90.258 163.626 88.4511 164.459 86.9581 165.211C85.465 165.964 84.2738 166.608 83.4609 167.075C83.0585 167.3 82.7446 167.477 82.5313 167.614L82.2858 167.751C82.2295 167.779 82.2013 167.795 82.1973 167.791C82.2194 167.768 82.2453 167.749 82.2737 167.735L82.5071 167.578C82.7164 167.445 83.0182 167.244 83.4207 167.002C84.2255 166.515 85.4006 165.843 86.8896 165.079C88.3786 164.314 90.1856 163.469 92.2018 162.539C94.218 161.61 96.4434 160.64 98.7453 159.541C100.913 158.516 103.026 157.378 105.076 156.132C106.747 155.114 108.34 153.972 109.84 152.716C110.853 151.869 111.809 150.956 112.702 149.983C113.024 149.649 113.249 149.36 113.414 149.178L113.603 148.973L113.672 148.889Z" fill="#263238"/>
<path d="M66.0078 179.143V179.058C66.0078 178.99 66.0078 178.909 66.0078 178.805C66.0078 178.571 66.044 178.245 66.0682 177.823C66.2233 176.599 66.4694 175.388 66.8046 174.201C68.0412 170.04 69.7252 166.026 71.827 162.228V162.281C71.5654 158.506 71.1751 154.288 70.7243 149.854C69.8631 141.475 68.9617 133.909 68.3097 128.428C67.9797 125.7 67.7101 123.486 67.5049 121.945C67.4163 121.188 67.3479 120.593 67.2956 120.178L67.2473 119.719C67.242 119.667 67.242 119.615 67.2473 119.562C67.2637 119.612 67.2745 119.663 67.2795 119.715C67.2956 119.828 67.3197 119.981 67.3519 120.174C67.4083 120.577 67.4928 121.176 67.5974 121.933C67.8027 123.474 68.0924 125.684 68.4546 128.412C69.1508 133.885 70.0643 141.451 70.9376 149.83C71.3883 154.256 71.7747 158.49 72.0202 162.269V162.297V162.321C69.9169 166.103 68.216 170.096 66.9455 174.233C66.5942 175.414 66.3252 176.617 66.1406 177.835C66.1044 178.237 66.0722 178.579 66.0521 178.809C66.0521 178.913 66.0521 178.998 66.0239 179.062C66.0224 179.09 66.017 179.117 66.0078 179.143Z" fill="#263238"/>
<path d="M129.67 113.662C129.676 113.72 129.676 113.778 129.67 113.835C129.67 113.96 129.67 114.125 129.67 114.342C129.67 114.785 129.67 115.441 129.633 116.282C129.589 117.968 129.416 120.403 129.114 123.405C128.812 126.407 128.386 129.969 127.943 133.929C127.501 137.889 127.066 142.247 126.929 146.843C126.833 151.16 127.131 155.477 127.818 159.741C128.398 163.685 129.082 167.206 129.609 170.176C130.136 173.146 130.547 175.548 130.772 177.218C130.893 178.055 130.961 178.707 131.01 179.146C131.01 179.359 131.046 179.549 131.058 179.649C131.063 179.707 131.063 179.765 131.058 179.822C131.041 179.767 131.03 179.71 131.026 179.653C131.026 179.528 130.986 179.363 130.953 179.154C130.893 178.711 130.813 178.064 130.676 177.23C130.43 175.564 130.012 173.162 129.468 170.2C128.925 167.238 128.221 163.717 127.629 159.769C126.93 155.495 126.626 151.165 126.72 146.835C126.861 142.231 127.307 137.868 127.754 133.909C128.201 129.949 128.66 126.387 128.961 123.389C129.263 120.391 129.472 117.964 129.545 116.278C129.597 115.437 129.601 114.785 129.617 114.342C129.617 114.125 129.617 113.96 129.617 113.835C129.629 113.776 129.647 113.718 129.67 113.662Z" fill="#263238"/>
<g opacity="0.3">
<path d="M67.4364 121.1C66.324 132.214 67.6127 143.438 71.2153 154.011L67.4364 121.1Z" fill="black"/>
</g>
<g opacity="0.3">
<path d="M107.779 159.552C102.838 164.092 97.8796 167.971 91.7988 170.132C96.3825 170.535 101.007 168.768 104.548 165.834C108.089 162.901 110.613 159.798 112.234 155.508L107.779 159.552Z" fill="black"/>
</g>
<path d="M102.151 164.551C102.111 164.511 105.185 161.69 109.016 158.253C112.847 154.816 115.986 152.068 116.023 152.112C116.059 152.156 112.988 154.973 109.157 158.41C105.326 161.847 102.191 164.595 102.151 164.551Z" fill="#263238"/>
<path d="M113.08 79.3846C113.08 79.8838 112.932 80.3718 112.654 80.7868C112.377 81.2019 111.982 81.5253 111.521 81.7162C111.06 81.907 110.552 81.9567 110.063 81.8591C109.573 81.7614 109.124 81.5207 108.771 81.1674C108.418 80.8141 108.178 80.3641 108.081 79.8744C107.984 79.3847 108.035 78.8772 108.226 78.4162C108.418 77.9552 108.742 77.5614 109.158 77.2846C109.573 77.0078 110.061 76.8605 110.56 76.8613C110.892 76.8613 111.22 76.9266 111.525 77.0535C111.831 77.1803 112.109 77.3663 112.343 77.6006C112.577 77.835 112.763 78.1132 112.889 78.4193C113.015 78.7254 113.08 79.0534 113.08 79.3846Z" fill="#455A64"/>
<path d="M128.095 112.521C127.351 106.35 126.608 100.18 125.865 94.0089L109.909 89.1797C109.599 100.19 107.671 112.553 104.902 123.213C110.805 125.124 117.043 125.774 123.213 125.121C123.481 122.143 123.75 119.165 124.018 116.187C124.415 118.433 124.817 120.677 125.225 122.92C126.899 121.982 127.885 120.103 128.219 118.223C128.553 116.344 128.324 114.444 128.095 112.521Z" fill="#263238"/>
<path d="M115.608 125.204C115.608 125.204 115.608 125.128 115.656 124.975C115.705 124.822 115.745 124.572 115.813 124.295C115.954 123.691 116.159 122.814 116.425 121.691C116.948 119.425 117.721 116.153 118.473 112.069C119.391 107.286 119.972 102.445 120.212 97.5811C120.518 91.6323 119.976 85.6701 118.602 79.8741C117.242 74.0655 114.725 68.5907 111.201 63.7767C110.799 63.2334 110.396 62.6821 109.946 62.167C109.495 61.6519 109.097 61.1488 108.642 60.686L107.978 59.9818L107.302 59.3097C106.859 58.859 106.4 58.4445 105.958 58.026C104.167 56.3679 102.416 54.9111 100.851 53.5428C99.2852 52.1746 97.8888 50.915 96.7298 49.7358C96.436 49.4421 96.1704 49.1443 95.9249 48.8706C95.6794 48.5969 95.4098 48.3193 95.1844 48.0657C94.9591 47.8122 94.7297 47.5426 94.5204 47.2971L93.953 46.5727C93.5827 46.122 93.3051 45.6874 93.0435 45.3211C92.7819 44.9549 92.5887 44.633 92.4318 44.3674L92.0776 43.7718C91.9972 43.6349 91.9609 43.5625 91.9609 43.5625C91.9609 43.5625 92.0092 43.6269 92.0978 43.7597L92.468 44.3473C92.629 44.6048 92.8302 44.9267 93.0958 45.2849C93.3614 45.6431 93.6431 46.0898 94.0174 46.5244L94.5888 47.2407L95.2569 48.0013C95.4863 48.271 95.7358 48.5406 96.0054 48.8062C96.275 49.0718 96.5366 49.3777 96.8344 49.6634C97.9934 50.8345 99.3979 52.078 100.967 53.4422C102.537 54.8065 104.292 56.2593 106.094 57.9093C106.537 58.3117 107.004 58.7463 107.447 59.193L108.127 59.8651L108.795 60.5734C109.254 61.0362 109.668 61.5553 110.107 62.0583C110.545 62.5614 110.956 63.1087 111.378 63.6681C114.917 68.5016 117.442 74.0001 118.803 79.8338C120.186 85.6504 120.728 91.635 120.413 97.6053C120.164 102.471 119.567 107.312 118.626 112.093C117.854 116.182 117.061 119.449 116.513 121.711C116.236 122.838 116.014 123.723 115.861 124.307C115.785 124.596 115.725 124.818 115.684 124.979C115.644 125.14 115.608 125.204 115.608 125.204Z" fill="#455A64"/>
</svg>
