<svg width="190" height="141" viewBox="0 0 190 141" fill="none" xmlns="http://www.w3.org/2000/svg">
<path d="M189.051 76.8704C189.051 43.7348 162.189 16.873 129.053 16.873H60.9482C27.8125 16.873 0.950775 43.7348 0.950775 76.8704C0.950775 110.006 27.8125 136.868 60.9482 136.868H129.053C162.189 136.868 189.051 110.006 189.051 76.8704Z" fill="#3E7BFA"/>
<rect x="128.453" y="4.71094" width="9.66397" height="1.89661" transform="rotate(32.6414 128.453 4.71094)" fill="white"/>
<rect x="144.551" y="43.0137" width="12.5818" height="3.35555" transform="rotate(-30.1116 144.551 43.0137)" fill="#E50A3E"/>
<rect x="167.355" y="21.7852" width="6.74611" height="3.35555" transform="rotate(37.6414 167.355 21.7852)" fill="#FFB21D"/>
<mask id="mask0_1642_18856" style="mask-type:alpha" maskUnits="userSpaceOnUse" x="1" y="0" width="188" height="141">
<rect width="188" height="141" rx="70.5" transform="matrix(-1 0 0 1 189 0)" fill="#3E7BFA"/>
</mask>
<g mask="url(#mask0_1642_18856)">
<rect x="61.2109" y="54.4414" width="9.66397" height="1.89661" transform="rotate(-106.554 61.2109 54.4414)" fill="white"/>
<rect x="196.848" y="57.9648" width="9.66397" height="4.81448" transform="rotate(-172.307 196.848 57.9648)" fill="#F2D1BB"/>
<rect x="105.871" y="74.252" width="9.66397" height="4.81448" transform="rotate(-167.307 105.871 74.252)" fill="white"/>
<rect x="74.0547" y="14.9297" width="12.5818" height="3.35555" transform="rotate(-169.307 74.0547 14.9297)" fill="#E50A3E"/>
<rect x="42.918" y="16.0957" width="6.74611" height="3.35555" transform="rotate(-101.554 42.918 16.0957)" fill="#FFB21D"/>
<rect x="59.1875" y="139.111" width="14.0408" height="3.35555" transform="rotate(88.4455 59.1875 139.111)" fill="white"/>
<rect x="69.8008" y="26.3652" width="8.20504" height="4.81448" transform="rotate(-136.554 69.8008 26.3652)" fill="#FFB21D"/>
<rect x="188.602" y="139.457" width="11.1229" height="1.89661" transform="rotate(173.693 188.602 139.457)" fill="#F2D1BB"/>
<rect x="35.7812" y="52.8027" width="3.82824" height="1.89661" transform="rotate(-66.5544 35.7812 52.8027)" fill="#FFB21D"/>
<ellipse cx="56.3192" cy="92.6091" rx="2.30511" ry="2.30511" transform="rotate(91.6925 56.3192 92.6091)" fill="#E50A3E"/>
<ellipse cx="152.219" cy="107.12" rx="0.846181" ry="0.846181" transform="rotate(91.6925 152.219 107.12)" fill="white"/>
<ellipse cx="147.714" cy="111.365" rx="2.30511" ry="2.30511" transform="rotate(91.6925 147.714 111.365)" fill="white"/>
<ellipse cx="102.838" cy="74.2796" rx="3.03458" ry="3.03458" transform="rotate(91.6925 102.838 74.2796)" fill="#FFB21D"/>
<ellipse cx="7.62782" cy="60.6204" rx="1.57565" ry="1.57565" transform="rotate(-9.55445 7.62782 60.6204)" fill="#E50A3E"/>
<ellipse cx="99.4513" cy="40.6096" rx="3.03458" ry="3.03458" transform="rotate(91.6925 99.4513 40.6096)" fill="#FFB21D"/>
<ellipse cx="145.382" cy="66.7784" rx="1.57565" ry="1.57565" transform="rotate(91.6925 145.382 66.7784)" fill="#E50A3E"/>
<ellipse cx="24.6317" cy="28.9099" rx="2.30511" ry="2.30511" transform="rotate(91.6925 24.6317 28.9099)" fill="white"/>
<path d="M68.115 53.4839L69.6154 52.701L71.0436 53.609L70.9714 55.2998L69.471 56.0827L68.0428 55.1747L68.115 53.4839Z" fill="#F2D1BB"/>
<path d="M42.9792 31.0412L42.222 33.3116L39.9516 32.5543L40.7088 30.2839L42.9792 31.0412Z" fill="#E50A3E"/>
<path d="M29.0555 86.3417L35.7747 86.1593L32.573 92.0695L29.0555 86.3417Z" fill="#FFB21D"/>
<path d="M164.787 103.199L167.505 102.352L169.151 104.675L167.449 106.958L164.753 106.045L164.787 103.199Z" fill="white"/>
<path d="M101.574 14.282L100.184 11.7013L103.114 11.7879L101.574 14.282Z" fill="#F2D1BB"/>
<path d="M69.3166 136.192L68.9193 133.832L71.2795 133.435L71.6768 135.795L69.3166 136.192Z" fill="white"/>
<path d="M129.328 109.823C132.252 103.169 139.308 89.3786 144.147 87.4431C150.196 85.0236 155.034 83.5115 157.151 81.3945C159.268 79.2775 161.99 78.0678 163.502 79.5799C164.712 80.7896 158.764 85.3261 155.639 87.4431C155.942 88.0479 156.91 89.1971 158.361 88.9552C160.176 88.6528 173.785 88.6528 178.321 88.0479C182.858 87.4431 183.463 90.1649 183.463 90.7698C183.463 91.3746 176.204 91.9795 172.575 92.5843C170.275 92.9678 168.328 92.8701 167.218 92.7127C170.256 93.2781 176.272 94.4125 180.741 95.3062C186.789 96.5159 186.789 98.3304 186.487 99.2377C186.245 99.9636 178.523 99.1369 174.692 98.6329C177.616 99.4393 183.463 101.415 183.463 102.867C183.463 104.319 169.954 101.456 163.2 99.8426C166.93 102.363 174.39 107.706 174.39 108.915C174.39 110.428 173.18 111.032 172.273 110.428C171.366 109.823 162.898 102.262 155.034 102.262C147.171 102.262 144.147 104.077 142.333 109.823C140.881 114.42 137.393 117.283 135.679 117.988L129.328 109.823Z" fill="#E5A072"/>
<path d="M155.637 87.444C157.048 86.4359 160.234 83.9963 161.685 82.3027" stroke="black" stroke-width="1.42099" stroke-linecap="round"/>
<path d="M163.199 99.5412C168.945 101.154 180.801 104.199 182.252 103.473C184.067 102.566 183.462 102.263 178.321 99.8437C174.208 97.9081 167.937 96.4162 165.316 95.9121" stroke="black" stroke-width="1.42099" stroke-linecap="round"/>
<path d="M47.9737 80.1857L52.5101 99.8435L44.042 107.707C41.8242 100.247 36.5418 84.6012 33.1546 81.6979C28.9206 78.0687 25.8964 78.6736 18.3357 77.7663C10.775 76.859 9.56526 76.5566 9.86769 75.0444C10.1096 73.8347 18.8397 73.5323 23.1745 73.5323C17.0251 71.5161 4.60545 67.0604 4.12156 65.3668C3.63768 63.6732 5.73454 63.653 6.84345 63.8546C4.72646 62.9473 0.190045 62.3425 3.81918 59.9231C6.72248 57.9875 16.9244 62.3425 21.6624 64.7619C20.2511 63.4514 16.4002 60.044 12.2872 56.8988C7.14594 52.9672 10.4726 53.2697 13.1945 54.1769C15.9163 55.0842 34.062 67.4838 36.179 67.4838C38.296 67.4838 37.6912 67.7862 34.9693 62.6449C32.2475 57.5036 33.7596 55.6891 36.4815 57.2012C38.659 58.4109 39.8082 61.9392 40.1106 63.5522C41.3203 64.8627 44.3446 68.391 46.764 72.0202C49.1834 75.6493 48.5786 78.976 47.9737 80.1857Z" fill="#E5A072"/>
<path d="M2.60938 62.3418C7.14579 63.5515 17.6098 66.4548 23.1745 68.3903" stroke="#232323" stroke-width="1.42099" stroke-linecap="round"/>
<path d="M50.3924 91.6767C49.5859 87.2411 49.0013 77.3417 53.1143 73.2287C57.1753 69.1677 73.56 66.5415 81.5424 65.6995C91.3209 61.6566 113.6 56.1718 124.487 66.5753C135.374 76.9788 140.516 85.8298 141.725 88.9549L131.745 108.31L139.911 113.452L142.33 109.52C145.718 111.456 147.572 114.964 148.076 116.476L139.004 127.061C142.149 134.319 137.491 138.553 134.77 139.763C132.753 142.384 127.693 148.715 123.58 153.07C119.467 157.424 112.793 156.094 109.971 154.884C104.406 159.239 96.9662 160.933 93.9419 161.235C68.0541 165.348 55.5336 155.086 52.5093 149.44C51.0577 147.989 51.5012 144.803 51.9044 143.392C44.6462 135.166 43.8397 124.843 44.3438 120.71C42.8316 119.298 38.8396 114.964 34.9686 108.915C31.0975 102.867 36.7831 96.9188 40.1098 94.701L43.1341 104.984C51.6021 99.6608 51.5013 93.8946 50.3924 91.6767Z" fill="#FFD43A"/>
<path d="M121.462 101.053C117.026 109.117 108.155 126.457 108.155 131.295C104.224 138.352 99.5663 153.131 112.389 155.792C115.918 157.203 125.212 156.095 134.164 140.368" stroke="black" stroke-width="1.42099" stroke-linecap="round"/>
<path d="M75.5 66.4768C79.1482 76.7761 88.5927 90.6778 105.737 86.2331C117.126 83.2803 121.917 74.5324 123.457 65.6646C112.249 56.506 91.0221 61.7803 81.5427 65.6995C79.8428 65.8788 77.7618 66.139 75.5 66.4768Z" fill="#F2D1BB"/>
<path d="M73.3789 80.7891C73.3789 85.4263 74.8306 96.5153 80.6372 103.774" stroke="#232323" stroke-width="1.42099" stroke-linecap="round"/>
<path d="M44.3449 120.711C44.0424 129.179 46.9457 146.357 60.9784 147.325C75.011 148.292 75.2933 134.219 73.6804 127.062C73.5796 114.259 71.14 85.8107 62.1881 74.4395" stroke="#232323" stroke-width="1.42099" stroke-linecap="round"/>
<path d="M84.5677 48.4297C84.0637 49.4378 83.2975 51.8169 84.2653 53.2685" stroke="#232323" stroke-width="1.42099" stroke-linecap="round"/>
<path d="M102.108 49.3379C102.612 50.346 103.378 52.7251 102.41 54.1767" stroke="#232323" stroke-width="1.42099" stroke-linecap="round"/>
<path d="M93.0351 82.3014C86.5027 79.1561 80.8372 68.2889 78.821 63.2484C72.5305 47.5222 78.821 25.445 82.7526 16.3721C85.7768 15.0616 94.7287 13.1664 106.342 16.0697C117.955 18.973 117.028 59.216 115.112 78.9746C110.475 81.3941 99.5675 85.4466 93.0351 82.3014Z" fill="#E5A072"/>
<ellipse opacity="0.3" cx="84.0621" cy="43.5783" rx="3.18671" ry="1.50722" transform="rotate(4.89398 84.0621 43.5783)" fill="#E50A3E"/>
<ellipse opacity="0.3" cx="101.785" cy="44.4572" rx="3.18671" ry="1.50722" transform="rotate(4.89398 101.785 44.4572)" fill="#E50A3E"/>
<path d="M108.833 81.5941C105.289 82.7718 101.152 83.6707 97.4903 83.4031C99.9297 79.7248 102.299 74.2819 103.923 66.2731C99.9912 69.1966 90.9184 70.2652 83.6602 58.41C84.2584 58.9623 84.8287 59.5075 85.3816 60.0362C88.4621 62.9816 91.0039 65.4118 94.85 65.6683C101.55 66.1149 106.342 60.2246 111.181 50.5469L108.833 81.5941Z" fill="#BE693B"/>
<path d="M99.9346 56.0924C98.343 57.6551 95.6361 58.7064 92.5498 58.3353C90.0287 58.033 88.2053 57.2713 86.9969 56.3074C85.0664 54.7682 84.6974 52.7167 85.5368 51.1845C86.1284 50.1047 87.1509 49.8495 88.271 49.877C89.0898 49.8917 89.9649 50.0615 90.7611 50.1665C92.301 50.3658 94.914 47.9992 97.9524 48.9651C98.6275 49.18 99.3242 49.5599 100.034 50.1665C102.1 51.9354 101.718 54.3363 99.9336 56.0924H99.9346Z" fill="#232323"/>
<path d="M92.55 58.335C95.6362 58.7061 98.3432 57.6548 99.9347 56.0921C100.106 55.9236 100.264 55.7492 100.408 55.5701C98.6125 54.61 96.0408 54.0696 93.2126 54.1932C90.6031 54.3094 88.2645 54.9695 86.582 55.946C86.7113 56.069 86.8496 56.1895 86.997 56.307C88.2054 57.271 90.0289 58.0327 92.55 58.335Z" fill="#E50A3E"/>
<path d="M87.3506 52.445C88.9233 52.8011 94.0144 53.7041 98.683 51.7561V51.7572C98.9161 51.6596 99.0485 51.4078 99.007 51.156L98.697 49.2683C98.446 49.1434 98.1973 49.0433 97.9516 48.9651C96.0656 48.3655 94.3433 49.05 92.9399 49.6078C92.0826 49.9486 91.3443 50.2421 90.7603 50.1665C90.549 50.1387 90.3321 50.1062 90.1122 50.0733C89.5035 49.9823 88.8716 49.8878 88.2703 49.877C87.8959 49.8678 87.5324 49.8902 87.1923 49.9644L86.9314 51.8271C86.891 52.1122 87.0726 52.3818 87.3506 52.445Z" fill="white"/>
<path d="M93.0364 33.9141C92.6332 36.4343 91.4033 41.8982 89.7097 43.5917C87.5927 45.7087 90.9194 47.8257 93.3389 47.2209" stroke="#232323" stroke-width="1.77624" stroke-linecap="round"/>
<path d="M107.486 30.0085L107.661 30.2541C108.099 30.8667 107.622 31.7192 106.869 31.6957C102.298 31.5527 99.1728 32.1945 97.6513 32.7256C97.2461 32.867 96.752 32.7413 96.7389 32.3123C96.7239 31.8224 96.9713 31.1887 97.875 30.5863C99.2427 29.6744 104.477 29.4965 106.848 29.6476C107.105 29.6639 107.336 29.7992 107.486 30.0085Z" fill="#232323"/>
<path d="M80.5923 28.6574L80.4015 28.8912C79.9254 29.4743 80.3466 30.3558 81.099 30.3808C85.6697 30.5324 88.7472 31.3741 90.2313 32.0021C90.6266 32.1693 91.1277 32.0757 91.1684 31.6484C91.2149 31.1605 91.0089 30.5122 90.1459 29.8528C88.8397 28.8548 83.6281 28.3402 81.2521 28.3383C80.9949 28.3381 80.755 28.4582 80.5923 28.6574Z" fill="#232323"/>
<mask id="mask1_1642_18856" style="mask-type:alpha" maskUnits="userSpaceOnUse" x="97" y="30" width="14" height="10">
<path d="M109.181 38.9238C106.875 39.3851 101.363 38.6922 98.4075 38.1025C98.1429 38.0497 97.9183 37.8777 97.8141 37.6288C96.9897 35.6583 96.4949 31.8884 101.016 30.7583C107.064 29.2461 112.205 38.319 109.181 38.9238Z" fill="#232323"/>
</mask>
<g mask="url(#mask1_1642_18856)">
<ellipse cx="102.409" cy="36.3345" rx="3.3267" ry="3.3267" fill="white"/>
<ellipse cx="103.012" cy="36.3338" rx="2.11699" ry="2.11699" fill="#232323"/>
</g>
<mask id="mask2_1642_18856" style="mask-type:alpha" maskUnits="userSpaceOnUse" x="80" y="29" width="14" height="10">
<path d="M92.8492 38.3183C90.5429 38.7796 85.0309 38.0867 82.0754 37.497C81.8109 37.4442 81.5862 37.2722 81.4821 37.0234C80.6577 35.0529 80.1629 31.283 84.6836 30.1528C90.7322 28.6407 95.8734 37.7135 92.8492 38.3183Z" fill="#232323"/>
</mask>
<g mask="url(#mask2_1642_18856)">
<ellipse cx="86.0767" cy="35.729" rx="3.3267" ry="3.3267" fill="white"/>
<ellipse cx="86.6795" cy="35.7283" rx="2.11699" ry="2.11699" fill="#232323"/>
</g>
<path d="M99.082 38.4492C100.393 38.55 103.437 38.8726 105.131 39.3565" stroke="#232323" stroke-width="1.42099" stroke-linecap="round"/>
<path d="M82.7539 37.8457C84.0644 37.9465 87.1089 38.2691 88.8025 38.753" stroke="#232323" stroke-width="1.42099" stroke-linecap="round"/>
<path d="M91.6889 16.5967C87.76 15.8947 79.7209 18.0409 78.9955 32.2415C78.0889 49.9924 79.6 53.6027 85.04 60.5225L84.7378 64.4337C79.7007 65.3363 68.9013 67.2016 66 67.4423C68.4178 61.4251 73.3742 47.4049 73.8578 39.4622C74.4622 29.5338 74.7644 5.16399 96.2222 2.15538C100.756 0.651068 111.575 0.771413 118.587 13.2873C127.351 28.9321 131.582 76.1673 131.884 81.282C132.187 86.3966 132.489 97.8294 134 99.3337L130.676 96.0242C128.761 99.7348 123.604 108.42 118.284 113.474C112.965 118.529 106.196 121.597 103.476 122.5C104.483 121.898 106.558 120.454 106.8 119.491C107.102 118.288 100.756 119.191 99.5467 109.864C98.8893 104.792 100.15 101.565 101.562 99.7654C98.9414 102.574 96.2211 108.027 98.3378 115.881C97.3304 115.179 95.6782 111.428 97.1289 102.041C98.9422 90.3078 106.498 84.8923 108.916 67.7432C111.333 50.5941 109.822 28.6312 102.871 22.0122C95.92 15.3933 92.2933 16.6782 91.6889 16.5967Z" fill="#232323" stroke="#232323" stroke-width="1.77624" stroke-linecap="round"/>
<path d="M9.86719 55.084C14.0004 58.4107 22.9925 65.306 25.8959 66.2738" stroke="#232323" stroke-width="1.42099" stroke-linecap="round"/>
<path d="M34.668 56.8973C35.3736 56.7965 37.1479 57.2602 38.5995 59.9216C40.0512 62.5829 40.6157 64.0547 40.7165 64.458C43.8416 67.4823 49.6684 74.8615 47.9748 80.1842L48.2772 81.3939C47.7732 84.1158 45.2529 88.2893 39.2044 83.2085" stroke="#232323" stroke-width="1.42099" stroke-linecap="round"/>
<path d="M34.3612 107.804C31.7863 102.151 36.9873 96.7829 40.1098 94.7012L43.1341 104.984C43.2317 104.922 43.3282 104.861 43.4236 104.799L43.4365 104.984C42.429 106.379 39.4313 108.382 34.3612 107.804Z" fill="#DE8845"/>
<path d="M133.429 105.045L131.745 108.31L139.911 113.452L142.33 109.52C145.718 111.456 147.572 114.964 148.076 116.476L147.203 117.495C143.238 115.266 130.759 108.822 130.233 106.193C129.816 104.106 131.767 104.572 133.429 105.045Z" fill="#DE8845"/>
<path d="M142.027 110.428C142.431 108.412 144.205 104.077 148.076 102.867C151.947 101.657 156.342 102.363 158.056 102.867" stroke="black" stroke-width="1.42099" stroke-linecap="round"/>
<path d="M186.937 98.935C186.937 97.4228 183.913 95.9107 178.469 94.701C174.114 93.7332 168.993 92.8864 166.977 92.584" stroke="black" stroke-width="1.42099" stroke-linecap="round"/>
<path d="M43.4384 104.984C41.2206 98.3304 36.3616 84.6606 34.668 83.209" stroke="#232323" stroke-width="1.42099" stroke-linecap="round"/>
<path fill-rule="evenodd" clip-rule="evenodd" d="M110.534 73.4865C110.028 70.8777 107.503 69.173 104.894 69.6792L67.2904 76.9742C64.6815 77.4803 62.9769 80.0055 63.483 82.6144L73.2547 132.984C73.2547 132.984 73.2547 132.984 73.2547 132.984C73.2546 132.984 73.2546 132.984 73.2546 132.984L74.9993 134.993C75.7748 135.886 77.2259 135.604 77.6113 134.486L78.4779 131.973C78.4782 131.972 78.4792 131.971 78.4803 131.971C78.4815 131.97 78.4826 131.971 78.4834 131.972L79.3546 132.974C80.5178 134.314 82.6944 133.891 83.2725 132.214C83.5408 131.436 84.2039 130.86 85.012 130.703L92.8602 129.181C93.6684 129.024 94.4988 129.31 95.0387 129.932C96.2019 131.271 98.3785 130.849 98.9567 129.172L99.3896 127.916C99.39 127.915 99.3909 127.914 99.3921 127.914C99.3932 127.913 99.3944 127.914 99.3951 127.915L100.266 128.918C101.43 130.257 103.606 129.834 104.184 128.158L104.617 126.902C104.618 126.901 104.619 126.9 104.62 126.899C104.621 126.899 104.622 126.9 104.623 126.901L105.494 127.903C106.657 129.243 108.834 128.82 109.412 127.143C109.68 126.365 110.343 125.789 111.151 125.632L113.772 125.124C114.58 124.967 115.411 125.254 115.951 125.875C117.113 127.214 119.29 126.792 119.868 125.116L120.302 123.858C120.302 123.858 120.302 123.857 120.303 123.857C120.305 123.857 120.305 123.855 120.305 123.854L110.534 73.4865ZM86.323 130.449C85.1621 130.674 84.6804 132.072 85.4559 132.965C86.2314 133.857 87.6825 133.576 88.0679 132.458C88.4533 131.34 87.4839 130.224 86.323 130.449ZM91.5506 129.435C90.3897 129.66 89.908 131.058 90.6835 131.95C91.459 132.843 92.9101 132.562 93.2955 131.444C93.6809 130.326 92.7115 129.21 91.5506 129.435ZM114.207 127.387C113.822 128.505 112.371 128.786 111.595 127.894C110.82 127.001 111.301 125.603 112.462 125.378C113.623 125.153 114.593 126.269 114.207 127.387Z" fill="white"/>
<rect opacity="0.5" x="67.1211" y="82.0137" width="40.5545" height="3.27713" rx="1.63857" transform="rotate(-10.979 67.1211 82.0137)" fill="#D9D9D9"/>
<rect opacity="0.5" x="73.207" y="113.381" width="40.5545" height="3.27713" rx="1.63857" transform="rotate(-10.979 73.207 113.381)" fill="#D9D9D9"/>
<rect opacity="0.5" x="75.0781" y="123.033" width="40.5545" height="3.27713" rx="1.63857" transform="rotate(-10.979 75.0781 123.033)" fill="#D9D9D9"/>
<rect opacity="0.5" x="68.0586" y="86.8398" width="40.5545" height="3.27713" rx="1.63857" transform="rotate(-10.979 68.0586 86.8398)" fill="#D9D9D9"/>
<rect opacity="0.5" x="74.1445" y="118.207" width="40.5545" height="3.27713" rx="1.63857" transform="rotate(-10.979 74.1445 118.207)" fill="#D9D9D9"/>
<path fill-rule="evenodd" clip-rule="evenodd" d="M98.7306 93.6686C99.5194 92.4994 99.2109 90.9081 98.0425 90.1188C96.8741 89.3296 95.2839 89.6383 94.4952 90.8075L89.0201 98.9237L85.84 96.7755C84.6704 95.9854 83.0822 96.2938 82.2927 97.4642C81.5032 98.6346 81.8113 100.224 82.9809 101.014L88.2761 104.591C88.8214 104.959 89.4577 105.089 90.0615 105.004C90.7548 104.907 91.4057 104.527 91.828 103.901L98.7306 93.6686Z" fill="#23BA3B"/>
<rect width="9.65879" height="4.81374" transform="matrix(0.881896 -0.471444 0.470938 0.882166 131.238 20.5234)" fill="#FFB21D"/>
</g>
</svg>
